<svg id="Layer_1" data-name="Layer 1" xmlns="http://www.w3.org/2000/svg" viewBox="0 0 518.25 327.21"><defs><style>.cls-1{fill:#f2f2f2;stroke:#000;stroke-width:1.92px;}.cls-2{font-size:44px;font-family:ComicSansMS, Comic Sans MS;}</style></defs><title>big-bubble</title><path class="cls-1" d="M-50.78-215.81C-84.3-182.73,30.47-142,50.94-167.22c6,47.09,138.19,46.64,144.88,18.87,25.47,25.53,121.21,12,111.47-23.34,86.16,13,99.32-79.44,44.46-81.59,53.58-45.87-71.73-85.8-100.88-60.37C251.72-356.92,135-373.16,117-349.28,71.55-394-15.75-372.56-17.4-348.8c-58.47-12.6-114.88,34.54-76.86,59.49C-149.62-266.41-92.67-208.57-50.78-215.81Zm1.26,84.57c6.81-17.83,33.16-12.32,39.09-.74,12.61-17.43,52,2,40.39,11.71C63.43-125.88,59.4-95,37.36-98,42.85-82,21.22-74.41,4.87-86.75-7.6-74-44.06-82.11-40.78-95.07c-32.2,7.58-31.88-9.42-20-16.5C-87.23-116.87-64-138.58-49.52-131.24ZM-120.91-73.8C-125.29-82.59-100.21-90-95-78c11.38-8.06,32.51,2.19,18.13,11.34,7.36,8.79-3.67,18-18.11,12-6.91,10.53-32.89.75-25.1-5.78C-131.69-59-138.7-72.71-120.91-73.8Z" transform="translate(132.67 376.29)"/><text class="cls-2" transform="matrix(0.99, 0.15, -0.15, 0.99, 116.01, 67.31)">Get a fast easy <tspan x="38.85" y="47">hassle-free </tspan><tspan x="-2.81" y="94">offer in minutes</tspan></text></svg>