<svg id="Layer_1" data-name="Layer 1" xmlns="http://www.w3.org/2000/svg" width="383.6114" height="368.897" viewBox="0 0 383.6114 368.897"><defs><style>.cls-1{fill:#f8f8f8;}.cls-1,.cls-3{fill-rule:evenodd;}.cls-2{fill:#333;}.cls-3,.cls-4{fill:#949494;}</style></defs><title>braces</title><path class="cls-1" d="M262.2569,134.3162a7.68,7.68,0,0,1,7.68-7.68h47.2819a7.68,7.68,0,0,1,7.68,7.68v45.5119h80.4651c-.6692-28.5154-8.4529-56.8089-29.6779-78.7907-3.2907-5.64-8.3633-10.616-14.8643-14.9417C337.9989,70.91,295.4111,62.9678,252.0961,62.4743c-43.1246-.4915-87.4613,6.37-114.0543,20.7848-9.0394,4.9-16.2232,10.741-20.9242,17.5538-21.3882,22.0136-29.2215,50.4026-29.8922,79.0152h80.468V134.3162a7.68,7.68,0,0,1,7.68-7.68h47.2819a7.68,7.68,0,0,1,7.68,7.68v7.0951h31.9213Z" transform="translate(-54.4544 -62.4497)"/><path class="cls-2" d="M287.3877,347.2581c-.0071.2262-2.75,78.6708,26.5206,67.0454,3.9014-2.5886,30.2522-23.0644,45.5417-112.6194l7.56,1.29-7.57-1.2926a7.6586,7.6586,0,0,1,.9918-2.6742c4.3617-8.686,62.7321-128.1161,3.5759-188.0343l-.0153.0151a7.6669,7.6669,0,0,1-1.4868-2.1274c-2.0392-3.568-5.5142-6.9044-10.1435-9.9848-20.3505-13.5408-59.7642-20.6388-100.3858-21.1014-40.8121-.4652-82.35,5.7994-106.674,18.9848-7.1076,3.8525-12.55,8.2145-15.7759,13.062l-6.39-4.23,6.3939,4.2545a7.6943,7.6943,0,0,1-1.243,1.444c-60.6493,62.07,3.6312,187.2487,4.1269,188.2176l.017-.0088a7.6665,7.6665,0,0,1,.7813,2.5838c15.2994,89.2134,41.5766,109.6356,45.4719,112.2211,29.2712,11.6254,26.5278-66.8192,26.5207-67.0454-1.3331-40.6666,8.2905-67.352,21.0492-79.681,6.0934-5.8881,12.9889-8.8325,20.0424-8.8325s13.949,2.9444,20.0424,8.8325c12.7587,12.329,22.3823,39.0146,21.0492,79.681ZM317.2566,421.24l2.97,7.08c-51.8857,21.7919-48.1485-81.2469-48.1394-81.5425,1.1758-35.8714-6.3377-58.4674-16.3692-68.1611-3.1125-3.0075-6.3471-4.5119-9.4221-4.5119s-6.31,1.5044-9.4221,4.5119c-10.0315,9.6937-17.545,32.29-16.3692,68.1611.0091.2948,3.7173,102.6992-47.6771,81.7225a7.7409,7.7409,0,0,1-1.3371-.6117l3.845-6.6484-3.84,6.63c-.1024-.059-35.4742-19.5778-53.2769-122.4882-6.2541-12.6082-65.9146-137.8607-1.101-204.5693,4.701-6.8128,11.8848-12.6538,20.9242-17.5538,26.593-14.415,70.93-21.2763,114.0543-20.7848,43.315.4935,85.9028,8.4354,108.7259,23.6214,6.501,4.3257,11.5736,9.3016,14.8643,14.9417,64.4655,66.7641,4.9357,191.75-1.3127,204.3448-16.2981,94.2123-47.3153,118.5313-52.5217,122.0134a7.7057,7.7057,0,0,1-1.6214.9258Z" transform="translate(-54.4544 -62.4497)"/><path class="cls-2" d="M175.3735,126.636h47.2819a7.68,7.68,0,0,1,7.68,7.68V240.7a7.68,7.68,0,0,1-7.68,7.68H175.3735a7.68,7.68,0,0,1-7.68-7.68V134.3162a7.68,7.68,0,0,1,7.68-7.68Zm39.6017,15.36H183.0537V233.02h31.9215Z" transform="translate(-54.4544 -62.4497)"/><path class="cls-2" d="M262.2569,156.7717H230.3356v61.4726h31.9213V156.7717Zm-39.6015-15.36H269.937a7.68,7.68,0,0,1,7.68,7.68v76.833a7.68,7.68,0,0,1-7.68,7.68H222.6554a7.68,7.68,0,0,1-7.68-7.68v-76.833A7.68,7.68,0,0,1,222.6554,141.4113Z" transform="translate(-54.4544 -62.4497)"/><path class="cls-2" d="M309.5387,141.9963H277.6172V233.02h31.9215V141.9963Zm-39.6017-15.36h47.2819a7.68,7.68,0,0,1,7.68,7.68V240.7a7.68,7.68,0,0,1-7.68,7.68H269.937a7.68,7.68,0,0,1-7.68-7.68V134.3162A7.68,7.68,0,0,1,269.937,126.636Z" transform="translate(-54.4544 -62.4497)"/><path class="cls-2" d="M62.1346,179.8281a7.68,7.68,0,1,0,0,15.36H175.3735a7.68,7.68,0,0,0,0-15.36Z" transform="translate(-54.4544 -62.4497)"/><path class="cls-2" d="M430.3856,195.1885a7.68,7.68,0,1,0,0-15.36H317.2186a7.68,7.68,0,0,0,0,15.36Z" transform="translate(-54.4544 -62.4497)"/><path class="cls-1" d="M360.4314,299.0074c2.7139-5.4043,26.3356-53.68,29.5486-103.8189H324.8991V240.7a7.68,7.68,0,0,1-7.68,7.68H269.937a7.68,7.68,0,0,1-7.68-7.68v-7.0951H230.3356V240.7a7.68,7.68,0,0,1-7.68,7.68H175.3735a7.68,7.68,0,0,1-7.68-7.68V195.1885H102.6187c3.386,52.8871,29.48,103.7029,29.7949,104.3189l.017-.0088a7.6665,7.6665,0,0,1,.7813,2.5838c15.2994,89.2134,41.5766,109.6356,45.4719,112.2211,29.2712,11.6254,26.5278-66.8192,26.5207-67.0454-1.3331-40.6666,8.2905-67.352,21.0492-79.681,6.0934-5.8881,12.9889-8.8325,20.0424-8.8325s13.949,2.9444,20.0424,8.8325c12.7587,12.329,22.3823,39.0146,21.0492,79.681-.0071.2262-2.75,78.6708,26.5206,67.0454,3.9014-2.5886,30.2522-23.0644,45.5417-112.6194l-.01-.0025A7.6586,7.6586,0,0,1,360.4314,299.0074Z" transform="translate(-54.4544 -62.4497)"/><polygon class="cls-3" points="160.521 163.475 160.521 86.642 160.521 79.547 128.599 79.547 128.599 125.059 128.599 170.57 160.521 170.57 160.521 163.475"/><rect class="cls-4" x="175.8812" y="94.322" width="31.9213" height="61.4726"/><path class="cls-3" d="M277.6172,149.0915V233.02h31.9215V187.5749l0-.0666,0-.0666V141.9963H277.6172Z" transform="translate(-54.4544 -62.4497)"/></svg>