<svg id="Layer_1" data-name="Layer 1" xmlns="http://www.w3.org/2000/svg" viewBox="0 0 264.84 166.3"><defs><style>.cls-1{fill:#f9f9f9;stroke:#1a1a1a;stroke-miterlimit:10;stroke-width:1.87px;}.cls-2{font-size:21px;font-family:CCMeanwhile-Italic, CCMeanwhile;font-style:italic;}.cls-3{letter-spacing:-0.04em;}.cls-4{letter-spacing:-0.05em;}.cls-5{letter-spacing:0em;}</style></defs><title>bubble3</title><g id="Фигура_10" data-name="Фигура 10"><path class="cls-1" d="M136.65,207.91a4.28,4.28,0,0,1-4.51-4c0-.15,0-.29-.08-.42-2.26-8.31-12.87-15.47-25.24-17-10.07-1.25-20.23.77-31.1,6.19-.76.38-3.09,1.55-5.1.47-2.19-1.19-1.26-3.45-.44-5.45l.15-.37c.37-.92.81-1.83,1.25-2.73A30,30,0,0,0,73,181.45c1.31-3.76,1.19-6.54-.39-8.76-3.85-5.45-14.87-5.79-23.9-4.31l-.89-1.73.55,1.79a119.41,119.41,0,0,0-32,9.92c-2.44,1.16-4.83,2.42-7.1,3.72-.52.3-1.07.7-1.65,1.11a15.55,15.55,0,0,1-5.16,2.74,7.68,7.68,0,0,1-5.67-.7,2.36,2.36,0,0,1-1.06-2.83c.51-1.45,2.5-2.4,4.32-3.18a118.66,118.66,0,0,0,27.7-16.37c3.94-3.14,8.48-7.33,8.7-12h0a7.26,7.26,0,0,0-2.82-5.63,9.17,9.17,0,0,0-3-1.71c-.17,0-.74-.1-1.12-.14a8.06,8.06,0,0,1-3.54-.88,2.51,2.51,0,0,1-1.38-2.4c.26-2.11,3.57-3.71,7.88-5.58.69-.3,1.56-.67,1.78-.81,3.11-2.15,3-6.13,1.3-8.95-2-3.24-5.89-5.86-9.66-8.39l-13.38-8.85c-.08-.06-.24-.14-.4-.23-1.07-.58-2.18-1.18-2.5-2.11a1.87,1.87,0,0,1,.59-2c1.31-1.2,3.69-1.15,6.24-1.09.63,0,1.6,0,1.89,0,1.68-.38,3.39-1.64,3.11-2.89-1-4.36-1.93-8.73-2.87-13.09L13.68,63.62c-.34-1.19-.92-3.17,1.12-4.18a4.23,4.23,0,0,1,2.77-.29c2.1.49,3.22,2.37,4.37,4.59l.21.41C29.56,76.1,46.28,84.26,62.82,83.82,80.25,83.44,96,73,97.3,60.91a33.43,33.43,0,0,0-.6-8.56c-.07-.47-.17-1-.27-1.42-.17-.89-.35-1.78-.43-2.68-.13-1.54-.33-3.79,1.87-4.57a4,4,0,0,1,3.51.51c1.24.84,1.71,2.25,2.2,4a6.39,6.39,0,0,0,.21.71c.48,1.38.85,2.77,1.23,4.16l.19.71a37.19,37.19,0,0,0,2.54,7.36c3.76,7.44,13,13.15,23.63,14.55a41.71,41.71,0,0,0,16.12-1.09,37.84,37.84,0,0,0,7.28-2.77,14.83,14.83,0,0,0,1.65-1c.49-.34,1-.68,1.5-1l.32-.2a7.11,7.11,0,0,1,2.47-1.14l.34-.07a3.51,3.51,0,0,1,3.51.85,1.23,1.23,0,0,0,.2.2,9.16,9.16,0,0,1,1.6,2,6.85,6.85,0,0,0,1.06,1.38,15.1,15.1,0,0,0,3.65,2.35,30.28,30.28,0,0,0,20.09,1.41C202,73.55,209.6,65.92,215.87,59a12.83,12.83,0,0,1,3.65-3c.84-.43,3.76-1.75,5.77-.56,2.38,1.4.3,3.56-1.22,5.14-.2.21-.36.38-.45.49a25.27,25.27,0,0,0-4.33,8.6,22.74,22.74,0,0,0,2.44,18.05c5.74,9.53,19,16.55,33.09,17.48a4,4,0,0,1,3.53,2.18,3.29,3.29,0,0,1-1.44,4,12,12,0,0,1-5.6,1.47l-.65.06c-11,1.14-18,10.16-18.12,17.85-.07,5.13,2,10.63,6.29,16.83.15.21.56.69,1.06,1.29,3.64,4.34,5.14,6.14,3,7.47-1.92,1.2-4.78.39-7.55-.39-.61-.17-1.13-.33-1.45-.39a45.13,45.13,0,0,0-7.74-.37,40.15,40.15,0,0,0-14.12,3c-8.82,3.78-14.78,10.75-15.57,18.18-.41,4,.55,8,1.48,12,.05.22.16.58.31,1,1.25,4,1.62,6,.55,7.23a3.16,3.16,0,0,1-1.92,1c-2.47.37-4.38-1.24-5.91-2.52a8.5,8.5,0,0,0-.88-.7,34.87,34.87,0,0,0-5.51-2.52,45.9,45.9,0,0,0-12.68-2.52c-9.14-.55-17.88,1.47-24.06,5.52-3.57,2.33-6,5.17-6.91,8a3.05,3.05,0,0,0-.09.74c-.1,1.13-.34,4.13-4,4.21ZM29,139.55Z" transform="translate(5.32 -42.55)"/></g><text class="cls-2" transform="translate(70.26 65.13)">Be<tspan class="cls-3" x="30.32" y="0">s</tspan><tspan x="45.59" y="0">t Offer</tspan></text><text class="cls-2" transform="translate(51.61 88.85)">For <tspan class="cls-4" x="60.19" y="0">y</tspan><tspan class="cls-5" x="73.18" y="0">our car</tspan></text><text class="cls-2" transform="translate(60.62 113.56)">guaranteed!</text></svg>