<svg id="Layer_1" data-name="Layer 1" xmlns="http://www.w3.org/2000/svg" viewBox="0 0 241.92 209.08"><defs><style>.cls-1{fill:#f2f2f2;stroke:#1a1a1a;stroke-miterlimit:10;stroke-width:2px;}.cls-2{font-size:29px;}.cls-2,.cls-4{font-family:CCMeanwhile-Italic, CCMeanwhile;font-style:italic;}.cls-3{letter-spacing:-0.05em;}.cls-4{font-size:34px;}</style></defs><title>bubble2</title><g id="Фигура_10" data-name="Фигура 10"><path class="cls-1" d="M130.52,233.25c-3.43,0-3.94-3.74-4.12-5,0-.2-.05-.37-.08-.53-2-10.48-11.73-19.5-23-21.41-9.19-1.59-18.45,1-28.37,7.79-.7.48-2.82,1.95-4.66.59-2-1.5-1.15-4.35-.4-6.86l.14-.47c.33-1.16.74-2.3,1.14-3.44.49-1.39.95-2.69,1.29-4,1.19-4.73,1.08-8.23-.36-11-3.51-6.85-13.57-7.29-21.8-5.42l-.82-2.18.51,2.25A89,89,0,0,0,20.81,196c-2.23,1.47-4.41,3.05-6.48,4.69-.47.38-1,.89-1.51,1.4a13.48,13.48,0,0,1-4.7,3.45A5.33,5.33,0,0,1,3,204.68a3.51,3.51,0,0,1-1-3.55c.46-1.84,2.28-3,3.94-4A107.36,107.36,0,0,0,31.19,176.5c3.59-3.95,7.74-9.23,7.93-15.15h0a10.67,10.67,0,0,0-2.57-7.1,8.17,8.17,0,0,0-2.74-2.16c-.15,0-.68-.12-1-.17a5.91,5.91,0,0,1-3.22-1.1,3.54,3.54,0,0,1-1.26-3c.23-2.66,3.26-4.67,7.19-7,.63-.38,1.42-.85,1.62-1,2.84-2.71,2.75-7.73,1.18-11.28-1.8-4.08-5.36-7.38-8.81-10.57l-12.2-11.14-.37-.28a5.26,5.26,0,0,1-2.28-2.67,3,3,0,0,1,.54-2.58c1.19-1.51,3.36-1.44,5.69-1.38a16.34,16.34,0,0,0,1.73,0c1.53-.48,3.09-2.07,2.83-3.64-.9-5.5-1.76-11-2.62-16.49l-4.47-28.2c-.31-1.49-.84-4,1-5.26a2.91,2.91,0,0,1,2.53-.37c1.91.62,2.93,3,4,5.78.08.23.15.41.2.52,6.75,15,22,25.33,37.1,24.78,15.9-.48,30.31-13.7,31.46-28.86a57.92,57.92,0,0,0-.55-10.77c-.07-.6-.16-1.2-.25-1.8-.16-1.12-.32-2.24-.39-3.38-.12-1.93-.3-4.77,1.7-5.74a2.78,2.78,0,0,1,3.2.63c1.14,1.06,1.57,2.84,2,5.07.07.35.13.66.19.9.44,1.73.79,3.48,1.13,5.24l.17.88a60.54,60.54,0,0,0,2.32,9.28A29,29,0,0,0,125.7,66.75a28,28,0,0,0,14.72-1.38,29,29,0,0,0,6.64-3.48,13.26,13.26,0,0,0,1.5-1.32c.45-.42.9-.85,1.37-1.24l.29-.26a6,6,0,0,1,2.26-1.42l.3-.09A2.57,2.57,0,0,1,156,58.63a2.71,2.71,0,0,0,.18.25,11.87,11.87,0,0,1,1.46,2.55,8.93,8.93,0,0,0,1,1.74,14.49,14.49,0,0,0,3.33,3,20.69,20.69,0,0,0,18.34,1.78c9.88-3.87,16.81-13.48,22.53-22.18A13.71,13.71,0,0,1,206.12,42c.77-.55,3.43-2.2,5.27-.71,2.17,1.77.27,4.49-1.12,6.48-.18.26-.33.47-.41.61a38.84,38.84,0,0,0-1.72,33.57c5.23,12,17.36,20.84,30.19,22a3.77,3.77,0,0,1,3.22,2.75,5,5,0,0,1-1.32,5.08,8.54,8.54,0,0,1-5.11,1.85l-.59.08c-10.05,1.44-16.41,12.79-16.53,22.48-.06,6.46,1.81,13.39,5.74,21.19.14.27.51.87,1,1.63,3.32,5.47,4.69,7.73,2.74,9.41-1.76,1.5-4.37.49-6.9-.5a13.94,13.94,0,0,0-1.32-.48,29.14,29.14,0,0,0-7.06-.47,28.23,28.23,0,0,0-12.89,3.82,29.6,29.6,0,0,0-14.2,22.89c-.37,5,.5,10.12,1.35,15.07,0,.28.15.74.28,1.32,1.14,5.05,1.49,7.56.51,9.1a2.69,2.69,0,0,1-1.75,1.22c-2.26.46-4-1.55-5.4-3.17a7.83,7.83,0,0,0-.8-.89,28.84,28.84,0,0,0-5-3.17A32.37,32.37,0,0,0,162.67,210a29,29,0,0,0-21.95,6.95,20,20,0,0,0-6.3,10.08,5.75,5.75,0,0,0-.08.93c-.09,1.42-.31,5.2-3.67,5.3ZM32.28,147.16Z" transform="translate(-0.85 -25.17)"/></g><text class="cls-2" transform="translate(40.62 86.68)">Get</text><text class="cls-2" transform="translate(121.21 86.68)">cash</text><text class="cls-2" transform="translate(42.54 123.1)">for</text><text class="cls-2" transform="translate(126.56 123.1)"><tspan class="cls-3">y</tspan><tspan x="17.95" y="0">our </tspan></text><text class="cls-4" transform="translate(82.15 163.03)">car!</text></svg>