<svg xmlns="http://www.w3.org/2000/svg" xmlns:xlink="http://www.w3.org/1999/xlink" viewBox="0 0 1700.79 1133.86"><defs><style>.cls-1{mask:url(#mask);}.cls-2,.cls-3{mix-blend-mode:multiply;}.cls-2{fill:url(#Безымянный_градиент_5);}.cls-3{fill:url(#Безымянный_градиент_3);}.cls-4{isolation:isolate;}.cls-5{fill:#d5f0f2;}.cls-6{fill:#b1dfe6;}.cls-7{fill:#8dced6;}.cls-8{fill:#fff;}.cls-9{fill:#f6f6f6;}.cls-10{fill:#1d1d1b;}.cls-11{fill:#3c3c3b;}.cls-12{fill:#878787;}.cls-13{fill:#ec7b35;}.cls-14{mask:url(#mask-3);}.cls-15{fill:url(#Безымянный_градиент_24);}.cls-16{fill:url(#Безымянный_градиент_2);}.cls-17{fill:url(#Безымянный_градиент_14);}.cls-18{fill:#575756;}.cls-19{fill:#ededed;}.cls-20{fill:#d66018;}.cls-21{fill:#ec955e;}.cls-22{fill:#b32c52;}.cls-23{fill:url(#Безымянный_градиент_2-2);}.cls-24{fill:url(#Безымянный_градиент_4);}.cls-25{fill:url(#Безымянный_градиент_4-2);}.cls-26{fill:url(#Безымянный_градиент_4-3);}.cls-27{fill:url(#Безымянный_градиент_4-4);}.cls-28{fill:url(#Безымянный_градиент_4-5);}.cls-29{fill:#dadada;}.cls-30{mask:url(#mask-4);}.cls-31{opacity:0.75;mix-blend-mode:color-dodge;fill:url(#Безымянный_градиент_96);}.cls-32{fill:#bf5059;}.cls-33{fill:#223a61;}.cls-34{opacity:0.8;fill:url(#Безымянный_градиент_15);}.cls-35{filter:url(#luminosity-noclip-4);}.cls-36{filter:url(#luminosity-noclip-3);}.cls-37{filter:url(#luminosity-noclip);}</style><filter id="luminosity-noclip" x="531.26" y="-9142.41" width="714.97" height="32766" filterUnits="userSpaceOnUse" color-interpolation-filters="sRGB"><feFlood flood-color="#fff" result="bg"/><feBlend in="SourceGraphic" in2="bg"/></filter><mask id="mask" x="531.26" y="-9142.41" width="714.97" height="32766" maskUnits="userSpaceOnUse"><g class="cls-37"/></mask><linearGradient id="Безымянный_градиент_5" x1="859.5" y1="912.57" x2="906.18" y2="1177.31" gradientUnits="userSpaceOnUse"><stop offset="0"/><stop offset="0.5" stop-color="#1a1a1a"/><stop offset="0.56" stop-color="#232323"/><stop offset="0.66" stop-color="#3b3b3b"/><stop offset="0.79" stop-color="#636363"/><stop offset="0.94" stop-color="#9a9a9a"/><stop offset="1" stop-color="#b3b3b3"/></linearGradient><linearGradient id="Безымянный_градиент_3" x1="846.19" y1="914.71" x2="922.76" y2="1200.45" gradientUnits="userSpaceOnUse"><stop offset="0" stop-color="#fff"/><stop offset="1" stop-color="gray"/></linearGradient><filter id="luminosity-noclip-3" x="531.26" y="888.87" width="714.97" height="261.68" filterUnits="userSpaceOnUse" color-interpolation-filters="sRGB"><feFlood flood-color="#fff" result="bg"/><feBlend in="SourceGraphic" in2="bg"/></filter><mask id="mask-3" x="531.25" y="505.46" width="714.97" height="261.68" maskUnits="userSpaceOnUse"><g class="cls-36"><g transform="translate(0 -383.41)"><g class="cls-1"><path class="cls-2" d="M1246.17,1042.47a30.74,30.74,0,0,0-3.91-13.85c-3.1-5.86-1.68-11-1.27-17.22a52.57,52.57,0,0,0-.59-14.39c-1.27-5.83-5.17-7.61-8.87-11.75-3.07-3.44-4.73-7.08-9.52-8.49-2.62-.78-4.23-1-6.67-2.43-2.95-1.78-5.83-3.67-8.65-5.64-20.19-14.07-38.22-30.42-59.86-42.52a247.24,247.24,0,0,0-68-25.94c-24.23-5.27-49.15-7.39-73.87-9.22-25.66-1.91-51.34-2.17-77-2.14-26.75,0-61.18,1.93-87.91,4.75a258.71,258.71,0,0,0-35,6.52,194.25,194.25,0,0,0-34,12.05c-31,13.78-84.45,51.62-97.88,61.1a39.63,39.63,0,0,1-13.64,6.06c-20.21,4.23-39.56,11.73-52.19,19.11-4.45,2.61-8.44,5.2-12.85,7.85-4.82,2.89-9.46,4.33-14.65,6.6s-11,4.14-15.87,6.49a71.63,71.63,0,0,0-12.57,7.48c-3.78,2.75-8,7.24-8.67,11.95-.65,4.37,1.19,10.54-1.33,14.4a24.63,24.63,0,0,1-4.43,3.94c-4.94,3.39-5.3,11-5.52,16.75-.63,16.44,1.82,31.44,1,40.48-.52,5.57-1.62,11.17-.31,16.72,1,4.07,3.6,11.81,7.53,14,1.62.9,2.94.79,4.5,2.05,1.25,1,2,2.24,3.56,2.86a8.84,8.84,0,0,0,3.46.52H847a225,225,0,0,1,4.64-43c2.82-13.46,10.71-31.72,16.9-40.86,19.62-28.92,46.09-22.51,55-15.57,15.54,12.06,21.57,35.14,21.57,53.72,0,22.44-3.49,32.21-6,41.62H1149a3.62,3.62,0,0,0,3-1.06c1.53-1.76-3.11-16.32.61-38.21,2.07-12.19,5.2-24.08,11.06-35,5.37-10,16.3-27.64,30.89-26.49,18.26,1.44,28.67,24.12,31.46,37.58,4.78,23.07,2,37.09-.26,49.85-.9,5.12,3.46,2,6.14.46,4.17-2.41,6.41-3.69,9.06-7,3.28-4,2.87-8.58,3.36-13.52,1.23-12.3,3.63-23.83,0-37.12C1241.27,1064.86,1246.52,1053.67,1246.17,1042.47Z"/></g></g></g></mask><linearGradient id="Безымянный_градиент_24" x1="859.5" y1="912.57" x2="906.18" y2="1177.31" gradientUnits="userSpaceOnUse"><stop offset="0" stop-color="#ec7b35"/><stop offset="0.5" stop-color="#ec7b35"/><stop offset="0.72" stop-color="#e3742f"/><stop offset="1" stop-color="#d16524"/></linearGradient><linearGradient id="Безымянный_градиент_2" x1="1203.57" y1="986.36" x2="941.57" y2="953.71" gradientUnits="userSpaceOnUse"><stop offset="0" stop-color="#2e668f"/><stop offset="0.36" stop-color="#254d73"/><stop offset="0.76" stop-color="#1d385b"/><stop offset="1" stop-color="#1a3052"/></linearGradient><linearGradient id="Безымянный_градиент_14" x1="721.16" y1="1043.27" x2="896.47" y2="1043.27" gradientUnits="userSpaceOnUse"><stop offset="0" stop-color="#ededed"/><stop offset="0.26" stop-color="#e9e9e9"/><stop offset="0.52" stop-color="#dcdcdc"/><stop offset="0.79" stop-color="#c8c8c8"/><stop offset="1" stop-color="#b2b2b2"/></linearGradient><linearGradient id="Безымянный_градиент_2-2" x1="1202.05" y1="970.55" x2="944.08" y2="938.4" xlink:href="#Безымянный_градиент_2"/><linearGradient id="Безымянный_градиент_4" x1="1283.68" y1="943.7" x2="947.68" y2="943.7" gradientUnits="userSpaceOnUse"><stop offset="0" stop-color="#30b5bf"/><stop offset="1" stop-color="#244e78"/></linearGradient><linearGradient id="Безымянный_градиент_4-2" x1="1283.68" y1="964.01" x2="947.68" y2="964.01" xlink:href="#Безымянный_градиент_4"/><linearGradient id="Безымянный_градиент_4-3" x1="1283.68" y1="946.66" x2="947.68" y2="946.66" xlink:href="#Безымянный_градиент_4"/><linearGradient id="Безымянный_градиент_4-4" x1="1283.68" y1="934.88" x2="947.68" y2="934.88" xlink:href="#Безымянный_градиент_4"/><linearGradient id="Безымянный_градиент_4-5" x1="1283.68" y1="945.35" x2="947.68" y2="945.35" xlink:href="#Безымянный_градиент_4"/><filter id="luminosity-noclip-4" x="531.26" y="888.87" width="714.97" height="261.68" filterUnits="userSpaceOnUse" color-interpolation-filters="sRGB"><feFlood flood-color="#fff" result="bg"/><feBlend in="SourceGraphic" in2="bg"/></filter><mask id="mask-4" x="531.25" y="505.46" width="714.97" height="261.68" maskUnits="userSpaceOnUse"><g class="cls-35"><g transform="translate(0 -383.41)"><g class="cls-1"><path class="cls-3" d="M1244.3,1075.91c-3-11.05,2.22-22.24,1.87-33.44a30.74,30.74,0,0,0-3.91-13.85c-3.1-5.86-1.68-11-1.27-17.22a52.57,52.57,0,0,0-.59-14.39c-1.27-5.83-5.17-7.61-8.87-11.75-3.07-3.44-4.73-7.08-9.52-8.49-2.62-.78-4.23-1-6.67-2.43-2.95-1.78-5.83-3.67-8.65-5.64-20.19-14.07-38.22-30.42-59.86-42.52a247.24,247.24,0,0,0-68-25.94c-24.23-5.27-49.15-7.39-73.87-9.22-25.66-1.91-51.34-2.17-77-2.14-26.75,0-61.18,1.93-87.91,4.75a258.71,258.71,0,0,0-35,6.52,194.25,194.25,0,0,0-34,12.05c-31,13.78-84.45,51.62-97.88,61.1a39.63,39.63,0,0,1-13.64,6.06c-20.21,4.23-39.56,11.73-52.19,19.11-4.45,2.61-8.44,5.2-12.85,7.85-4.82,2.89-9.46,4.33-14.65,6.6s-11,4.14-15.87,6.49a71.63,71.63,0,0,0-12.57,7.48c-3.78,2.75-8,7.24-8.67,11.95-.65,4.37,1.19,10.54-1.33,14.4a24.63,24.63,0,0,1-4.43,3.94c-4.94,3.39-5.3,11-5.52,16.75-.63,16.44,1.82,31.44,1,40.48-.52,5.57-1.62,11.17-.31,16.72,1,4.07,3.6,11.81,7.53,14,1.62.9,2.94.79,4.5,2.05,1.25,1,2,2.24,3.56,2.86a8.84,8.84,0,0,0,3.46.52H847a225,225,0,0,1,4.64-43c2.82-13.46,10.71-31.72,16.9-40.86,19.62-28.92,46.09-22.51,55-15.57,15.54,12.06,21.57,35.14,21.57,53.72,0,22.44-3.49,32.21-6,41.62H1149a3.62,3.62,0,0,0,3-1.06c1.53-1.76-3.11-16.32.61-38.21,2.07-12.19,5.2-24.08,11.06-35,5.37-10,16.3-27.64,30.89-26.49,18.26,1.44,28.67,24.12,31.46,37.58,4.78,23.07,2,37.09-.26,49.85-.9,5.12,3.46,2,6.14.46,4.17-2.41,6.41-3.69,9.06-7,3.28-4,2.87-8.58,3.36-13.52C1245.54,1100.73,1247.94,1089.2,1244.3,1075.91ZM923.54,966.76c-3.17,3.43-7.11,9.09-11.23,11.29s-9.39,1-13.76,1.06c-11.28.18-43.66-5.7-116.89-5.94-22.28-.07-68.42,1.05-92.83,2.74-8,.55.72-6.31,3.65-8.82,14.11-12.09,44.86-32.35,54-38A268.83,268.83,0,0,1,777,912.77c13.31-5.95,17.52-7.55,29.15-9,10.51-1.31,26.16-2.38,37.34-2.67,51.19-1.35,96.83-.71,142.93,4.29-4.63,3.85-9,8.1-10.3,9.25C967.09,922.64,932.1,957.5,923.54,966.76ZM1157,969.18a51.33,51.33,0,0,1-12.49,5.52c-4.13,1.21-9.29,1.64-13.57,2-20.67,1.7-41.35,3.35-62,4.76-11.9.82-41.84,3.17-66.17,4.75,11.25-1.71,26.4-5.55,24.1-17.65-2-10.44-23.8-14.25-32.69-14.81-6.18-.38-13.17-.93-17.88,3.44a22.62,22.62,0,0,0-6.95,14.54c-.41,4.79,1.56,10.5,5.62,13.5a14.18,14.18,0,0,0,6.35,2.21c-4.27.19-7.8.3-10.25.29a100.28,100.28,0,0,1-10.8-.73c-4.54-.51-9.07-1.2-13.56-2-2.88-.54-9.6-1.7-11.34-4.25-2.05-3,9.15-14.18,11.69-16.85,11.37-12,22.83-25,35.49-36.22,11.46-10.19,23.91-19,39.51-21,18-2.38,36-.93,53.84,1.75,17.46,2.61,33.09,8.12,49.16,15.5s43.53,24.71,45.59,26.76C1175.69,955.64,1159.6,967.61,1157,969.18Z"/></g></g></g></mask><linearGradient id="Безымянный_градиент_96" x1="846.19" y1="914.71" x2="922.76" y2="1200.45" gradientUnits="userSpaceOnUse"><stop offset="0" stop-color="#191538"/><stop offset="1" stop-color="#5c3123"/></linearGradient><linearGradient id="Безымянный_градиент_15" x1="742.23" y1="930.55" x2="974.14" y2="930.55" gradientUnits="userSpaceOnUse"><stop offset="0" stop-color="#cceaff"/><stop offset="1" stop-color="#357b97"/></linearGradient></defs><title>car-info</title><g class="cls-4"><g id="Слой_1" data-name="Слой 1"><rect class="cls-5" width="1700.79" height="1133.86"/><rect class="cls-6" x="257.27" y="611.54" width="94.04" height="197.4"/><rect class="cls-5" x="272.15" y="629.02" width="32.14" height="8.53"/><rect class="cls-5" x="291.33" y="649.56" width="59.98" height="8.53"/><rect class="cls-5" x="272.15" y="670.1" width="57.19" height="8.53"/><rect class="cls-5" x="272.15" y="690.64" width="69.11" height="8.53"/><rect class="cls-5" x="272.15" y="711.18" width="79.16" height="8.53"/><rect class="cls-5" x="309.13" y="731.71" width="42.18" height="8.53"/><rect class="cls-5" x="272.15" y="752.25" width="65.52" height="8.53"/><rect class="cls-5" x="291.33" y="772.79" width="59.98" height="36.15"/><rect class="cls-6" x="387.76" y="545.74" width="46.53" height="263.2"/><rect class="cls-7" x="351.31" y="611.54" width="36.45" height="197.4"/><rect class="cls-7" x="336.06" y="593.27" width="30.4" height="18.28"/><rect class="cls-6" x="301" y="976.68" width="35.07" height="18.28" transform="translate(637.06 1588.22) rotate(180)"/><rect class="cls-7" x="1266.64" y="444.86" width="67.15" height="364.08"/><rect class="cls-6" x="1300.22" y="512.11" width="94.8" height="296.83"/><rect class="cls-7" x="1395.02" y="894.8" width="53.43" height="297.55" transform="translate(2843.48 1703.75) rotate(180)"/><rect class="cls-5" x="1300.22" y="526.33" width="86.64" height="8.53"/><rect class="cls-5" x="1300.22" y="546.87" width="68.24" height="8.53"/><rect class="cls-5" x="1300.22" y="567.41" width="86.64" height="8.53"/><rect class="cls-5" x="1339.24" y="587.95" width="47.62" height="8.53"/><rect class="cls-5" x="1300.22" y="608.48" width="86.64" height="8.53"/><rect class="cls-5" x="1300.22" y="629.02" width="78.04" height="8.53"/><rect class="cls-5" x="1359.66" y="649.56" width="27.2" height="8.53"/><rect class="cls-5" x="1312.05" y="670.1" width="74.81" height="8.53"/><rect class="cls-5" x="1347.62" y="690.64" width="39.24" height="8.53"/><rect class="cls-5" x="1300.22" y="711.18" width="86.64" height="8.53"/><rect class="cls-5" x="1300.22" y="731.71" width="61.44" height="8.53"/><rect class="cls-5" x="1300.22" y="752.25" width="86.64" height="8.53"/><rect class="cls-5" x="1300.22" y="772.79" width="86.64" height="36.15"/><rect class="cls-6" x="1402.06" y="772.79" width="19.67" height="36.15"/><rect class="cls-6" x="1154.49" y="828.27" width="112.16" height="364.08" transform="translate(2421.13 1637.22) rotate(180)"/><rect class="cls-5" x="1154.49" y="464.72" width="86.64" height="8.53"/><rect class="cls-5" x="1154.49" y="485.26" width="86.64" height="8.53"/><rect class="cls-5" x="1154.49" y="505.79" width="86.64" height="8.53"/><rect class="cls-5" x="1154.49" y="526.33" width="86.64" height="8.53"/><rect class="cls-5" x="1154.49" y="546.87" width="86.64" height="8.53"/><rect class="cls-5" x="1154.49" y="567.41" width="86.64" height="8.53"/><rect class="cls-5" x="1154.49" y="587.95" width="86.64" height="8.53"/><rect class="cls-5" x="1154.49" y="608.48" width="86.64" height="8.53"/><rect class="cls-5" x="1154.49" y="629.02" width="86.64" height="8.53"/><rect class="cls-5" x="1154.49" y="649.56" width="86.64" height="8.53"/><rect class="cls-5" x="1154.49" y="670.1" width="86.64" height="8.53"/><rect class="cls-5" x="1154.49" y="690.64" width="86.64" height="8.53"/><rect class="cls-5" x="1154.49" y="711.18" width="86.64" height="8.53"/><rect class="cls-5" x="1154.49" y="731.71" width="86.64" height="8.53"/><rect class="cls-5" x="1154.49" y="752.25" width="86.64" height="8.53"/><rect class="cls-5" x="1154.49" y="772.79" width="86.64" height="8.53"/><rect class="cls-5" x="1154.49" y="793.33" width="86.64" height="8.53"/><rect class="cls-8" x="1154.49" y="526.33" width="28.38" height="8.53"/><rect class="cls-8" x="1182.86" y="567.41" width="6.8" height="8.53"/><rect class="cls-8" x="1227.26" y="485.26" width="13.87" height="8.53"/><rect class="cls-8" x="1193.13" y="505.79" width="6.67" height="8.53"/><rect class="cls-8" x="1211.8" y="608.48" width="22.13" height="8.53"/><rect class="cls-8" x="1165.4" y="464.79" width="6.13" height="8.46"/><rect class="cls-8" x="1176.26" y="505.79" width="6.6" height="8.53"/><rect class="cls-7" x="904.83" y="377.71" width="59.9" height="431.23"/><rect class="cls-6" x="810.65" y="377.71" width="94.18" height="431.23"/><rect class="cls-5" x="810.65" y="397.57" width="94.18" height="8.53"/><rect class="cls-5" x="810.65" y="418.11" width="94.18" height="8.53"/><rect class="cls-5" x="810.65" y="438.65" width="94.18" height="8.53"/><rect class="cls-5" x="810.65" y="459.19" width="94.18" height="8.53"/><rect class="cls-5" x="810.65" y="479.72" width="94.18" height="8.53"/><rect class="cls-5" x="810.65" y="500.26" width="94.18" height="8.53"/><rect class="cls-5" x="810.65" y="520.8" width="94.18" height="8.53"/><rect class="cls-5" x="810.65" y="541.34" width="94.18" height="8.53"/><rect class="cls-5" x="810.65" y="561.88" width="94.18" height="8.53"/><rect class="cls-5" x="810.65" y="582.41" width="94.18" height="8.53"/><rect class="cls-5" x="810.65" y="602.95" width="94.18" height="8.53"/><rect class="cls-5" x="810.65" y="623.49" width="94.18" height="8.53"/><rect class="cls-5" x="810.65" y="644.03" width="94.18" height="8.53"/><rect class="cls-5" x="810.65" y="664.57" width="94.18" height="8.53"/><rect class="cls-5" x="810.65" y="685.1" width="94.18" height="8.53"/><rect class="cls-5" x="810.65" y="705.64" width="94.18" height="8.53"/><rect class="cls-5" x="810.65" y="726.18" width="94.18" height="8.53"/><rect class="cls-6" x="904.83" y="397.57" width="38.83" height="8.53"/><rect class="cls-6" x="904.83" y="418.11" width="38.83" height="8.53"/><rect class="cls-6" x="904.83" y="438.65" width="38.83" height="8.53"/><rect class="cls-6" x="904.83" y="459.19" width="38.83" height="8.53"/><rect class="cls-6" x="904.83" y="479.72" width="38.83" height="8.53"/><rect class="cls-6" x="904.83" y="500.26" width="38.83" height="8.53"/><rect class="cls-6" x="904.83" y="520.8" width="38.83" height="8.53"/><rect class="cls-6" x="904.83" y="541.34" width="38.83" height="8.53"/><rect class="cls-6" x="904.83" y="561.88" width="38.83" height="8.53"/><rect class="cls-6" x="904.83" y="582.41" width="38.83" height="8.53"/><rect class="cls-6" x="904.83" y="602.95" width="38.83" height="8.53"/><rect class="cls-6" x="904.83" y="623.49" width="38.83" height="8.53"/><rect class="cls-6" x="904.83" y="644.03" width="38.83" height="8.53"/><rect class="cls-6" x="904.83" y="664.57" width="38.83" height="8.53"/><rect class="cls-6" x="904.83" y="685.1" width="38.83" height="8.53"/><rect class="cls-6" x="904.83" y="705.64" width="38.83" height="8.53"/><rect class="cls-6" x="904.83" y="726.18" width="38.83" height="8.53"/><rect class="cls-8" x="823.26" y="397.57" width="8.53" height="8.53"/><rect class="cls-8" x="870.2" y="438.65" width="34.63" height="8.53"/><rect class="cls-8" x="841.4" y="520.8" width="8.53" height="8.53"/><rect class="cls-8" x="866.46" y="541.34" width="29.07" height="8.53"/><rect class="cls-8" x="830.16" y="582.41" width="8.13" height="8.53"/><rect class="cls-8" x="857.74" y="582.41" width="7.85" height="8.53"/><rect class="cls-8" x="830.16" y="602.95" width="8.13" height="8.53"/><rect class="cls-5" x="915.26" y="541.34" width="7.4" height="8.53"/><rect class="cls-5" x="929.46" y="459.19" width="14.2" height="8.53"/><rect class="cls-5" x="915.26" y="418.11" width="7.5" height="8.53"/><rect class="cls-7" x="726.96" y="861.17" width="51.53" height="331.18" transform="translate(1505.44 1670.12) rotate(180)"/><rect class="cls-6" x="737.58" y="500.26" width="8.88" height="308.68"/><rect class="cls-5" x="737.58" y="520.8" width="8.88" height="8.53"/><rect class="cls-5" x="737.58" y="561.88" width="8.88" height="29.07"/><rect class="cls-5" x="737.58" y="664.57" width="8.88" height="8.53"/><rect class="cls-6" x="982.35" y="310.46" width="130.67" height="498.48"/><rect class="cls-8" x="993.97" y="331.47" width="2.88" height="477.48"/><rect class="cls-8" x="1007.04" y="331.47" width="2.88" height="477.48"/><rect class="cls-8" x="1020.11" y="331.47" width="2.88" height="477.48"/><rect class="cls-8" x="1033.17" y="331.47" width="2.88" height="477.48"/><rect class="cls-5" x="1046.24" y="331.47" width="2.88" height="477.48"/><rect class="cls-5" x="1059.31" y="331.47" width="2.88" height="274.4"/><rect class="cls-8" x="1072.37" y="331.47" width="2.88" height="477.48"/><rect class="cls-5" x="1085.44" y="331.47" width="2.88" height="233.6"/><rect class="cls-5" x="1098.51" y="331.47" width="2.88" height="225.6"/><rect class="cls-7" x="1113.02" y="929.15" width="41.47" height="263.2" transform="translate(2267.5 1738.1) rotate(180)"/><rect class="cls-7" x="914.06" y="359.44" width="30.4" height="18.28"/><rect class="cls-6" x="879" y="742.85" width="35.07" height="18.28" transform="translate(1793.06 1120.57) rotate(180)"/><rect class="cls-7" x="1251.44" y="426.59" width="30.4" height="18.28"/><rect class="cls-6" x="1216.38" y="810" width="35.07" height="18.28" transform="translate(2467.82 1254.86) rotate(180)"/><rect class="cls-8" y="808.94" width="1700.79" height="324.91"/><path class="cls-8" d="M1098.38,643.56a15.64,15.64,0,0,0,2-7.46c0-11.53-13.12-20.88-29.31-20.88s-29.32,9.35-29.32,20.88a15.64,15.64,0,0,0,2,7.46Z" transform="translate(0 -383.41)"/><path class="cls-8" d="M989.73,597.49A28.14,28.14,0,0,0,963,613.26c-2.69,5.5-8.37,9-14.45,8.23a62.19,62.19,0,0,0-8-.51c-18.39,0-33.29,7.95-33.29,17.75a10.2,10.2,0,0,0,1.28,4.83H1010a28.09,28.09,0,0,0,6.37-19.65A28.4,28.4,0,0,0,989.73,597.49Z" transform="translate(0 -383.41)"/><path class="cls-8" d="M649.3,643.56c15.33-46.11-56.13-20.45-55.33-48.45.87-30.5-24.27-48.4-84.05-23.44-59.62,24.89-56.81,66.17-45.43,71.89Z" transform="translate(0 -383.41)"/><path class="cls-8" d="M764.16,643.56a14,14,0,0,0,1.74-6.62c0-10.23-11.65-18.52-26-18.52s-26,8.29-26,18.52a14,14,0,0,0,1.74,6.62Z" transform="translate(0 -383.41)"/><path class="cls-8" d="M419.08,602.69a24.92,24.92,0,0,0-23.72,14,12.61,12.61,0,0,1-12.82,7.3,54.1,54.1,0,0,0-7.08-.46c-16.31,0-29.53,7.06-29.53,15.76a9.15,9.15,0,0,0,1.13,4.28h90a25,25,0,0,0-18-40.87Z" transform="translate(0 -383.41)"/><path class="cls-9" d="M624.9,1043.45l-72.49,41.93-38-65.85,72.48-42Z" transform="translate(0 -383.41)"/><path class="cls-10" d="M594.65,1058c-20.65,0-37.4,28-37.4,62.53s16.75,62.53,37.4,62.53h36.18V1058Z" transform="translate(0 -383.41)"/><ellipse class="cls-10" cx="630.83" cy="737.13" rx="37.4" ry="62.53"/><ellipse class="cls-11" cx="630.83" cy="737.13" rx="26.99" ry="46.9"/><path class="cls-10" d="M1183.91,1137.1s31.25,1.2,40.35,0c3.88-.51,11.18-6,11.18-6,.32-1.93.62-3.89.87-5.87,6.25-48-9.75-89.58-35.74-92.84s-52.14,33-58.39,81.07a159.52,159.52,0,0,0-1.32,23.61Z" transform="translate(0 -383.41)"/><path class="cls-10" d="M1149.64,1058c-20.65,0-37.4,28-37.4,62.53s16.75,62.53,37.4,62.53h36.18V1058Z" transform="translate(0 -383.41)"/><ellipse class="cls-11" cx="1185.82" cy="737.13" rx="37.4" ry="62.53"/><ellipse class="cls-12" cx="1185.82" cy="737.13" rx="26.99" ry="46.9"/><path class="cls-10" d="M883.71,1058c-20.66,0-37.4,28-37.4,62.53s16.74,62.53,37.4,62.53h36.17V1058Z" transform="translate(0 -383.41)"/><ellipse class="cls-10" cx="919.88" cy="737.13" rx="37.4" ry="62.53"/><ellipse class="cls-11" cx="919.88" cy="737.13" rx="26.99" ry="46.9"/><path class="cls-10" d="M948.53,1146.42a129.38,129.38,0,0,0,4.07-19.53c6.13-47.12-13.89-88.45-44.73-92.31s-59.47,31.4-66.94,78.34a201.37,201.37,0,0,0-2.83,33.5Z" transform="translate(0 -383.41)"/><path class="cls-10" d="M860.59,1058c-20.66,0-37.4,28-37.4,62.53s16.74,62.53,37.4,62.53h36.17V1058Z" transform="translate(0 -383.41)"/><ellipse class="cls-11" cx="896.76" cy="737.13" rx="37.4" ry="62.53"/><ellipse class="cls-12" cx="896.76" cy="737.13" rx="26.99" ry="46.9"/><path class="cls-13" d="M1246.17,1042.47a30.74,30.74,0,0,0-3.91-13.85c-3.1-5.86-1.68-11-1.27-17.22a52.57,52.57,0,0,0-.59-14.39c-1.27-5.83-5.17-7.61-8.87-11.75-3.07-3.44-4.73-7.08-9.52-8.49-2.62-.78-4.23-1-6.67-2.43-2.95-1.78-5.83-3.67-8.65-5.64-20.19-14.07-38.22-30.42-59.86-42.52a247.24,247.24,0,0,0-68-25.94c-24.23-5.27-49.15-7.39-73.87-9.22-25.66-1.91-51.34-2.17-77-2.14-26.75,0-61.18,1.93-87.91,4.75a258.71,258.71,0,0,0-35,6.52,194.25,194.25,0,0,0-34,12.05c-31,13.78-84.45,51.62-97.88,61.1a39.63,39.63,0,0,1-13.64,6.06c-20.21,4.23-39.56,11.73-52.19,19.11-4.45,2.61-8.44,5.2-12.85,7.85-4.82,2.89-9.46,4.33-14.65,6.6s-11,4.14-15.87,6.49a71.63,71.63,0,0,0-12.57,7.48c-3.78,2.75-8,7.24-8.67,11.95-.65,4.37,1.19,10.54-1.33,14.4a24.63,24.63,0,0,1-4.43,3.94c-4.94,3.39-5.3,11-5.52,16.75-.63,16.44,1.82,31.44,1,40.48-.52,5.57-1.62,11.17-.31,16.72,1,4.07,3.6,11.81,7.53,14,1.62.9,2.94.79,4.5,2.05,1.25,1,2,2.24,3.56,2.86a8.84,8.84,0,0,0,3.46.52H847a225,225,0,0,1,4.64-43c2.82-13.46,10.71-31.72,16.9-40.86,19.62-28.92,46.09-22.51,55-15.57,15.54,12.06,21.57,35.14,21.57,53.72,0,22.44-3.49,32.21-6,41.62H1149a3.62,3.62,0,0,0,3-1.06c1.53-1.76-3.11-16.32.61-38.21,2.07-12.19,5.2-24.08,11.06-35,5.37-10,16.3-27.64,30.89-26.49,18.26,1.44,28.67,24.12,31.46,37.58,4.78,23.07,2,37.09-.26,49.85-.9,5.12,3.46,2,6.14.46,4.17-2.41,6.41-3.69,9.06-7,3.28-4,2.87-8.58,3.36-13.52,1.23-12.3,3.63-23.83,0-37.12C1241.27,1064.86,1246.52,1053.67,1246.17,1042.47Z" transform="translate(0 -383.41)"/><g class="cls-14"><path class="cls-15" d="M1246.17,1042.47a30.74,30.74,0,0,0-3.91-13.85c-3.1-5.86-1.68-11-1.27-17.22a52.57,52.57,0,0,0-.59-14.39c-1.27-5.83-5.17-7.61-8.87-11.75-3.07-3.44-4.73-7.08-9.52-8.49-2.62-.78-4.23-1-6.67-2.43-2.95-1.78-5.83-3.67-8.65-5.64-20.19-14.07-38.22-30.42-59.86-42.52a247.24,247.24,0,0,0-68-25.94c-24.23-5.27-49.15-7.39-73.87-9.22-25.66-1.91-51.34-2.17-77-2.14-26.75,0-61.18,1.93-87.91,4.75a258.71,258.71,0,0,0-35,6.52,194.25,194.25,0,0,0-34,12.05c-31,13.78-84.45,51.62-97.88,61.1a39.63,39.63,0,0,1-13.64,6.06c-20.21,4.23-39.56,11.73-52.19,19.11-4.45,2.61-8.44,5.2-12.85,7.85-4.82,2.89-9.46,4.33-14.65,6.6s-11,4.14-15.87,6.49a71.63,71.63,0,0,0-12.57,7.48c-3.78,2.75-8,7.24-8.67,11.95-.65,4.37,1.19,10.54-1.33,14.4a24.63,24.63,0,0,1-4.43,3.94c-4.94,3.39-5.3,11-5.52,16.75-.63,16.44,1.82,31.44,1,40.48-.52,5.57-1.62,11.17-.31,16.72,1,4.07,3.6,11.81,7.53,14,1.62.9,2.94.79,4.5,2.05,1.25,1,2,2.24,3.56,2.86a8.84,8.84,0,0,0,3.46.52H847a225,225,0,0,1,4.64-43c2.82-13.46,10.71-31.72,16.9-40.86,19.62-28.92,46.09-22.51,55-15.57,15.54,12.06,21.57,35.14,21.57,53.72,0,22.44-3.49,32.21-6,41.62H1149a3.62,3.62,0,0,0,3-1.06c1.53-1.76-3.11-16.32.61-38.21,2.07-12.19,5.2-24.08,11.06-35,5.37-10,16.3-27.64,30.89-26.49,18.26,1.44,28.67,24.12,31.46,37.58,4.78,23.07,2,37.09-.26,49.85-.9,5.12,3.46,2,6.14.46,4.17-2.41,6.41-3.69,9.06-7,3.28-4,2.87-8.58,3.36-13.52,1.23-12.3,3.63-23.83,0-37.12C1241.27,1064.86,1246.52,1053.67,1246.17,1042.47Z" transform="translate(0 -383.41)"/></g><path class="cls-13" d="M701.66,950.48c-6.84-.15-14.25.64-20.36,3.77-4.76,2.44-13.21,10.48-8.64,16.33,2.71,3.46,7.34,0,9.7-1.67,3-2.15,17.2-11.2,20.27-13.5C707.16,952,707.34,950.61,701.66,950.48Z" transform="translate(0 -383.41)"/><path class="cls-16" d="M986.39,905.4c-46.1-5-91.74-5.64-142.93-4.29-11.18.29-26.83,1.36-37.34,2.67-11.63,1.44-15.84,3-29.15,9a268.83,268.83,0,0,0-30.46,16.31c-9.17,5.66-39.92,25.92-54,38-2.93,2.51-11.65,9.37-3.65,8.82,24.41-1.69,70.55-2.81,92.83-2.74,73.23.24,105.61,6.12,116.89,5.94,4.37-.07,9.75,1.08,13.76-1.06s8.06-7.86,11.23-11.29c8.56-9.27,43.55-44.12,52.55-52.11C977.4,913.5,981.76,909.25,986.39,905.4Z" transform="translate(0 -383.41)"/><path class="cls-17" d="M854.3,1026.11a133,133,0,0,0-17.16-2.77c-11.22-.93-23.65,2.14-34.55,4.57C780,1033,729.26,1045,724.45,1046.25c-7.22,1.84-1.05,4.48,4,7.46,9.13,5.39,16.79,9.82,27.63,9.65,21.64-.34,44.39-1.85,65.3-5.36,11.46-1.92,21.06-4.39,31.06-10.34a92.11,92.11,0,0,0,14.1-11.08c1.19-1.17,3.49-3.73,3.87-5.41S856,1026.49,854.3,1026.11Z" transform="translate(0 -383.41)"/><path class="cls-9" d="M564,1047.4c0-1.52-1.74-3.32-2.7-4.69a20.08,20.08,0,0,1-3-8.83c-.37-3.32.57-11.74-2.39-10.61-2.71,1-7.55,5-9.85,7.09-5,4.57-4.41,10-4.13,16.3.19,4.43,2.74,21.72,9.21,15.28,2.64-2.64,4.47-4.86,7.16-7.7C560.45,1052,564,1049.2,564,1047.4Z" transform="translate(0 -383.41)"/><path class="cls-10" d="M707.15,1143.5c-4.6-2.58-6.78-3.48-12.88-3.48H568.11c-8.77,0-12.2-.79-19.2,5.58-6.48,5.88,2,5,6,5H711.52c1.69,0,2.44-1.08,1.81-2.34S709,1144.53,707.15,1143.5Z" transform="translate(0 -383.41)"/><path class="cls-10" d="M717.59,1064.18c-4.87-4.62-11-10-16.88-13.5-4.46-2.63-11.64-4.08-20.9-3.79-16.13.5-39.13,1.42-56.72,1.42-16,0-26.67.15-41.71-.78-7.57-.47-11.68-1.43-16.9,2.83s-12.59,14.25-15.6,20.29c-2.08,4.18-.48,11.88,2.7,20.51a274.78,274.78,0,0,0,13.94,29.57c2.12,3.59,8.53,6.84,15,6.84h94.26c7.9,0,12.5-3.55,16.14-7.48,6.61-7.15,25.3-31.68,29.42-38.3C724.7,1074.84,723,1069.36,717.59,1064.18Z" transform="translate(0 -383.41)"/><rect class="cls-12" x="576.75" y="703.45" width="88.72" height="25.07" rx="2.43"/><path class="cls-10" d="M813.3,1105.65c-3-4-10.43-13.63-15.37-17.66-4.54-3.71-12.46-3.29-19.69-3.29-1.54,0-1.66,1-1,2.09,3.56,5.6,6.92,10.88,10.68,16.34,4.05,5.88,7.66,10.08,5.5,17.25-.68,2.25-4.32,4.55-8.61,5.63-6.23,1.58-44.13,8.06-57,10.46-1.18.22-.9,1.36-.08,2.13,2.65,2.47,10.12,1.51,14.63,1.1,6.51-.6,52.9-5.91,58.95-7a24.86,24.86,0,0,0,11.87-5.56c2.6-2.13,5.14-5.35,5.6-7.89C819.81,1113.37,816.66,1110.22,813.3,1105.65Z" transform="translate(0 -383.41)"/><path class="cls-10" d="M544.49,1136.08c-.52-1.89-3.19-7.8-3.79-12.48a100.91,100.91,0,0,1-.37-13.18c0-7.94.22-13.67.44-21.78.05-1.72-1.75-3-2.35-3.26a15.29,15.29,0,0,0-5.93-1.21,1.61,1.61,0,0,0-1.42,1.64s.95,29.35,1.26,32.93a72.55,72.55,0,0,0,1.13,8.35c1,4.56,2.68,10.32,7.39,13.12C544.17,1142.18,545.16,1138.53,544.49,1136.08Z" transform="translate(0 -383.41)"/><path class="cls-18" d="M815.38,1112.62a5.58,5.58,0,1,1-5.58-5.89A5.74,5.74,0,0,1,815.38,1112.62Z" transform="translate(0 -383.41)"/><path class="cls-19" d="M540.34,1108.89c0,.5,0,1,0,1.53,0,2,0,4,0,6a5.47,5.47,0,0,1-4.28,2.11,5.37,5.37,0,0,1-3.8-1.59,6.12,6.12,0,0,1-.36-8.21,5.41,5.41,0,0,1,4.16-2A5.49,5.49,0,0,1,540.34,1108.89Z" transform="translate(0 -383.41)"/><path class="cls-19" d="M812.85,1112.62a5.58,5.58,0,1,1-5.57-5.89A5.74,5.74,0,0,1,812.85,1112.62Z" transform="translate(0 -383.41)"/><path class="cls-20" d="M1210.18,993.21c-37,1.7-188,16.77-226.43,21.84-9.68,1.27-19.51,2.1-29.17,3.49-4.3.62-24,2.49-24,7,0,5.1,11,5.92,18.57,6.16,9.51.29,18.71.07,27.72-1.62,18.51-3.48,35.76-8.9,54.2-12.86,18.91-4.05,38.26-7.19,57.44-9.34,22.23-2.5,111.15-11.38,116.43-11.95,1.5-.17,10.11-.74,11-2C1216.47,993,1211.69,993.14,1210.18,993.21Z" transform="translate(0 -383.41)"/><path class="cls-21" d="M1128,1091.28c-6.9-.84-13.78-.44-20.69.07-13.47,1-95.6,8.73-123.18,12.07-2.82.34-29,3.34-25.63,8.06,1.06,1.5,6.39,1,8,1,6,.07,132.77-9.92,148.71-11.15,7-.54,30.09-1.82,30.55-4C1146.24,1094.81,1133.13,1091.9,1128,1091.28Z" transform="translate(0 -383.41)"/><path class="cls-22" d="M1241.79,999.66c0-4.66-2.44-8-5.8-11.3-1-.92-2.92-3.09-4.37-3.7-2.32-1-4.33.34-6.35,1.38-2.76,1.41-10.66,5.65-11.67,8.2-1.2,3,4.32,6.86,6.77,8.8,3.31,2.6,5.57,5.56,8.88,8,2.71,2,5.6,1.88,11,1.88C1242.41,1012.94,1241.79,1003.83,1241.79,999.66Z" transform="translate(0 -383.41)"/><path class="cls-8" d="M807.82,1031.11c-5.15,0-9.31,5.1-9.31,11.39s4.16,11.39,9.31,11.39,9.31-5.1,9.31-11.39S813,1031.11,807.82,1031.11Zm0,18.05c-3,0-5.45-3-5.45-6.66s2.44-6.66,5.45-6.66,5.44,3,5.44,6.66S810.83,1049.16,807.82,1049.16Z" transform="translate(0 -383.41)"/><path class="cls-8" d="M842.84,1032.75c1.83-7-5.48-7-12.38-6.88-1.67,0-13.87.79-13.55,2.12.38,1.55,13,1.43,15.4,1.68,8.43.88-3,16-6.78,18.41-7.68,5-18.49,5.49-27.34,6.68-12.08,1.62-24.32,2.88-36.55,3.75-4.09.29-7.86.36-9.37,1.51s3.15,1.11,4.6,1.07c11.06-.34,22.2-1.09,33.25-2.15,11.69-1.12,23.58-1.81,34.67-4.72,5.45-1.43,9-5.23,12-9.79C839.11,1041,841.77,1036.87,842.84,1032.75Z" transform="translate(0 -383.41)"/><path class="cls-20" d="M1143.82,974.5c-1.78-3.1-94.69-.28-146.66,2-8.12.35-70,4.46-78.12,4.91-16.56.9-33.94,3.72-50.28,6.55-30.29,5.23-60.39,12.18-105.13,27-8.38,2.77-48.38,19.11-53,24.34-2.57,2.88,12.26-5.79,31.49-12,39.1-12.62,78-21.7,128.36-29.07,13.2-1.92,30.83-1.87,38.49-1.74,9,.16,26.15.1,35.15,0,15.33-.13,30.32-2.71,57-5.07C1039.55,988,1146.3,978.84,1143.82,974.5Z" transform="translate(0 -383.41)"/><path class="cls-23" d="M1170.64,950.61c-2.06-2.05-29.63-19.44-45.59-26.76s-31.7-12.89-49.16-15.5c-17.85-2.68-35.85-4.13-53.84-1.75-15.6,2.06-28,10.83-39.51,21-12.66,11.26-24.12,24.22-35.49,36.22-2.54,2.67-13.74,13.84-11.69,16.85,1.74,2.55,8.46,3.71,11.34,4.25,4.49.85,9,1.54,13.56,2a100.28,100.28,0,0,0,10.8.73c16.19.07,79.21-5,97.87-6.27,20.69-1.41,41.37-3.06,62-4.76,4.28-.35,9.44-.78,13.57-2a51.33,51.33,0,0,0,12.49-5.52C1159.6,967.61,1175.69,955.64,1170.64,950.61Z" transform="translate(0 -383.41)"/><path class="cls-24" d="M835.51,917.57c-26.79.85-45.87,6.87-65.89,15.53-17.08,7.39-46.89,26.26-54.8,33.92-.93.91-1.89,2.82-.53,2.82h17.27c5.65,0,10.78-2.73,16.12-4.27,11.77-3.38,24.15-4.21,36.32-4.19.86,0,.8-.74,1.14-1.28,5.3-8.47,21.12-7.74,30-3.49.46.22,2.31.53,2.91-.75,4.64-9.84,13.74-27.09,18.87-35.9C837.38,919.11,837.75,917.5,835.51,917.57Z" transform="translate(0 -383.41)"/><path class="cls-25" d="M815.82,961.6c-4.65-2.94-13-4.36-18-1.18-.81.51-2.33,1.44,0,2a5.37,5.37,0,0,1,3,1.56c.93,1.3.81,4.35,2.78,5.1,1.21.46,8.11.26,9.79.25.51,0,1.05,0,1.27-.64.36-1,1.51-4.75,1.93-5.76C816.91,962.28,816.27,961.89,815.82,961.6Z" transform="translate(0 -383.41)"/><path class="cls-26" d="M937.87,941C915.1,926,895.57,921.1,871,919.23c-2.71-.21-3.57-.49-5.17,2-1.83,2.92-15.5,36.55-18.36,45.87-.6,2-1,3.08,1.87,3.21,21,1,34.27,2.12,56.18,3.78,3.39.26,5.46,0,7.86-2.41,3.91-3.84,17.14-17.53,24.94-25.55C941.06,943.38,939.43,942.07,937.87,941ZM915,959.55H878.18a4.28,4.28,0,0,1-4.31-4.79l1.54-15.59a4.37,4.37,0,0,1,4.43-3.68h31.33a4.88,4.88,0,0,1,4.76,3.68l2.92,15.59A3.88,3.88,0,0,1,915,959.55Z" transform="translate(0 -383.41)"/><path class="cls-27" d="M1043.86,946.56c-.62-4.33-1.11-8.31-2-12.58-.81-3.69-1.27-8.1-2.66-11.6a5,5,0,0,0-5.11-3.52c-8,.35-19.78-.25-28.93,2.78a56.7,56.7,0,0,0-20.62,12.69c-.6.57-1.76,1.63-1.14,2.61a6.33,6.33,0,0,0,1.23,1.25c1.09.89,6.38,5.47,7.56,6.33s3.53,2.71,5.8,1.06c1.73-1.26,2.4-4.5,3.59-6.29,2.3-3.49,5-4.58,9.17-4.8,3.36-.18,14.67-.23,20.34-.23,4.15,0,5.71,7,6.6,9.6a27.43,27.43,0,0,0,2.72,6.47C1041.32,951.81,1044.41,950.38,1043.86,946.56Z" transform="translate(0 -383.41)"/><path class="cls-28" d="M1152,959.38c-7.41-6.26-23.79-17.58-39.35-24.26-15.23-6.53-24-10-45.31-14-1-.2-1.57.77-1.24,2,4.55,16.22,8.62,32.51,10.06,39.37.75,3.61,1.42,6.73,2.11,7,1.25.49,2.37-1.25,2.47-2.81.29-4.72.77-11.3,2.08-14.63,1.47-3.75,5.9-3.18,8.66-3.18,5.44,0,19.09-.38,22.12-.38,4.34,0,5.37,4.19,6,6.53s.79,3.61,1.37,5.81a2.49,2.49,0,0,0,2.33,1.87c4.68,0,22-.13,27.38-.13C1152.5,962.57,1153.91,961,1152,959.38Z" transform="translate(0 -383.41)"/><path class="cls-8" d="M1170.64,950.61a33.92,33.92,0,0,0-3.36-2.44c3.43,5.3-11.38,16.5-13.83,18a49.12,49.12,0,0,1-12.19,5.46,71.56,71.56,0,0,1-13.45,2.06c-20.34,1.69-40.68,3.35-61,4.76-18.36,1.28-80.36,6.34-96.29,6.27a99.53,99.53,0,0,1-10.62-.73q-6.72-.76-13.35-2c-2.73-.53-9-1.62-10.93-4-.5,1.15-.63,2.11-.22,2.72,1.74,2.55,8.46,3.71,11.34,4.25,4.49.85,9,1.54,13.56,2a100.28,100.28,0,0,0,10.8.73c16.19.07,79.21-5,97.87-6.27,20.69-1.41,41.37-3.06,62-4.76,4.28-.35,9.44-.78,13.57-2a51.33,51.33,0,0,0,12.49-5.52C1159.6,967.61,1175.69,955.64,1170.64,950.61Z" transform="translate(0 -383.41)"/><path class="cls-13" d="M1026.86,968.55c-2-10.44-23.8-14.25-32.69-14.81-6.18-.38-13.17-.93-17.88,3.44a22.62,22.62,0,0,0-6.95,14.54c-.41,4.79,1.56,10.5,5.62,13.5,4.72,3.49,15.26,2.61,20.73,1.92C1005.84,985.84,1029.7,983.52,1026.86,968.55Z" transform="translate(0 -383.41)"/><path class="cls-29" d="M913.17,1092.69a1,1,0,0,0-1.84.53q.06,1.47.06,3c0,22-10.27,39.86-22.94,39.86-4.47,0-8.63-2.23-12.16-6.07a1,1,0,0,0-1.69.84c2.61,17,11.54,29.58,22.16,29.58,12.67,0,22.94-17.84,22.94-39.86C919.7,1109.7,917.21,1099.88,913.17,1092.69Z" transform="translate(0 -383.41)"/><path class="cls-29" d="M1202.23,1092.69a1,1,0,0,0-1.85.53c0,1,.07,2,.07,3,0,22-10.27,39.86-22.94,39.86-4.47,0-8.64-2.23-12.17-6.07a1,1,0,0,0-1.68.84c2.6,17,11.54,29.58,22.16,29.58,12.67,0,22.94-17.84,22.94-39.86C1208.76,1109.7,1206.27,1099.88,1202.23,1092.69Z" transform="translate(0 -383.41)"/><g class="cls-30"><path class="cls-31" d="M1244.3,1075.91c-3-11.05,2.22-22.24,1.87-33.44a30.74,30.74,0,0,0-3.91-13.85c-3.1-5.86-1.68-11-1.27-17.22a52.57,52.57,0,0,0-.59-14.39c-1.27-5.83-5.17-7.61-8.87-11.75-3.07-3.44-4.73-7.08-9.52-8.49-2.62-.78-4.23-1-6.67-2.43-2.95-1.78-5.83-3.67-8.65-5.64-20.19-14.07-38.22-30.42-59.86-42.52a247.24,247.24,0,0,0-68-25.94c-24.23-5.27-49.15-7.39-73.87-9.22-25.66-1.91-51.34-2.17-77-2.14-26.75,0-61.18,1.93-87.91,4.75a258.71,258.71,0,0,0-35,6.52,194.25,194.25,0,0,0-34,12.05c-31,13.78-84.45,51.62-97.88,61.1a39.63,39.63,0,0,1-13.64,6.06c-20.21,4.23-39.56,11.73-52.19,19.11-4.45,2.61-8.44,5.2-12.85,7.85-4.82,2.89-9.46,4.33-14.65,6.6s-11,4.14-15.87,6.49a71.63,71.63,0,0,0-12.57,7.48c-3.78,2.75-8,7.24-8.67,11.95-.65,4.37,1.19,10.54-1.33,14.4a24.63,24.63,0,0,1-4.43,3.94c-4.94,3.39-5.3,11-5.52,16.75-.63,16.44,1.82,31.44,1,40.48-.52,5.57-1.62,11.17-.31,16.72,1,4.07,3.6,11.81,7.53,14,1.62.9,2.94.79,4.5,2.05,1.25,1,2,2.24,3.56,2.86a8.84,8.84,0,0,0,3.46.52H847a225,225,0,0,1,4.64-43c2.82-13.46,10.71-31.72,16.9-40.86,19.62-28.92,46.09-22.51,55-15.57,15.54,12.06,21.57,35.14,21.57,53.72,0,22.44-3.49,32.21-6,41.62H1149a3.62,3.62,0,0,0,3-1.06c1.53-1.76-3.11-16.32.61-38.21,2.07-12.19,5.2-24.08,11.06-35,5.37-10,16.3-27.64,30.89-26.49,18.26,1.44,28.67,24.12,31.46,37.58,4.78,23.07,2,37.09-.26,49.85-.9,5.12,3.46,2,6.14.46,4.17-2.41,6.41-3.69,9.06-7,3.28-4,2.87-8.58,3.36-13.52C1245.54,1100.73,1247.94,1089.2,1244.3,1075.91ZM923.54,966.76c-3.17,3.43-7.11,9.09-11.23,11.29s-9.39,1-13.76,1.06c-11.28.18-43.66-5.7-116.89-5.94-22.28-.07-68.42,1.05-92.83,2.74-8,.55.72-6.31,3.65-8.82,14.11-12.09,44.86-32.35,54-38A268.83,268.83,0,0,1,777,912.77c13.31-5.95,17.52-7.55,29.15-9,10.51-1.31,26.16-2.38,37.34-2.67,51.19-1.35,96.83-.71,142.93,4.29-4.63,3.85-9,8.1-10.3,9.25C967.09,922.64,932.1,957.5,923.54,966.76ZM1157,969.18a51.33,51.33,0,0,1-12.49,5.52c-4.13,1.21-9.29,1.64-13.57,2-20.67,1.7-41.35,3.35-62,4.76-11.9.82-41.84,3.17-66.17,4.75,11.25-1.71,26.4-5.55,24.1-17.65-2-10.44-23.8-14.25-32.69-14.81-6.18-.38-13.17-.93-17.88,3.44a22.62,22.62,0,0,0-6.95,14.54c-.41,4.79,1.56,10.5,5.62,13.5a14.18,14.18,0,0,0,6.35,2.21c-4.27.19-7.8.3-10.25.29a100.28,100.28,0,0,1-10.8-.73c-4.54-.51-9.07-1.2-13.56-2-2.88-.54-9.6-1.7-11.34-4.25-2.05-3,9.15-14.18,11.69-16.85,11.37-12,22.83-25,35.49-36.22,11.46-10.19,23.91-19,39.51-21,18-2.38,36-.93,53.84,1.75,17.46,2.61,33.09,8.12,49.16,15.5s43.53,24.71,45.59,26.76C1175.69,955.64,1159.6,967.61,1157,969.18Z" transform="translate(0 -383.41)"/></g><path class="cls-32" d="M1241.79,999.66c0-4.66-2.44-8-5.8-11.3-1-.92-2.92-3.09-4.37-3.7-2.32-1-4.33.34-6.35,1.38-2.76,1.41-10.66,5.65-11.67,8.2-1.2,3,4.32,6.86,6.77,8.8,3.31,2.6,5.57,5.56,8.88,8,2.71,2,5.6,1.88,11,1.88C1242.41,1012.94,1241.79,1003.83,1241.79,999.66Z" transform="translate(0 -383.41)"/><path class="cls-33" d="M573.43,1046.14a.75.75,0,0,1-.74-.62c-1.47-7.86.6-15.9,6.14-23.91,14.27-20.61,51-38.79,93.5-46.31a.75.75,0,1,1,.27,1.48c-42.15,7.46-78.47,25.4-92.53,45.69-5.3,7.66-7.29,15.32-5.9,22.77a.75.75,0,0,1-.6.88Z" transform="translate(0 -383.41)"/><path class="cls-33" d="M1203.24,1021.27c-4.19,0-8.9-5.83-11.11-14-1.65-6.16-1.46-12.08.5-15.45a5.23,5.23,0,0,1,3.13-2.58c4.43-1.15,9.79,5,12.2,13.92,1.65,6.15,1.46,12.07-.5,15.44a5.2,5.2,0,0,1-3.13,2.58A4.46,4.46,0,0,1,1203.24,1021.27Zm-6.37-30.72a3.06,3.06,0,0,0-.74.09,3.72,3.72,0,0,0-2.21,1.89c-1.74,3-1.88,8.6-.34,14.3,2.11,7.87,6.86,13.76,10.38,12.85a3.7,3.7,0,0,0,2.21-1.88c1.74-3,1.88-8.61.34-14.3C1204.54,996.16,1200.28,990.55,1196.87,990.55Z" transform="translate(0 -383.41)"/><path class="cls-33" d="M1055.23,1022.68a5.11,5.11,0,0,1-5.07-3.33.75.75,0,0,1,.44-1,.74.74,0,0,1,1,.44,3.62,3.62,0,0,0,3.83,2.34A119.66,119.66,0,0,0,1072,1020c5-.7,6.88-1.8,6.88-3.94a.75.75,0,0,1,1.5,0c0,3.75-3.93,4.82-8.18,5.42a118.91,118.91,0,0,1-16.79,1.24Z" transform="translate(0 -383.41)"/><path class="cls-33" d="M1157.59,1012.56h-.39a7.61,7.61,0,0,1-3.22-.64,3.9,3.9,0,0,1-2.16-2.73.76.76,0,0,1,1.48-.31,2.41,2.41,0,0,0,1.32,1.67,6.06,6.06,0,0,0,2.58.5,121.27,121.27,0,0,0,13.87-.91h.1c2.18-.23,4.65-.49,5.66-2a.76.76,0,0,1,1.26.84c-1.4,2.1-4.37,2.42-6.76,2.68h-.1A124.29,124.29,0,0,1,1157.59,1012.56Z" transform="translate(0 -383.41)"/><path class="cls-33" d="M822.08,1024.84a.74.74,0,0,1-.75-.73c-.08-5.52,2.07-6.34,4.78-7.38l.29-.12c21.31-8.22,50.62-15.5,66.38-19.4,3.39-.84,6.07-1.51,7.77-2A4.44,4.44,0,0,0,903,993a40.07,40.07,0,0,0,2.65-11.91,1.31,1.31,0,0,0-1.11-1.54.74.74,0,0,1,.41-1.43,2.78,2.78,0,0,1,2.2,3.07,41.66,41.66,0,0,1-2.75,12.33,5.79,5.79,0,0,1-3.49,3.14c-1.72.46-4.41,1.12-7.8,2-15.72,3.9-45,11.16-66.2,19.35l-.3.11c-2.58,1-3.87,1.49-3.81,6a.75.75,0,0,1-.74.75Z" transform="translate(0 -383.41)"/><path class="cls-33" d="M755.48,1064.11c-10.87,0-18.54-4.53-27.4-9.75-.63-.38-1.28-.74-1.92-1.1-3.34-1.89-6-3.38-5.74-5.18.15-1.13,1.34-1.91,3.85-2.55a.75.75,0,1,1,.37,1.45c-2.62.66-2.73,1.28-2.73,1.3-.11.79,3,2.53,5,3.67.64.37,1.3.74,1.94,1.12,8.67,5.11,16.18,9.55,26.65,9.55h.59c24.39-.38,46.32-2.18,65.18-5.34,11.35-1.91,20.93-4.38,30.8-10.26a90.76,90.76,0,0,0,14-11c1.23-1.21,3.15-3.43,3.61-4.83-.49-.4-2.93-1.69-15.1-4.28l-.4-.08a132,132,0,0,0-17.06-2.77.75.75,0,1,1,.12-1.49,135.35,135.35,0,0,1,17.25,2.79l.4.09c15,3.18,15.82,4.52,16.14,5a1,1,0,0,1,.16.84c-.51,2.24-3.72,5.42-4.08,5.77a92.86,92.86,0,0,1-14.24,11.19c-10.08,6-19.81,8.51-31.32,10.44-18.94,3.18-41,5-65.41,5.37Z" transform="translate(0 -383.41)"/><path class="cls-33" d="M1124.7,1129.41H943.43a.75.75,0,1,1,0-1.49H1124.7c13.8,0,15.56-4.69,17.61-10.12l.18-.49c1.4-3.7,3-9.9,4.45-15.88,1.17-4.69,2.39-9.54,3.51-13.12,3.27-10.37,8.49-21,14-28.45,1.19-1.62,2.47-3.26,3.82-5,4.44-5.67,9-11.54,11-17.54,3.55-10.89,4.79-23.14,4-39.74a48.57,48.57,0,0,0-2.12-10.57,54.86,54.86,0,0,1-2-9.33l0-.29c-1-11.37-1.81-19.59-8.49-25.67a.75.75,0,0,1,1-1.11c7.11,6.48,7.9,14.93,9,26.64l0,.29a52.59,52.59,0,0,0,2,9.07,49.31,49.31,0,0,1,2.16,10.9c.78,16.79-.49,29.21-4.1,40.28-2,6.24-6.71,12.22-11.23,18-1.34,1.72-2.61,3.35-3.8,5-5.38,7.31-10.51,17.79-13.73,28-1.11,3.54-2.32,8.36-3.49,13-1.51,6-3.07,12.26-4.5,16l-.19.49C1141.56,1124,1139.53,1129.41,1124.7,1129.41Z" transform="translate(0 -383.41)"/><path class="cls-33" d="M1076.4,1129.41h-.08a.75.75,0,0,1-.66-.83c.16-1.4.37-3.06.6-4.86.8-6.28,1.79-14.09,1.65-18.88a31.38,31.38,0,0,0-.73-4.44,43.08,43.08,0,0,1-1.08-7.21c-.12-5.7,4.83-36.1,5.82-42.14,1.52-9.25,1.06-28.63.07-37.9a76.39,76.39,0,0,1-.3-8.19,69.4,69.4,0,0,0-.49-9.71c-.81-5.68-4.59-11.07-7.8-15.13a.75.75,0,1,1,1.18-.92c3.32,4.2,7.24,9.81,8.1,15.84a69.67,69.67,0,0,1,.5,9.92,78.72,78.72,0,0,0,.3,8c1,9.35,1.45,28.92-.09,38.29-2.73,16.62-5.88,37.55-5.79,41.87a41.08,41.08,0,0,0,1,6.94,31.14,31.14,0,0,1,.77,4.69c.14,4.92-.86,12.79-1.67,19.11-.23,1.8-.44,3.46-.6,4.85A.74.74,0,0,1,1076.4,1129.41Z" transform="translate(0 -383.41)"/><path class="cls-33" d="M955.11,1129.41H955a.75.75,0,0,1-.67-.82c3.3-31.12,2.43-51.7.61-85.38,0-.82-.19-2.29-.37-4a107.13,107.13,0,0,1-.82-13c0-.55.1-1.27.19-2.1.28-2.76.71-6.92,0-10.28a144.57,144.57,0,0,0-4.94-16.8c-1.41-4.18-2.87-8.5-4-12.83a.74.74,0,0,1,.53-.91.77.77,0,0,1,.92.53c1.11,4.28,2.57,8.57,4,12.73a145.73,145.73,0,0,1,5,17c.74,3.59.3,7.9,0,10.74-.09.82-.16,1.52-.18,2a104.3,104.3,0,0,0,.81,12.82c.19,1.8.33,3.21.38,4.07,1.82,33.76,2.69,54.38-.62,85.61A.75.75,0,0,1,955.11,1129.41Z" transform="translate(0 -383.41)"/><path class="cls-33" d="M799.67,1090.28a.74.74,0,0,1-.53-.23,14.13,14.13,0,0,0-8.3-4.27c-2-.4-10.66-.61-19-.81l-6.48-.16c-2.14-.06-4.33-.1-6.53-.14-9.82-.16-20-.33-25.41-2.49s-7.67-5.51-9.93-9c-.77-1.19-1.56-2.42-2.52-3.68a.76.76,0,0,1,.14-1,.75.75,0,0,1,1,.14c1,1.31,1.8,2.57,2.59,3.78,2.22,3.46,4.14,6.45,9.22,8.46s15.2,2.22,24.89,2.39c2.2,0,4.4.07,6.54.13l6.48.16c8.8.22,17.12.42,19.27.84a15.59,15.59,0,0,1,9.07,4.7.73.73,0,0,1,0,1A.7.7,0,0,1,799.67,1090.28Z" transform="translate(0 -383.41)"/><path class="cls-33" d="M548.42,1064.12a3.2,3.2,0,0,1-1.13-.22c-4.49-1.75-6-14.21-6.12-17.2a.75.75,0,0,1,.71-.78.74.74,0,0,1,.78.71c.18,4,2,14.63,5.17,15.87.3.12,1.21.47,2.77-1.09s2.85-3,4.2-4.48c.92-1,1.86-2.06,3-3.2.56-.6,1.23-1.24,1.87-1.85,1.61-1.54,3.61-3.46,3.6-4.48s-1-2.21-1.8-3.25c-.28-.35-.54-.7-.77-1a20.72,20.72,0,0,1-3.1-9.18c-.1-.88-.11-2.08-.12-3.35,0-2.28,0-6.08-.89-6.66,0,0-.12-.07-.37,0a.73.73,0,0,1-1-.43.75.75,0,0,1,.43-1,1.79,1.79,0,0,1,1.74.15c1.39.94,1.51,3.73,1.54,7.88,0,1.23,0,2.39.11,3.19a19.18,19.18,0,0,0,2.85,8.49c.21.3.46.62.72,1,1,1.29,2.12,2.74,2.12,4.17,0,1.65-2,3.55-4.07,5.56-.65.63-1.28,1.22-1.82,1.8-1.07,1.13-2,2.17-2.92,3.18-1.37,1.51-2.66,2.94-4.25,4.53A4.73,4.73,0,0,1,548.42,1064.12Z" transform="translate(0 -383.41)"/><path class="cls-34" d="M944.13,906.16c-28.73-4.8-115.07-2.3-133.26-.3-10.52,1.15-18,2.69-27.07,6.93a400,400,0,0,0-38.87,20.87c-5.23,3.18-21.7,14-18.83,21.4,3.08,7.91,47.35-4.21,55.67-6.94,7.79-2.54,60.15-18.12,77.44-20.82,19.38-3,30.56-3.38,50-4.21,9-.38,21.1.33,28.24-5.53C943,913,949.73,907.1,944.13,906.16Z" transform="translate(0 -383.41)"/><path class="cls-8" d="M528.15,839.51a19.65,19.65,0,0,1,39.3,0" transform="translate(0 -383.41)"/><circle class="cls-8" cx="1347.62" cy="441.16" r="42.42"/></g></g></svg>