<svg id="Layer_1" data-name="Layer 1" xmlns="http://www.w3.org/2000/svg" viewBox="0 0 636.15 468.93"><defs><style>.cls-1{fill:#f9f9f9;stroke:#000;stroke-miterlimit:10;stroke-width:6.7px;}.cls-2{font-size:32px;font-family:CCMeanwhile-Italic, CCMeanwhile;font-style:italic;}.cls-3{letter-spacing:-0.05em;}.cls-4{letter-spacing:-0.09em;}.cls-5{letter-spacing:0em;}</style></defs><title>comic-bubble</title><g id="Фигура_36" data-name="Фигура 36"><path class="cls-1" d="M1240,305.69a6.23,6.23,0,0,1,.31,4.64,13.1,13.1,0,0,1-6,7.1c-6.17,3.65-13.3,4.78-19.46,5.42l-138,13.83c.62.46,1.24.93,1.85,1.41,4.16,3.2,8.22,6.59,12.06,10.07,3.5,3.18,6.91,6.5,10.13,9.88q2.42,2.55,4.74,5.17a14,14,0,0,0,1.07,1c1.37,1.2,2.89,2.55,3.49,4.28a6.48,6.48,0,0,1-2.06,6.86c-4.27,4-11.5,3.73-19.17,3-.54,0-1-.1-1.22-.11-5.45-.28-10.89-.83-16.17-1.63a151.48,151.48,0,0,1-15.48-3.17l-3.21-.87,0,.08a32.51,32.51,0,0,1,1,3.27q1.73,7.29,3.3,14.61c1.06,4.89,2,9.8,3,14.73q.7,3.69,1.37,7.4c.3,1.63,1.07,6-3,9.07a10.27,10.27,0,0,1-9.3,1.49,18.39,18.39,0,0,1-5.44-2.67,18.42,18.42,0,0,0-1.86-1.13q-6.49-3.35-12.74-7T1016.84,405c-1.06-.68-2.12-1.36-3.17-2.06-.16,1.2-.27,2.39-.38,3.58-.21,2.08-.41,4.15-.79,6.24-1.24,6.81-2.86,13.78-4.81,20.71s-4.27,13.83-6.91,20.71q-2,5.26-4.31,10.52l-.41,1c-1.13,2.89-2.83,7.25-7.16,9.38a9.28,9.28,0,0,1-6.73.7,12.24,12.24,0,0,1-5.68-4.13c-.33-.37-.65-.73-1-1q-4-3.84-8-7.74t-8.22-8.15c-.27-.27-.61-.64-1-1.06-.14-.16-.33-.37-.56-.61q-.4,1-.81,2.07c-.55,1.43-1.09,2.84-1.7,4.18q-2.44,5.4-5.07,10.77a445,445,0,0,1-23.71,42.37c-.16.25-.31.57-.5.93-1.16,2.23-2.93,5.62-6.79,7.33a9.18,9.18,0,0,1-6.3.51c-3.37-1-4.42-4-5.19-6.12-.14-.38-.26-.74-.39-1-1.14-2.38-2.25-4.76-3.35-7.16q-3.54-7.77-6.8-15.67c-.51-1.23-1-2.47-1.51-3.71-3.52,5.63-7.34,11.23-11.37,16.7a292.53,292.53,0,0,1-32.82,37.18c-.44.42-.89.91-1.35,1.41a26,26,0,0,1-6.66,5.54,9.59,9.59,0,0,1-6.94,1c-4.2-1.14-5-5.51-5.6-8.69a13.08,13.08,0,0,0-.27-1.32,96.86,96.86,0,0,1-3.12-15.71c-.32-2.76-.52-5.54-.62-8.35a10.7,10.7,0,0,1,.17-1.87l-1.62.89c-.76.44-1.41.8-1.86,1a52.67,52.67,0,0,1-9.69,4.1c-1.57.44-3.17.73-4.76,1q-7.71,1.35-10.73-2.54c-.6.68-1.2,1.39-1.8,2.1-1.52,1.79-3,3.6-4.51,5.4-5.69,6.88-11.58,14-18.68,20.46q-6.66,6.09-13.53,12-3.44,3-6.92,5.87c-2.48,2.07-9.74,8.15-16.23,4.4-5.28-3.07-3.23-10.6-2.46-13.44q5.19-18.5,10.27-36.92l5.11-18.44c.38-1.35.84-2.7,1.31-4s1-2.9,1.35-4.36c0-.2.1-.41.14-.61A222.76,222.76,0,0,1,730.07,493c-.76.05-1.64.13-2.57.22-5.58.55-13.22,1.3-16.5-2.65-1.23-1.46-2.24-4.09-.29-8.39q2.14-4.74,4.36-9.47,2.29-4.94,4.55-9.88c.66-1.48,1.52-3.06,2.41-4.68,3.89-7.09,4.25-9,1.9-10.35a14.53,14.53,0,0,0-6.51-1.5,78.79,78.79,0,0,1-8.78-1l-4.22-.61c-6.74-.94-13.72-1.92-20.46-3.35-15.33-3.23-30.52-7.18-45.13-11.74l-1.13-.32c-3.31-.88-8.32-2.23-9-6.08-.36-1.95.46-4.09,2.3-6a42.89,42.89,0,0,1,7.06-5.55c1.12-.76,2.22-1.49,3.14-2.22,3.27-2.57,6.46-5.18,9.6-7.85,6.5-5.52,12.81-11.34,18.74-17.27q4.38-4.38,8.55-8.9c.33-.36.9-.92,1.58-1.59.28-.26.69-.66,1.15-1.12-.81-.11-1.51-.22-2-.34-3.07-.74-6.18-1.63-9.24-2.63a117.16,117.16,0,0,1-17.16-7.12A104.33,104.33,0,0,1,637,353c-2.37-1.79-4.71-3.76-7-5.82-.23-.22-.53-.45-.85-.7-1.79-1.42-4.25-3.35-4.24-6.4,0-5.57,8.08-9.25,12.89-11.44l1.5-.7a150,150,0,0,1,18.46-7.76c2.55-.88,5.13-1.69,7.7-2.42q-4.53-4.89-9-9.82L615.3,263c-1.35-1.52-5.61-6.91-3.64-12.88a12.45,12.45,0,0,1,5.76-6.69c4-2.44,8.2-2.34,11-2.28,10.18.24,20.79.83,32.43,1.81,5.43.45,10.84,1,16.21,1.59.64.08,1.49.24,2.47.46-.77-2.93-1.45-5.87-2-8.85a160.53,160.53,0,0,1-2.55-42.83c.18-3.27.64-7.14,3.69-10.93A18.63,18.63,0,0,1,689.13,176c8.27-1.89,17,1.47,22.46,5.25l15.85,11.23c1.67,1.2,3.32,2.46,5,3.72,2.62,2,5.32,4.07,8.11,5.79a50.35,50.35,0,0,0,2.81-5c.66-1.29,1.25-2.43,1.75-3.23L774,147.58c5.72-9.08,11.63-18.46,19.35-27.23l1.21-1.41c4.42-5.25,8.84-10.08,14.23-11.41,3.76-.92,8.47-.52,9.62,6.59l.12.71q1.07,5.3,2.32,10.5c1.7,7,3.68,13.86,5.89,20.55s4.73,13.38,7.5,19.89c1.11,2.6,2.43,5.11,3.77,7.63.9,1.7,1.81,3.4,2.65,5.13.09.21.19.43.28.67.71-.69,1.41-1.34,2.11-1.91l54.54-44.66c2.81-2.3,5.58-4.64,8.35-7,2.27-1.92,4.54-3.84,6.83-5.73l.49-.42c2-1.67,5.28-4.47,9.39-4.67a6.83,6.83,0,0,1,5.66,2.21c2.4,2.72,1.31,6.9.1,10.21q-6.33,17.17-12.73,34.35l-6.1,16.4c1.44-.62,2.8-1.15,4.14-1.67.95-.37,1.9-.74,2.84-1.14,7.32-3,14.62-6.4,21.72-10,7.34-3.71,14.61-7.74,21.61-12q5.28-3.19,10.42-6.58c.3-.2.64-.47,1-.74,2.11-1.59,7.7-5.81,12.81-3.32,4.49,2.2,4.09,7.9,3.85,11.31l-.06.85c-.17,3-.6,6-1.11,9.29a80,80,0,0,1-2.45,10.56c2.23-1.38,4.51-2.68,6.83-3.92a130.94,130.94,0,0,1,11.95-5.61c.45-.17,1-.44,1.68-.73,5-2.25,9.12-3.94,12.54-3.4,7.61,1.21,4.83,9.25,3.78,12.27-.17.53-.35,1-.43,1.34l-5.89,24.41c-.31,1.27-.52,2.52-.74,3.77-.06.33-.11.66-.17,1,1.23-.45,2.5-1,3.81-1.6,1.78-.8,3.56-1.59,5.33-2.2,6.68-2.33,13.48-4.49,20.23-6.44,8.77-2.54,17.65-4.78,26.4-6.65.38-.08.91-.23,1.54-.4,4.59-1.25,10.87-3,13.92.08,4,4.05-1.64,9.74-3.52,11.61-.26.26-.5.49-.68.68l-35.7,39.37c3.37-.63,8.33-1.73,15.61-3.54l2.89-.7q7.42-1.66,14.82-3.52l1.07-.27c1.53-.38,3-.76,4.58-1.18l.57-.25a14.85,14.85,0,0,1,4.22-1.29c2.49-.26,4.38.18,5.62,1.31,1.89,1.73,1.35,4.23,1.16,5.05-.7,3.32-3.47,6.46-5.49,8.74l-.78.89c-3.62,4.21-7.48,8.33-11.49,12.26s-8.28,7.79-12.69,11.47c-.39.33-1.18.94-2.17,1.72l-3.23,2.54,2.6.6q5.65,1.31,11.35,2.57,11.37,2.52,22.82,4.9c15.12,3.14,30.46,6.12,45.6,8.86,11.23,2,22.8,3.83,34,5.58l10.46,1.64q15.51,2.44,31,4.81l2.81.42c3.07.47,6.15.93,9.25,1.33a7.49,7.49,0,0,0,1.34,0c2-.05,5.37-.14,7.59,2A6.14,6.14,0,0,1,1240,305.69Zm-151.38-69.07Zm-74.91-66.37Zm-37.1-19.49Zm-6.07,32.88s0,0,0,0S970.54,183.63,970.53,183.64Zm-51.21,329ZM684.48,373.33Z" transform="translate(-607.8 -103.82)"/></g><text class="cls-2" transform="translate(101.22 172.71)">Enter <tspan class="cls-3" x="127.55" y="0">y</tspan><tspan x="147.36" y="0">our car </tspan><tspan x="13.92" y="46">inform</tspan><tspan class="cls-4" x="151.81" y="46">a</tspan><tspan class="cls-5" x="169.15" y="46">tion &amp; </tspan><tspan x="-2.96" y="92">get an offer in </tspan><tspan x="74.11" y="138">minutes!</tspan></text></svg>