<svg id="Layer_1" data-name="Layer 1" xmlns="http://www.w3.org/2000/svg" xmlns:xlink="http://www.w3.org/1999/xlink" viewBox="0 0 398 209"><defs><style>.cls-1{opacity:0.75;}.cls-1,.cls-5{isolation:isolate;}.cls-2,.cls-5{fill:#f58c20;}.cls-3{fill:#f8f8f8;fill-rule:evenodd;}.cls-4{fill:#f9f9f9;}.cls-5{font-size:41px;font-family:CCBiffBamBoomOutline;}</style></defs><title>get-offer-button</title><image class="cls-1" width="398" height="209" xlink:href="../../../../../../Desktop/7599C7C1CD5A0BB7.png"/><path class="cls-2" d="M678.1,68.7c-4.7,1.6-9.4,3.3-14,5-2.3.8-4.6,1.7-6.9,2.6s-4.6,1.8-6.7,2.8l-3.3,1.5c-1.1.5-2.2,1-3.2,1.5s-2.1,1.1-3,1.6l-1.5.8-1.4.9a33.82,33.82,0,0,0-5.1,3.8,17.91,17.91,0,0,0-3.6,4.3,12,12,0,0,0-1.6,4.7,13.53,13.53,0,0,0,.3,4.9,22.13,22.13,0,0,0,1.5,5,54,54,0,0,0,2.3,4.9c1.7,3.3,3.6,6.5,5.6,9.8l6.1,9.7c.5.9-.1,2-1.5,2.4a4.73,4.73,0,0,1-1.7.1h-.2l-11.3-1.6c-1.9-.3-3.8-.4-5.7-.6l-5.7-.6-2.9-.3-2.9-.1-5.8-.3c-3.8-.3-7.6-.1-11.5-.2s-7.7.1-11.5.4-7.6.5-11.4.9-7.5.9-11.2,1.5-7.4,1.4-11,2.1l-2.7.6-2.7.7-5.4,1.4a26.81,26.81,0,0,0-2.7.7l-2.6.8L528,142c-1.8.5-3.4,1.2-5.1,1.8l-5.1,1.8c-3.3,1.2-6.5,2.7-9.8,4s-6.3,2.9-9.4,4.4-6.1,3.1-9.1,4.7l-8.8,5-8.4,5.3h0a3.75,3.75,0,0,1-3.7,0h0c-.1-.1-.2-.1-.2-.2l-5.2-4.8c-1.8-1.6-3.7-3.1-5.6-4.6s-4-2.9-6-4.4-4.3-2.7-6.4-4.1-4.6-2.5-6.9-3.8c-2.5-1.1-4.9-2.3-7.4-3.3l-3.9-1.5-2-.7-2-.6c-2.7-.9-5.5-1.6-8.3-2.3l-4.2-1c-1.4-.3-2.9-.5-4.3-.8s-2.9-.5-4.3-.8l-4.4-.6c-1.5-.2-2.9-.4-4.4-.5l-4.6-.4c-1.5-.1-3-.3-4.6-.4l-4.6-.2-4.6-.2-4.6-.1-4.6-.1h-4.6c-3,.1-6.1,0-9.1.2l-9.1.3c-.7,0-1.3-.3-1.3-.8V133h0l1.9-4.5a25.89,25.89,0,0,0,1.4-4.5c.4-1.5.5-3.1.8-4.6a35.4,35.4,0,0,0,.2-4.6,18.16,18.16,0,0,0-.6-4.6l-.7-2.2a8.26,8.26,0,0,0-.8-2.2,24.93,24.93,0,0,0-2.2-4.3l-1.3-2.1c-.5-.7-1.1-1.4-1.6-2s-1.1-1.4-1.6-2L335,93.5c-.7-.6-1.2-1.3-1.9-1.9L331,89.8a42.66,42.66,0,0,0-4.6-3.5c-1.5-1.2-3.2-2.2-4.8-3.3-.8-.5-1.6-1.1-2.5-1.6l-2.6-1.5c-1.7-1-3.5-2.1-5.3-3s-3.6-2-5.5-2.9l-5.6-2.8c-1.1-.6-1.3-1.6-.5-2.3h0a2.19,2.19,0,0,1,.5-.3h0l9.9-4.7c3.3-1.6,6.5-3.1,9.8-4.7l4.8-2.4,4.6-2.5,4.4-2.6c1.4-.9,2.8-1.8,4.1-2.8l1.9-1.4.9-.7a3,3,0,0,0,.8-.8l1.7-1.5c.6-.5,1-1.1,1.5-1.6a20,20,0,0,0,1.4-1.6l1.1-1.7.6-.9.4-.9.9-1.8c.4-1.2.8-2.4,1.2-3.7a15.87,15.87,0,0,0,.6-3.8c.1-1.3.2-2.6.2-3.8l-.2-3.9c-.1-1.3,1.5-2.4,3.5-2.4h.8c3.2.4,6.5.8,9.7,1.1,1.6.2,3.3.3,4.9.4l4.9.3c1.6.1,3.3.2,4.9.2s3.3.1,4.9.1c3.3.1,6.5,0,9.8-.1l4.8-.3c1.6-.1,3.2-.3,4.8-.4,3.2-.3,6.4-.7,9.5-1.2a93.73,93.73,0,0,0,9.2-1.9c3-.7,6-1.6,8.9-2.5,1.4-.5,2.8-1,4.3-1.5l4.1-1.6c2.7-1.1,5.4-2.3,8-3.6,1.3-.6,2.6-1.3,3.9-2s2.5-1.3,3.8-2.1c2.5-1.4,4.9-2.9,7.3-4.3,4.8-3,9.4-6.1,14-9.3s9.4-6.3,14.3-9.4h0a5.83,5.83,0,0,1,5.3-.2l12.1,6.3c2,1,4,2,6.1,3.1s4.1,2,6.1,3,4.1,1.9,6.2,2.8l1.5.7,1.6.6,3.2,1.2c1.1.4,2.2.7,3.3,1.1s2.2.7,3.3,1l3.4.9,1.7.4,1.7.3,3.5.7c1.2.2,2.4.3,3.6.5,2.4.3,4.8.5,7.3.6l1.8.1h5.6c1.2,0,2.5,0,3.7-.1l3.8-.1c1.2,0,2.5-.1,3.8-.2l3.8-.3c2.5-.2,5-.5,7.5-.8s5-.5,7.5-.9l7.5-1h.1c1.6-.2,3.2.5,3.6,1.5a1.1,1.1,0,0,1,0,.8c-.5,1.8-1.1,3.7-1.5,5.5a34.53,34.53,0,0,0-1,5.6c-.1.9-.2,1.9-.3,2.8s0,1.9-.1,2.8a26.13,26.13,0,0,0,0,2.8,26.6,26.6,0,0,0,.3,2.8,11.79,11.79,0,0,0,.6,2.7l.4,1.4.5,1.3a31.68,31.68,0,0,0,3.2,5.2,43,43,0,0,0,3.8,4.9,42.19,42.19,0,0,0,4.9,4.5c.9.7,1.9,1.4,2.8,2.1s2,1.3,3,2c2.1,1.3,4.3,2.5,6.5,3.6s4.6,2.2,7,3.3,4.9,2,7.3,3,5,1.9,7.6,2.7,5.2,1.7,7.8,2.5,5.2,1.6,7.9,2.4,5.3,1.5,8,2.3c.2,0,.3.2.2.3h0C678.2,68.6,678.2,68.7,678.1,68.7Zm-1.2-.2c-2.4-.6-4.9-1.1-7.3-1.8l-8.1-2.1c-2.7-.7-5.4-1.5-8-2.3s-5.3-1.7-7.9-2.5S640.4,58,638,57s-5-2-7.4-3.2-4.7-2.3-7-3.6c-1.1-.6-2.2-1.3-3.3-2s-2.1-1.4-3-2.1a44.57,44.57,0,0,1-5.7-4.7,34.71,34.71,0,0,1-4.4-5.2,33.72,33.72,0,0,1-3-5.6l-.6-1.4-.5-1.5c-.3-1-.5-2-.8-2.9s-.3-2-.5-3a14.64,14.64,0,0,1-.2-2.9c-.1-.9,0-2,0-3a26.42,26.42,0,0,1,.2-2.9,54,54,0,0,1,.9-5.8c.4-1.9.9-3.9,1.4-5.8l3.7,2.3-7.8,1c-2.5.4-5.1.7-7.6,1s-5.1.7-7.7.9l-3.9.4-3.9.3-3.9.2c-1.3.1-2.6.1-4,.1h-6l-2-.1c-2.7-.1-5.4-.3-8-.6-1.3-.2-2.7-.3-4-.5l-3.9-.7-2-.3a13.32,13.32,0,0,1-1.9-.5l-4-.9c-1.3-.3-2.4-.7-3.7-1.1s-2.5-.6-3.7-1L526.3.6,524.6,0l-1.7-.7c-2.2-.9-4.5-1.9-6.6-2.9s-4.3-2-6.4-3-4.2-2-6.2-3.1L491.5-16l5.3-.2c-9.4,6.1-18.4,12.6-28.2,18.8-2.5,1.5-5,3.1-7.6,4.5-1.3.7-2.6,1.5-4,2.2s-2.7,1.4-4.1,2.1c-2.8,1.4-5.7,2.6-8.6,3.8-1.5.6-3,1.2-4.6,1.7s-3,1.1-4.7,1.6c-3.2,1-6.4,1.9-9.7,2.6s-6.6,1.4-10,1.9-6.8.9-10.3,1.2c-1.7.1-3.4.3-5.2.4l-5.2.2c-3.4.1-6.9.1-10.3,0-1.7,0-3.4-.1-5.1-.2s-3.4-.1-5.1-.3l-5.1-.4c-1.7-.2-3.4-.3-5.1-.5-3.4-.3-6.7-.8-10.1-1.2l4.3-2.4.1,4.1c0,1.4-.2,2.8-.3,4.2a31,31,0,0,1-.8,4.2,23.51,23.51,0,0,1-1.5,4.2l-1,2-.5,1c-.2.3-.5.7-.7,1l-1.4,2c-.5.7-1.1,1.2-1.6,1.9a14.48,14.48,0,0,1-1.7,1.8l-1.9,1.7a3.92,3.92,0,0,1-1,.8l-1.1.8-2.1,1.6c-1.5,1-3,1.9-4.6,2.9l-4.8,2.7-4.9,2.5-5,2.4c-1.7.8-3.4,1.5-5,2.3l-5.1,2.3-10.1,4.5.1-2.7,5.5,3c1.9,1,3.6,2.1,5.4,3.1s3.6,2.1,5.3,3.2l2.6,1.6c.9.6,1.7,1.1,2.5,1.7a59.25,59.25,0,0,1,4.8,3.5c1.5,1.2,3.1,2.4,4.6,3.7l2.1,1.9c.7.6,1.3,1.4,2,2l1.9,2c.6.7,1.1,1.4,1.7,2.1a10.71,10.71,0,0,1,1.5,2.2l1.3,2.2a21.1,21.1,0,0,1,2.1,4.6,10.88,10.88,0,0,1,.7,2.4l.6,2.4c.2,1.6.4,3.2.5,4.8-.1,1.6-.1,3.2-.3,4.8a24.55,24.55,0,0,1-1,4.7c-.5,1.5-.9,3.1-1.5,4.6l-1.9,4.6-1.2-1,9.1-.3c3-.1,6.1-.1,9.1-.1h9.1l4.6.1,4.6.2,4.6.2,4.6.3,4.6.4c1.5.1,3,.4,4.6.5l4.6.5c1.5.2,3,.5,4.5.7s3,.5,4.5.8l4.4,1a83.75,83.75,0,0,1,8.6,2.3l2.1.6,2.1.7,4.1,1.4c2.7,1,5.2,2.2,7.9,3.3,2.5,1.2,5,2.4,7.4,3.7s4.7,2.7,6.8,4.1,4.4,2.9,6.4,4.4,4,3.1,6,4.7l5.6,4.9-4-.2,8.3-5.6,8.7-5.3c3-1.7,6.1-3.4,9.1-5s6.4-3.1,9.6-4.6,6.6-2.9,10.1-4.2l5.2-1.9c1.7-.6,3.5-1.3,5.3-1.8l5.4-1.7,2.7-.8a28.64,28.64,0,0,1,2.8-.7l5.6-1.4,2.8-.7,2.9-.6c3.8-.7,7.6-1.6,11.6-2.1s7.8-1.1,11.8-1.5,7.9-.7,11.9-.9,8-.3,12-.3,8,0,12,.3l6,.4,3,.2,2.9.3,5.9.6c2,.2,3.9.4,5.9.7l11.6,1.8-3.2,2.6-5.7-9.9c-1.9-3.3-3.7-6.6-5.3-10-.8-1.7-1.5-3.4-2.2-5.2a35.77,35.77,0,0,1-1.4-5.4,17.53,17.53,0,0,1,0-5.6,14,14,0,0,1,2.2-5.4,21.8,21.8,0,0,1,4.4-4.8,48.9,48.9,0,0,1,5.8-3.9l1.5-.9,1.6-.8c1.1-.6,2.2-1.1,3.3-1.6s2.2-1,3.4-1.5,2.3-.9,3.4-1.4c2.3-.9,4.7-1.8,7-2.6s4.7-1.6,7.2-2.4C667.7,71.2,672.3,69.9,676.9,68.5Z" transform="translate(-291 29)"/><path class="cls-3" d="M673.8,68c-64.5,20.4-58.4,27.6-36.6,63.7-70.2-12.1-124.7,4.7-167.7,33.9-30.9-29.3-64.3-36.7-125.4-34,12.6-26.7-2.3-43.2-40.3-62.6,38-17.3,53.8-24.2,51.9-48.6,79.1,10.8,104-16.7,137-37.6,40.8,21,53.2,28.4,111,19.4C594.3,35.3,609.3,51.8,673.8,68Z" transform="translate(-291 29)"/><path class="cls-4" d="M673.2,68.3c-4.6,1.6-9.3,3.2-13.8,4.9-2.3.8-4.6,1.7-6.8,2.6s-4.5,1.8-6.6,2.7c-1.1.5-2.2.9-3.2,1.4s-2.1,1-3.1,1.5-2,1-3,1.6l-1.5.8-1.4.9a38.07,38.07,0,0,0-5,3.7,20.09,20.09,0,0,0-3.6,4.2,13.37,13.37,0,0,0-1.2,9.6,45.8,45.8,0,0,0,1.5,4.9,52.38,52.38,0,0,0,2.3,4.8c1.7,3.2,3.6,6.4,5.5,9.6l6,9.6c.6.9-.1,2-1.5,2.4h0a4.73,4.73,0,0,1-1.7.1h-.2L624.8,132c-1.9-.3-3.7-.4-5.6-.6l-5.6-.5-2.8-.3-2.8-.1-5.6-.3c-3.8-.3-7.6-.1-11.3-.2s-7.5.1-11.3.4-7.5.5-11.2.9-7.4.9-11.1,1.5-7.2,1.4-10.9,2l-2.7.5-2.6.7-5.3,1.3a19.73,19.73,0,0,0-2.6.7l-2.6.8-5.1,1.6c-1.7.5-3.4,1.1-5,1.7l-5,1.8c-3.3,1.2-6.4,2.6-9.6,3.9s-6.2,2.9-9.3,4.3-6,3.1-9,4.6l-8.6,4.9-8.2,5.2h0a3.57,3.57,0,0,1-3.6-.1c-.1-.1-.2-.1-.2-.2l-5.1-4.8c-1.8-1.6-3.7-3.1-5.5-4.6s-3.9-2.9-5.9-4.3-4.2-2.7-6.3-4.1-4.6-2.5-6.8-3.7c-2.4-1.1-4.8-2.2-7.3-3.2l-3.8-1.4-1.9-.7-2-.6c-2.6-.9-5.4-1.6-8.1-2.3l-4.2-1c-1.4-.3-2.9-.5-4.3-.8s-2.9-.5-4.3-.8l-4.4-.6c-1.5-.2-2.9-.4-4.4-.5l-4.4-.4c-1.5-.1-2.9-.3-4.4-.4l-4.4-.2L375,132l-4.5-.1-4.5-.1c-1.5,0-3,0-4.5.1-3,.1-6,0-8.9.2l-8.9.3c-.7,0-1.2-.3-1.3-.8v-.2h0l1.8-4.4c.5-1.5.9-3,1.3-4.4s.5-3,.8-4.5a33.89,33.89,0,0,0,.2-4.5,17.4,17.4,0,0,0-.6-4.5l-.6-2.2a9.75,9.75,0,0,0-.8-2.2,24.06,24.06,0,0,0-2.2-4.2L341,98.4c-.4-.7-1-1.3-1.5-2s-1-1.3-1.6-2L336,92.5c-.6-.6-1.2-1.3-1.9-1.9L332,88.8a51.2,51.2,0,0,0-4.4-3.4q-2.25-1.65-4.8-3.3c-.8-.5-1.6-1.1-2.4-1.6L317.8,79c-1.7-1-3.4-2-5.2-3s-3.5-2-5.4-2.9l-5.5-2.8c-1.1-.6-1.3-1.6-.5-2.3h0c.2-.1.3-.2.5-.3h0l9.7-4.6c3.2-1.5,6.4-3.1,9.6-4.7l4.7-2.4,4.6-2.5,4.4-2.6c1.3-.9,2.7-1.8,4-2.7l1.9-1.4.9-.7a6,6,0,0,0,.8-.8l1.6-1.5a20,20,0,0,0,1.4-1.6,6.53,6.53,0,0,0,1.3-1.6l1.1-1.7a5.55,5.55,0,0,1,.6-.8l.4-.9.9-1.8,1.2-3.6a23.76,23.76,0,0,0,.6-3.7c.1-1.2.2-2.5.2-3.8l-.2-3.8c-.1-1.3,1.5-2.4,3.5-2.4h.7c3.2.4,6.4.8,9.6,1.1,1.6.1,3.2.3,4.8.4l4.8.3c1.5.1,3.2.2,4.8.2s3.2.1,4.8.1c3.2.1,6.4,0,9.6-.1l4.8-.2c1.6-.1,3.2-.3,4.7-.4,3.1-.3,6.3-.7,9.3-1.2s6.1-1.1,9.1-1.8,5.9-1.5,8.7-2.4c1.4-.4,2.8-1,4.2-1.4l4.1-1.6c2.7-1.1,5.3-2.3,7.9-3.5,1.3-.6,2.6-1.3,3.8-1.9s2.5-1.3,3.7-2c2.4-1.4,4.8-2.8,7.2-4.3,4.7-2.9,9.2-6,13.8-9.2s9.2-6.2,14-9.3h0a5.62,5.62,0,0,1,5.2-.2l11.9,6.2,6,3c2,1,4,2,6.1,2.9s4.1,1.8,6.1,2.7l1.5.7,1.5.6L530.8-2c1,.4,2.2.7,3.2,1.1s2.1.7,3.2,1l3.3.9,1.7.4,1.7.3,3.4.7c1.2.2,2.4.3,3.5.5q3.6.45,7.2.6l1.8.1h5.4c1.2,0,2.5,0,3.7-.1l3.7-.2c1.2,0,2.5-.1,3.7-.2l3.7-.3c2.5-.2,4.9-.5,7.4-.7s4.9-.5,7.4-.9l7.4-1h.1c1.6-.2,3.3.4,3.6,1.5v.1a1.1,1.1,0,0,1,0,.8c-.5,1.8-1,3.6-1.5,5.5s-.7,3.7-1,5.5a24.77,24.77,0,0,0-.3,2.7,25.28,25.28,0,0,0-.1,2.8,24.37,24.37,0,0,0,.1,2.7,24.77,24.77,0,0,0,.3,2.7,26.14,26.14,0,0,0,.6,2.7l.4,1.3.5,1.3a24.13,24.13,0,0,0,2.5,5.1,29.28,29.28,0,0,0,3.9,4.8,51.16,51.16,0,0,0,4.8,4.4,28.32,28.32,0,0,0,2.8,2c.9.6,1.9,1.3,3,1.9,2,1.3,4.2,2.4,6.4,3.6s4.6,2.2,6.9,3.2,4.8,2,7.2,3,4.9,1.8,7.5,2.7,5.1,1.7,7.6,2.5,5.2,1.6,7.8,2.3,5.2,1.5,7.9,2.2c.2,0,.3.2.2.3h0C673.3,68.2,673.3,68.2,673.2,68.3Zm-3.3.8c-2.4-.6-4.8-1.1-7.2-1.7l-8-2.1c-2.7-.7-5.3-1.5-7.9-2.3s-5.2-1.6-7.8-2.5-5.1-1.8-7.6-2.8-4.9-2-7.3-3.1a74.87,74.87,0,0,1-6.9-3.6,34.47,34.47,0,0,1-3.2-2l-3-2.1a50,50,0,0,1-5.4-4.6,29.1,29.1,0,0,1-4.3-5.1,32.86,32.86,0,0,1-3-5.5l-.6-1.4-.5-1.4c-.3-1-.5-1.9-.7-2.9s-.3-1.9-.5-2.9a14.15,14.15,0,0,1-.2-2.9,28.05,28.05,0,0,1,0-2.9,14.15,14.15,0,0,1,.2-2.9c.2-1.9.5-3.8.8-5.7s.9-3.8,1.3-5.7l3.6,2.3-7.5,1.1c-2.5.4-5,.7-7.6,1s-5,.7-7.6.9l-3.8.4-3.9.3h-3.9c-1.3.1-2.6.1-3.9.1h-5.9l-2-.1c-2.7-.1-5.3-.3-7.9-.6-1.3-.2-2.6-.3-3.9-.5l-3.9-.7-2-.2c-.6-.1-1.2-.3-1.9-.4l-3.8-.9c-1.2-.3-2.4-.7-3.6-1.1s-2.4-.7-3.6-1.2l-3.4-1.3L520,1.5,518.4.8C516.2-.1,514-1,511.9-2l-6.3-3c-2-1-4.1-2-6.1-3l-12.1-6.1,5.2-.2c-9.3,6-18.1,12.5-27.8,18.5q-3.6,2.25-7.5,4.5l-3.9,2.1c-1.3.7-2.7,1.4-4,2-2.7,1.3-5.6,2.6-8.5,3.8-1.5.6-3,1.1-4.4,1.7s-3,1-4.6,1.5c-3.1,1-6.3,1.8-9.5,2.6s-6.5,1.4-9.9,1.9-6.7.9-10.1,1.2c-1.7.1-3.4.3-5.1.4l-5.1.2q-5.1.15-10.2,0c-1.7,0-3.4-.1-5.1-.2s-3.4-.1-5-.3l-5-.4c-1.7-.1-3.3-.3-5-.5-3.3-.3-6.6-.8-9.9-1.2l4.2-2.4.1,4.1c0,1.4-.2,2.7-.3,4.1a29.67,29.67,0,0,1-.8,4.1,22.6,22.6,0,0,1-1.5,4.1l-1,2-.5,1a6.07,6.07,0,0,1-.7,1l-1.4,1.9c-.4.6-1.1,1.2-1.6,1.8s-1.1,1.2-1.7,1.8l-1.9,1.7-1,.8-1,.8-2.1,1.5c-1.4,1-3,1.9-4.4,2.9l-4.7,2.6-4.8,2.5L322,62.2c-1.6.8-3.3,1.5-4.9,2.3l-5,2.2-10,4.5.1-2.6,5.5,3c1.8,1,3.6,2,5.3,3.1s3.5,2.1,5.2,3.2l2.6,1.6c.8.6,1.6,1.1,2.4,1.7a53.38,53.38,0,0,1,4.8,3.5c1.5,1.3,3,2.4,4.4,3.7l2.1,1.9a18,18,0,0,1,1.9,2l1.9,2c.6.7,1.1,1.4,1.6,2.1s1.1,1.4,1.5,2.1l1.3,2.2a22.73,22.73,0,0,1,2.1,4.5,10.1,10.1,0,0,1,.7,2.3l.6,2.3c.2,1.6.4,3.1.5,4.7a18.6,18.6,0,0,1-.3,4.7c-.3,1.6-.5,3.1-.9,4.6a41.07,41.07,0,0,1-1.5,4.6l-1.7,4.5-1.2-1,9-.3c3-.1,6.1-.1,9-.1h9l4.6.1,4.6.2,4.6.2,4.6.3,4.6.4c1.5.1,3,.4,4.4.5l4.5.5c1.5.2,2.9.5,4.4.7s2.9.5,4.4.8l4.3,1c2.9.6,5.7,1.4,8.5,2.2l2.1.6,2,.7,4,1.4c2.7,1,5.1,2.1,7.7,3.2,2.4,1.2,4.9,2.4,7.2,3.7a62.91,62.91,0,0,1,6.7,4.1c2.1,1.5,4.3,2.9,6.3,4.4s4,3,5.9,4.6l5.5,4.8-3.9-.2,8.2-5.5,8.6-5.2c3-1.6,6-3.3,9-4.9s6.3-3.1,9.5-4.6,6.5-2.9,9.9-4.2l5.1-1.9c1.7-.6,3.4-1.3,5.2-1.8l5.3-1.7,2.7-.8a26.81,26.81,0,0,1,2.7-.7l5.5-1.4,2.8-.7,2.8-.6q5.55-1.2,11.4-2.1c3.8-.6,7.7-1.1,11.6-1.5s7.8-.7,11.7-.9,7.8-.3,11.8-.3,7.9.1,11.8.3l5.9.4,2.9.2,2.9.3,5.8.6c1.9.2,3.9.4,5.8.7l11.4,1.8-3.4,2.5-5.6-9.7c-1.9-3.2-3.6-6.5-5.2-9.9-.8-1.7-1.5-3.4-2.2-5.1a31.8,31.8,0,0,1-1.4-5.3,16.92,16.92,0,0,1,0-5.5,17.26,17.26,0,0,1,2.1-5.4,21.08,21.08,0,0,1,4.3-4.7,33.26,33.26,0,0,1,5.7-3.8l1.5-.9,1.5-.8c1-.6,2.1-1,3.2-1.6a23.29,23.29,0,0,1,3.3-1.4c1.1-.4,2.2-.9,3.4-1.4,2.3-.9,4.6-1.7,6.9-2.6s4.7-1.6,7-2.4c4.4-1.5,8.9-2.8,13.5-4.1Z" transform="translate(-291 29)"/><text class="cls-5" transform="translate(58.97 119.98)">GET MY offer</text><path class="cls-2" d="M676.5,68.7c-4.7,1.6-9.4,3.3-14,5-2.3.8-4.6,1.7-6.9,2.6s-4.6,1.8-6.7,2.8l-3.3,1.5c-1.1.5-2.2,1-3.2,1.5a28.5,28.5,0,0,0-3,1.6l-1.5.8-1.4.9a28.2,28.2,0,0,0-5.1,3.8,17.91,17.91,0,0,0-3.6,4.3,12,12,0,0,0-1.6,4.7,13.53,13.53,0,0,0,.3,4.9,28.8,28.8,0,0,0,1.5,5c.7,1.6,1.5,3.3,2.3,4.9,1.7,3.3,3.6,6.5,5.6,9.8l6.1,9.7c.6,1-.1,2.1-1.5,2.5a3.22,3.22,0,0,1-1.7.1h-.2l-11.3-1.6c-1.9-.3-3.8-.4-5.7-.6l-5.7-.6L613,132l-2.9-.1-5.8-.3c-3.8-.3-7.6-.1-11.5-.2s-7.7.1-11.5.4-7.6.5-11.4.9-7.5.9-11.2,1.5-7.4,1.4-11,2.1l-2.7.5-2.7.7-5.4,1.4a26.81,26.81,0,0,0-2.7.7l-2.6.8-5.2,1.6c-1.8.5-3.4,1.2-5.1,1.8l-5.1,1.8c-3.3,1.2-6.5,2.7-9.8,4s-6.3,2.9-9.5,4.4-6.1,3.1-9.1,4.7l-8.7,5-8.4,5.3h0a3.52,3.52,0,0,1-3.7,0h0c-.1-.1-.2-.1-.2-.2l-5.2-4.8c-1.8-1.6-3.7-3.1-5.6-4.6s-4-2.9-6-4.4-4.3-2.7-6.4-4.1-4.6-2.5-6.9-3.8c-2.5-1.1-4.9-2.3-7.4-3.3l-3.9-1.5-1.9-.7-2-.6c-2.7-.9-5.4-1.6-8.3-2.3l-4.2-1c-1.4-.3-2.9-.5-4.3-.8s-2.9-.5-4.4-.8l-4.4-.6-4.4-.6-4.5-.4c-1.5-.1-3-.3-4.6-.4l-4.6-.2-4.6-.2-4.6-.1-4.6-.1c-1.5,0-3,0-4.6.1-3,.1-6.1,0-9.1.2l-9.1.3c-.7,0-1.2-.3-1.3-.8V133h0l1.8-4.5a25.89,25.89,0,0,0,1.4-4.5c.4-1.5.5-3.1.8-4.6a35.4,35.4,0,0,0,.2-4.6,18.76,18.76,0,0,0-.6-4.6l-.7-2.2a8.26,8.26,0,0,0-.8-2.2,24.93,24.93,0,0,0-2.2-4.3l-1.3-2.1c-.4-.7-1.1-1.4-1.5-2a15.08,15.08,0,0,0-1.7-2l-1.9-1.9c-.7-.6-1.2-1.3-1.9-1.9l-2.1-1.8a55.52,55.52,0,0,0-4.6-3.5L320,83c-.8-.5-1.6-1.1-2.5-1.6l-2.6-1.6c-1.7-1-3.5-2.1-5.3-3s-3.6-2-5.5-2.9l-5.6-2.8c-1.1-.6-1.3-1.6-.5-2.3a2.19,2.19,0,0,1,.5-.3h0l9.9-4.7c3.3-1.6,6.5-3.2,9.8-4.7l4.8-2.4,4.6-2.5,4.4-2.6c1.4-.9,2.8-1.8,4.1-2.8l1.9-1.5,1-.7a6,6,0,0,0,.8-.8l1.7-1.5c.6-.5,1-1.1,1.5-1.6a20,20,0,0,0,1.4-1.6l1.1-1.7.6-.9.4-.9.9-1.8c.5-1.2.8-2.4,1.2-3.7a23.18,23.18,0,0,0,.6-3.8c.1-1.3.2-2.6.2-3.8l-.2-3.9c-.1-1.3,1.5-2.4,3.5-2.4h.7c3.3.4,6.5.8,9.7,1.1,1.6.2,3.3.3,4.9.4l4.9.3c1.6.1,3.3.2,4.9.2s3.3.1,4.9.1c3.3.1,6.5,0,9.8-.1l4.8-.3c1.6-.1,3.2-.3,4.8-.4,3.2-.3,6.3-.7,9.5-1.2a93.73,93.73,0,0,0,9.2-1.9c3-.7,6-1.6,8.8-2.5,1.5-.5,2.8-1,4.3-1.5l4.2-1.6c2.7-1.1,5.4-2.3,8-3.6,1.3-.6,2.6-1.3,3.8-2s2.5-1.4,3.8-2.1c2.5-1.4,4.9-2.9,7.3-4.3,4.8-3,9.4-6.1,14-9.3s9.4-6.3,14.3-9.4h0a5.83,5.83,0,0,1,5.3-.2l12.1,6.3c2,1,4.1,2,6.1,3.1s4.1,2,6.2,3,4.1,1.9,6.2,2.8l1.5.7,1.6.6,3.2,1.2c1,.4,2.2.7,3.3,1.1s2.2.7,3.3,1l3.4.9c.6.1,1.1.3,1.7.4l1.8.3,3.5.7c1.2.2,2.4.3,3.6.5,2.4.3,4.8.5,7.3.6l1.8.1h5.6c1.2,0,2.5,0,3.7-.1l3.8-.2c1.2,0,2.5-.1,3.8-.2l3.8-.3c2.5-.2,5-.5,7.6-.8s5-.5,7.5-.9l7.5-1h0c1.6-.2,3.3.5,3.6,1.5h0a1.1,1.1,0,0,1,0,.8c-.5,1.8-1.1,3.7-1.5,5.5a50.33,50.33,0,0,0-1,5.6,26.6,26.6,0,0,0-.3,2.8,10.89,10.89,0,0,0-.3,3,26.2,26.2,0,0,0,.1,2.8c.1.9.1,1.8.3,2.8a21.39,21.39,0,0,0,.6,2.7l.4,1.4.5,1.3a44,44,0,0,0,2.9,5.1,43,43,0,0,0,3.8,4.9,42.19,42.19,0,0,0,4.9,4.5c.9.7,1.9,1.4,2.8,2.1s2,1.3,3,2c2.1,1.3,4.3,2.5,6.5,3.6s4.6,2.2,7,3.3,4.9,2,7.4,3,5,1.9,7.6,2.7,5.2,1.7,7.8,2.5,5.3,1.6,7.9,2.4,5.3,1.5,8,2.3c.2.1.3.2.2.3S676.6,68.6,676.5,68.7Zm-1.2-.2c-2.4-.6-4.9-1.1-7.3-1.8l-8.1-2.1c-2.7-.7-5.4-1.5-8-2.3s-5.3-1.7-7.9-2.5-5.1-1.8-7.7-2.8-5-2-7.4-3.2a76.73,76.73,0,0,1-7-3.6c-1.1-.6-2.2-1.3-3.3-2s-2.1-1.4-3-2.1a64.43,64.43,0,0,1-5.5-4.7,34.71,34.71,0,0,1-4.4-5.2,33.72,33.72,0,0,1-3-5.6l-.6-1.4-.5-1.4c-.3-1-.5-2-.8-2.9s-.3-2-.5-3a15.14,15.14,0,0,1-.2-3c-.1-1,0-2,0-3a13.68,13.68,0,0,1,.2-2.9,54,54,0,0,1,.9-5.8c.4-1.9.9-3.8,1.4-5.8l3.7,2.3-7.6,1.2c-2.5.4-5.1.7-7.6,1s-5.1.7-7.7.9l-3.9.4-3.9.3-4,.2c-1.3.1-2.6.1-4,.1h-6l-2-.1c-2.7-.1-5.4-.3-8-.6-1.3-.2-2.7-.3-4-.5l-3.9-.7-2-.3a10.55,10.55,0,0,1-1.9-.5L535.7,4c-1.3-.3-2.5-.7-3.7-1.1s-2.5-.7-3.6-1.2L524.9.4l-1.7-.7L521.5-1c-2.2-1-4.6-1.9-6.6-2.9s-4.3-2-6.4-3-4.2-2-6.2-3.1L490-16.2l5.3-.2c-9.4,6.1-18.4,12.7-28.2,18.8-2.5,1.5-5,3.1-7.6,4.5-1.3.7-2.6,1.5-4,2.2s-2.7,1.4-4.1,2.1c-2.8,1.4-5.7,2.6-8.6,3.8-1.5.6-3,1.2-4.6,1.7s-3,1.1-4.7,1.6c-3.2,1-6.4,1.9-9.7,2.6s-6.6,1.4-10,1.9-6.8.9-10.3,1.2c-1.7.1-3.4.3-5.2.4l-5.2.2c-3.4.1-6.9.1-10.3,0-1.7,0-3.4-.1-5.1-.2s-3.4-.1-5.1-.3l-5.1-.4c-1.7-.2-3.4-.3-5.1-.5-3.4-.3-6.7-.8-10.1-1.2l4.3-2.4L357,24c0,1.4-.2,2.8-.3,4.2a31,31,0,0,1-.8,4.2,23.51,23.51,0,0,1-1.5,4.2l-1,2-.5,1a6.07,6.07,0,0,1-.7,1l-1.4,2c-.5.7-1.1,1.2-1.6,1.9s-1.1,1.2-1.7,1.8L345.6,48a3.92,3.92,0,0,1-1,.8l-1.1.8-2.1,1.6c-1.5,1-3,1.9-4.6,2.9L332,56.8l-4.9,2.5-5,2.4c-1.7.8-3.4,1.5-5,2.3L312,66.3l-10.1,4.5L302,68l5.5,3c1.9,1,3.6,2.1,5.4,3.1s3.6,2.1,5.3,3.2l2.6,1.6c.9.6,1.7,1.1,2.5,1.7,1.6,1.1,3.3,2.3,4.8,3.5s3.1,2.4,4.6,3.7l2.1,1.9c.7.6,1.3,1.4,2,2l1.9,2c.6.7,1.1,1.4,1.7,2.1a17,17,0,0,1,1.5,2.2l1.3,2.2a21.1,21.1,0,0,1,2.1,4.6,10.88,10.88,0,0,1,.7,2.4l.6,2.4c.2,1.6.4,3.2.5,4.8a19.39,19.39,0,0,1-.3,4.8c-.3,1.6-.5,3.2-.9,4.7a35.33,35.33,0,0,1-1.5,4.6l-1.9,4.6-1.2-1,9.1-.3c3-.1,6.1-.1,9.1-.1h9.1l4.6.1,4.6.2,4.6.2,4.6.3,4.6.4c1.5.1,3,.4,4.6.5l4.6.5c1.5.2,3,.5,4.6.7s3,.5,4.5.8l4.4,1a83.75,83.75,0,0,1,8.6,2.3l2.1.6,2.1.7,4.1,1.4c2.7,1,5.2,2.2,7.9,3.3,2.5,1.2,5,2.4,7.4,3.7s4.7,2.7,6.9,4.1,4.4,2.9,6.4,4.4,4,3.1,6,4.7l5.6,4.9-4-.2,8.3-5.6,8.7-5.3c3-1.7,6.1-3.4,9.1-5s6.4-3.1,9.6-4.6,6.6-2.9,10.1-4.2l5.2-1.9c1.7-.6,3.4-1.3,5.3-1.9l5.4-1.7,2.7-.9a28.64,28.64,0,0,1,2.8-.7l5.6-1.4,2.8-.7,2.9-.6c3.8-.8,7.7-1.5,11.6-2.1s7.8-1.1,11.8-1.5,7.9-.7,11.9-.9,8-.3,12-.3,8,.1,12,.3l6,.4,3,.2,2.9.3,5.9.6c2,.2,3.9.4,5.9.7l12.6,2.8-3.4,2.6-6.7-10.8c-1.9-3.3-3.7-6.6-5.3-10-.8-1.7-1.5-3.4-2.2-5.2a35.77,35.77,0,0,1-1.4-5.4,17.53,17.53,0,0,1,0-5.6,14,14,0,0,1,2.2-5.4,21.8,21.8,0,0,1,4.4-4.8,48.9,48.9,0,0,1,5.8-3.9l1.5-.9,1.6-.8c1.1-.6,2.2-1.1,3.3-1.6s2.2-1,3.4-1.5,2.3-1,3.4-1.4c2.3-.9,4.7-1.8,7-2.6s4.7-1.6,7.1-2.4c4-1.4,8.6-2.8,13.1-4.1Z" transform="translate(-291 29)"/></svg>