<svg id="Layer_1" data-name="Layer 1" xmlns="http://www.w3.org/2000/svg" xmlns:xlink="http://www.w3.org/1999/xlink" viewBox="0 0 2840.33 2058.09"><defs><style>.cls-1{fill:#ca9048;}.cls-2{fill:#623b11;}.cls-3{fill:#ffae72;}.cls-4{fill:#492a00;}.cls-5{fill:#9cae7f;}.cls-6{fill:#2f7f31;}.cls-7{fill:#fff;}.cls-8{fill:#ff8e00;}.cls-9{fill:#1a662c;}.cls-10{fill:#d1613d;}.cls-11{fill:#d35e00;}.cls-12{fill:#ffb139;}.cls-13{fill:#ffe8be;}.cls-14{fill:#3f0000;}.cls-15{fill:#7c331c;}.cls-16{fill:#001e42;}.cls-17{fill:#17451f;}.cls-18{fill:#281100;}.cls-19{fill:#144372;}</style></defs><title>mr-cash-flying</title><path class="cls-1" d="M2454.85,2005.33c13.38,23.49,35.8,40.15,52.36,61.38,1.3.41,2.59.82,3.87,1.26,1.86.64,3.71,1.32,5.55,2-3.55-3.63-7-7.36-10.27-11.17-9.22-10.65-17.72-22.42-23.43-35.38-4.49-10.14-7.81-20.89-8.5-32A192.81,192.81,0,0,0,2454.85,2005.33Z" transform="translate(-1052.08 -1183.73)"/><path class="cls-1" d="M2430.32,2030.7c11.47,6.56,24.06,11.36,36.1,17-9.08-10.78-17.63-25.8-14.72-39.85A115.47,115.47,0,0,0,2430.32,2030.7Z" transform="translate(-1052.08 -1183.73)"/><path class="cls-2" d="M2857,1848.13c-15,23.68-32.86,45.91-51.21,66.83-25,28.45-52.86,56.17-85.26,76.1-7,4.28-14.26,8.58-21.87,11.67-14.76,6-30.61,8.63-46.31,10.81-17.67,2.47-35.44,4-53.15,6-8.16.92-16.35,1.9-24.41,3.48-4.65.91-10.88,1.74-14.82,4.72-4.22,3-5.58,9.32-6.47,14.12a125.08,125.08,0,0,0-1.58,23.36c0,4.52.25,9,.52,13.55a66,66,0,0,1,12.46-25.78c9.55-11.74,22.46-16.73,37.19-18.47,19.1-2.39,38.45-1.73,57.57-4a247.13,247.13,0,0,0,24.7-4.28c17.33-10.73,34.32-22.05,51.12-33.52,31.13-21.24,61.58-43.63,91.08-67.07l.88-.72a201.74,201.74,0,0,0,20.59-22.83,90.61,90.61,0,0,0,17.31-37.53q-3.41-6.74-6.79-13.38C2858.05,1850.12,2857.54,1849.12,2857,1848.13Z" transform="translate(-1052.08 -1183.73)"/><path class="cls-3" d="M2463.69,2250.81c-6.63,6.51-6.4,20.15.67,40.54a212.11,212.11,0,0,0,42.28,71c-13.45-34.65-26.88-71.54-41.11-113A15.14,15.14,0,0,0,2463.69,2250.81Z" transform="translate(-1052.08 -1183.73)"/><path class="cls-1" d="M2591.4,1917.3c-14.15,2.51-28.32,5.07-42.34,8.22s-27.77,7-40.55,13.71c-.23-.46-.44-.93-.65-1.39-5.16,5-10.33,10.21-15.52,15.67-2.58,2.71-5.06,5.39-7.52,8.07,35.35,1.44,70.78,1.72,106.14-.14,20-1,40-2.88,59.65-6.9,9.08-1.85,18.18-4.2,26.68-8,36.36-16.07,70.26-37.81,103.93-58.83,4-2.5,8.05-5,12.07-7.54q-12.75,7.27-25.72,14.08c-34,17.85-70.05,34.75-107.57,43.56a118,118,0,0,1-23.77,3.4c-6.29.18-12.63-.06-18.92-.25-14.69-.43-29.85-1.55-44.49,0,6.47-3.14,13.56-4.88,20.53-6.55,9.13-2.18,18.33-3.77,27.63-5.13,6.57-1,13.22-1.68,19.69-3.19a217.1,217.1,0,0,0,27.2-8.89c37-14.14,72.85-31,109.25-46.45,21.41-9.08,43-18,64.86-25.84-9.16-1.13-18.91-2.06-29.48-2.8-66.68-4.68-127.38.87-180.42,16.48a221.86,221.86,0,0,0-29.08,10.94c8.3-1.72,16.65-3.16,25-4.35,36.41-5.19,73.07-8.58,109.49-13.68l7.08-1c-32.84,9.08-65.86,17.4-98.87,25.79-16.38,4.16-33,8.5-48.63,15.11q-7,2.94-13.79,6.12l14.92-1.27c39.32-3.3,78.65-7,117.42-14.61a486.82,486.82,0,0,0,89.73-26.86,505.59,505.59,0,0,1-99,38.46C2668.54,1903.69,2629.94,1910.43,2591.4,1917.3Z" transform="translate(-1052.08 -1183.73)"/><path class="cls-4" d="M2926,1994.45c-20.16-46-38.2-84.94-55.89-120.55a84.09,84.09,0,0,1-4,16c-4.31,12.23-10.55,23-17.93,33.61-1.89,2.71-4,5.4-6.14,8,3.08.84,6.14,1.75,9.15,2.82a90.27,90.27,0,0,1,23.72,12.17c5.72,4.27,10,9.61,14.45,15.12,6.21,7.71,12.43,15.41,18.58,23.15,10.09,12.71,20.07,25.51,30.28,38.12q-6-13.83-12.16-27.73l.17-.08Z" transform="translate(-1052.08 -1183.73)"/><path class="cls-5" d="M3067.23,2138.76a.57.57,0,0,1-.18,0,1.63,1.63,0,0,1,0,.31C3067.12,2139,3067.17,2138.87,3067.23,2138.76Z" transform="translate(-1052.08 -1183.73)"/><path class="cls-5" d="M1095.06,2787.9c0,.32-.06.65-.1,1,0-.36.09-.72.13-1.08a2.09,2.09,0,0,0,0,.35A1.93,1.93,0,0,1,1095.06,2787.9Z" transform="translate(-1052.08 -1183.73)"/><path class="cls-5" d="M1082.42,2693.54c0-.35,0-.71,0-1.08,0,.08,0,.14,0,.2C1082.44,2693,1082.43,2693.25,1082.42,2693.54Z" transform="translate(-1052.08 -1183.73)"/><path class="cls-6" d="M2167.48,2239.33c38.34,11.76,76.15,25.58,113.18,40.94q48.54,20.14,95.85,43.18l-78-47.95-102.88-63.28-85.57-52.63-47.35-29.13-3.69-2.26q15.32,8.19,30.63,16.42l77.51,41.57L2270,2241.3q53.22,28.56,106.45,57.09l67.2,36.05q-20.16-40.58-40.34-81.12l-54-108.5-42.89-86.25q-6.85-13.77-13.7-27.55,11.39,18.81,22.79,37.61l53.76,88.71L2432.09,2261c.86,1.42,1.72,2.83,2.57,4.25,0-11.11,2.92-22.68,12.08-31.66a38.38,38.38,0,0,1,10.91-7.4q-4.82-14.25-9.74-29.24c-11.37-34.44-19.83-61-27.42-86.07-6.12-20.29-11.18-40.4-15.76-59.25q-1.38-5.66-2.7-11.33c-1.89-8.07,2.51-14.54,4.89-18,.3-.46.6-.89.86-1.3a109.31,109.31,0,0,1,7.19-10.14c15.67-23.9,35.23-48.1,59.83-74,7.44-7.83,14.86-15.17,22.24-22.14l-.65-1.39c1.2-.49,2.4-.92,3.6-1.37,41.94-39,83.15-64.12,125.24-76.52,55.83-16.44,119.4-22.29,189-17.42,17.7,1.25,33.29,3,47.69,5.33h.19c2.37.18,9.64.71,13.21,7.45,1.64,3.08,3.23,6.18,4.82,9.28,21.68,42.25,43.29,88.22,68,144.66l2.92,6.72-.14.06c6.84,15.51,13.54,31,20.07,46.21,3.74-11.31,11.11-15.63,17.25-17.2,17.53-4.46,30.86,11.27,35.87,17.2,9.93,11.71,17.31,25.14,22.91,36.68q-4.22-39.51-8.4-79-6.41-60.35-12.82-120.68-5.22-49.28-10.46-98.53l-3.84-36.19q3.91,21.3,7.85,42.61,9.32,50.55,18.62,101.07,11,59.67,22,119.34,8.49,46,17,91.95c.87-6.52,1.76-13,2.63-19.56q7.24-53.73,14.48-107.46,7.95-58.87,15.88-117.74,5.24-38.93,10.49-77.85l1.17-8.72q-1,23.67-2,47.35-2.33,54.16-4.64,108.33-2.55,59.36-5.08,118.7l-1.65,38.52a123.25,123.25,0,0,1,33.14-25,100.45,100.45,0,0,1,18.61-7.14c-9.48-41.87-12.16-85.76-12.66-127.83-.53-45.29-2.42-90.88,3.79-135.89a258.56,258.56,0,0,1,13.53-55.4,99.65,99.65,0,0,1,9-18.17,125.17,125.17,0,0,1,31.39-32.8c4.59-17.07,9-34.21,12.77-51.45q8.55-38.84,16.19-77.8c6.43-32.67,11.37-65.72,15.52-98.76,4.81-38.19,8.95-76.61,11.36-115.11q-2,6.15-4.07,12.32-10.5,31.8-21,63.6-6.89,20.77-13.82,41.57h0q-8.16,28.39-16.33,56.8-16.35,56.81-32.69,113.63l-24.54,85.32q-1.08,3.72-2.14,7.43,5.16-29.1,10.32-58.19l20.67-116.42q6.22-35.08,12.44-70.16-7.8,3-15.55,6.28c-20.36,8.57-39.89,18.78-59.17,29.56a36.58,36.58,0,0,0-8.11,6.57,129.93,129.93,0,0,0-16.58,21.1,337.35,337.35,0,0,0-18.5,33.19c-17.46,35.44-31.36,72.62-43.73,110.1-5.31,16.08-10.18,32.29-15,48.52-54.18-24.49-111.14-44-170.48-50.85-37.2-4.3-77.64-3.92-112.1,12.54-12.56,6-24.91,14.51-33.85,25.36q-8.82,10.66-17.58,21.36c-21.64,26.38-46.15,50.56-70.59,74.32-30.08,29.28-61.76,57-93.67,84.23-29.86,25.51-60.44,50.22-91.37,74.43-16,12.53-32,25-48.29,37.19-12.81,9.64-24.86,20.2-41,23.65-14.26,3.06-29.11,2.14-43.52.68-15.73-1.58-31.36-4.09-47.09-5.78s-31.42-2.69-47.05-1c-11.8,1.31-25.35,4-35.55,10.47-6.63,4.21-14.34,8.89-21.17,13.63-10.91,7.55-21.33,15.81-31.63,24.16q-4.73,3.83-9.4,7.72c-32.29,31.28-63.93,63.29-94.18,96.45q-10.36,11.36-20.34,23,44.4,12.13,89.54,21.51C2105.38,2222.2,2136.61,2229.85,2167.48,2239.33Z" transform="translate(-1052.08 -1183.73)"/><path class="cls-7" d="M2585.88,2316.52c-13.9,3.28-24.33-6.7-29.94-18.4q-8,2.93-15.94,5.75s0,.05,0,.08a50.5,50.5,0,0,0,5.54,7.71,60,60,0,0,0,13.1,11.26c7.22,4.41,14.92,6.55,22.87,9.1-.62.14-1.24.25-1.88.36,17.44-1.71,32.56-14.35,42-27.84,1.18-1.44.78-3.5.14-5.84a53.57,53.57,0,0,1-11.51-3.86A34.55,34.55,0,0,1,2585.88,2316.52Z" transform="translate(-1052.08 -1183.73)"/><path class="cls-3" d="M3072,2358.52c-2.22-8.33-4.9-16.49-7.46-24.05-13.73-40.48-29.46-79.28-47.13-122.18L3007,2187q-7.1-17.14-14.14-34.33c-6.52-15.81-13.45-32.61-20.73-50.05q-8.4-8.11-16.11-16.87a293.66,293.66,0,0,1-33.45-46.8c-9.92-16.94-20.66-33.37-30.88-50.12q-7.36-12.06-14.71-24.14a58,58,0,0,0-13.4-15.59,112.75,112.75,0,0,0-20.2-12.54c-1.35-.67-2.69-1.32-4.06-1.94-1.06,1.14-2.13,2.25-3.22,3.31-13.51,13.14-27.68,25.59-42.07,37.76-43.94,37.11-91.47,70.13-142.5,96.75a433.13,433.13,0,0,1-44.69,19.92,266.81,266.81,0,0,1-36.42,11.38c-6.21,1.5-12.48,2.6-18.75,3.82-2,.39-3,1-4.61-.2-2.68-2.08-5.41-4.11-8.19-6.06-12.56-8.8-26-16.92-40.34-22.52-12.76-5-27.05-9-40.61-4.93-8.47,2.84-14.19,8.67-18.41,15.71,1.31,4.62,2.64,9.27,4,13.92h0c.11.33.21.67.31,1,.63,2.07,1.25,4.14,1.9,6.21h0c7,22.88,14.86,47.51,25.14,78.62,9.59,29.07,18.71,55.84,27.57,81,26.9-7.93,53.71-16.25,80.23-25.38,9.67-3.32,19.3-6.75,28.78-10.59,5.85-2.38,12.34-4.72,17.44-8.57l-6.25,20.2q-1.95,6.39-3.94,12.77c-.22.7-.63,3.64-1.37,4a214.48,214.48,0,0,1-40.16,13.32c-23.2,5.48-48.45,7.86-71.9,2.26,11.13,31.33,21.91,60.15,32.77,87.67,2.23,5.65,4.54,11.28,6.86,16.89,4,9.64,8.09,19.62,11.73,29.73q7.74,21.38,15.59,42.7l3.57,9.68c12.23,33.24,24.9,67.61,39,100.51.48,1.12,1,2.25,1.43,3.4,2.52,6,4.93,11.75,8.46,15.53,1.13,1,2.32,2,3.4,3,27.25,24.65,56.73,47.24,86.2,69.11,15.28,11.33,30.75,22.46,46.77,32.7,7.83,5,15.76,9.89,24,14.27,3.88,2.08,7.83,4,11.89,5.75,1.15.48,9.64,4.32,10.6,3.11a1.25,1.25,0,0,0-.5,0c12.88-1.91,25.56-5.34,38.08-8.82,18.11-5,36.09-10.61,53.94-16.46s35.75-12.12,53.32-19c8.3-3.22,16.56-6.57,24.57-10.44,3-1.43,8.23-3.37,10.89-5.95,1.79-2.22,3-5.3,4.23-7.73,4.24-8.61,7.95-17.48,11.5-26.38,7.32-18.29,14.1-36.81,20.61-55.4,13-37.3,25.34-74.92,36.18-112.92,4.45-15.59,8.71-31.24,12.18-47,1.69-7.67,3.3-15.41,4.32-23.2.41-3.12.7-6.23.82-9.37,0-.69.11-1.53.14-2.36A60.7,60.7,0,0,0,3072,2358.52ZM2623.09,2299c-.42-.07-.85-.18-1.27-.27.64,2.34,1,4.4-.14,5.84-9.45,13.49-24.57,26.13-42,27.84-14.18,2.62-29.06-.35-40.56-9.39-6.89-5.42-13.28-12.53-16.52-20.8-.68-1.61-1.28-3.27-1.93-4.9-.84-2.12-.53-1.76,1.59-2.67,26.82-11.46,54.48-19.35,83.81-20.82,4-.2,7.94-.24,11.91-.06q.48,0,1.23,0c-4.68,2.21-9.47,4.26-14.29,6.23a33.4,33.4,0,0,1,6.92,3.05C2617.09,2286.54,2622.85,2292.19,2623.09,2299Zm116.26-121.89c38.22-14.78,75.47-32.24,112.67-49.37q36-16.59,71.81-33.57c-7.3,14.06-19.73,25.36-31.84,35.23-33.38,27.24-72.3,48-110.93,66.77q-7.82,3.8-15.71,7.41c-1.86.85-3.44,2.3-5.27,1.28q-19.3-10.8-38.61-21.57A166.32,166.32,0,0,0,2739.35,2177.08Zm46.75,49.37a33.64,33.64,0,0,1-10,4.25,31.4,31.4,0,0,1,1.28-6.5c-1.49-.45-3-.9-4.44-1.42,1.47.52,2.95,1,4.44,1.42a44.77,44.77,0,0,1,8.41-15.31l-8.61,3c-7.59,2.6-15.08,5.49-22.71,7.94,17.11-13.43,35.9-23.88,55.64-32.88a316.54,316.54,0,0,1,50.95-18c12.86-3.37,25.9-5.71,39-8.13-.63,6.39-1.17,12.46-3.12,18.62a65.39,65.39,0,0,1-13,22.92c-9.85,11.31-23,18.2-37.52,21.47l.13-.09A117.73,117.73,0,0,1,2786.1,2226.45Zm-52,190.79v.34c-16.26-3-32.42-8.23-44.93-19.56-1.81-1.59-6.12-4.79-6-7.44.09-2.11.18-4.23.26-6.34q.3-7.18.59-14.38c1.85,6.09,3.69,12.16,5.53,18.25a54.16,54.16,0,0,0,16.75,5.63c0-.07-.07-.13-.09-.2-2.57-5.86-5.1-11.72-7.58-17.63-3.3-7.87-6.52-15.77-9.75-23.67-2.31-5.61-4.51-11.24-6.85-16.84-1.17-2.82-2.33-5.66-3.48-8.49-.14-.33-1-2.35-.69-1.72-13.44-25-28.85-48.9-41.55-74.3-.57-1.08-1.31-2.54-2.25-4.47,15.16,13.09,29,27.9,42.06,43.06,8.1,9.46,16.35,19,22.28,30.06,10,18.58,18.71,37.85,26.86,57.31,1.37,3.31,2.75,6.6,4.14,9.9a12.85,12.85,0,0,0,2.64,3.95,18.2,18.2,0,0,0,3.68,2.73c7-1.5,14.25-3.74,20.23-7.54-.14.16,3.17-3.65-.29.34,11.38-12.37,21.68-25.78,32.4-38.75a96.23,96.23,0,0,0-7.49-9.84c-2.77-3.18-5.55-6.13-9.74-7.21,6.3-1,12.5,3.11,17.42,6.6a90.72,90.72,0,0,1,9.53,7.74c1.69,1.55,2.33,1.53,1.35,3.59-6.1,12.94-12.64,25.65-19.83,38-4.84,8.34-9.67,15.6-18.16,20.64-7.56,4.49-16.13,7.51-24.62,9.73A11.07,11.07,0,0,1,2734.06,2417.24Zm238.52-91.7c-1.65.93-3.38,1.83-5.12,2.71a196.65,196.65,0,0,1-8.2,36.33c-5.4,16.73-12.45,33.89-24.61,46.9-10.35,11.07-24.57,17.92-38.11,24.25a511.33,511.33,0,0,1-54.91,21.45c-29.77,9.89-60.31,18.37-91.32,23.3,27.32-13.57,55.55-25.28,83.68-37.05,16.37-6.85,32.82-13.57,49-20.86,8.42-3.78,16.8-7.62,25-11.94,3.32-1.78,6.57-3.68,9.7-5.76.87-.57,1.69-1.2,2.52-1.84.12-.08.63-.5.61-.46,20.18-19.56,31.88-46.23,42.38-72.27-7.59,3.41-15.74,5.91-23.89,6.06,3.49-10.83,13.82-20.45,23.67-25.6,10.26-5.53,22.71-9.22,34.37-6.37C2991.37,2313.25,2981.78,2320.37,2972.58,2325.54Z" transform="translate(-1052.08 -1183.73)"/><path class="cls-7" d="M2877.73,2192.8a58.24,58.24,0,0,0,4.77-11.1c.29-.88.58-1.82.89-2.78q-11.38,3-22.68,6.16c1.51,16-10.57,31.1-26.23,35.4-12.42,3.41-23.84-3.75-30.79-13.68a48.28,48.28,0,0,1-17.59,19.65,117.73,117.73,0,0,0,60.45-2.75c8.17-5.6,16.33-11,22.76-18.68A81.39,81.39,0,0,0,2877.73,2192.8Z" transform="translate(-1052.08 -1183.73)"/><path class="cls-2" d="M2584.91,2052.93c-14.28,6.61-23.38,19.83-29.77,33.93,8.6-2.4,17.1-5,25.55-8,11.68-4.22,23-9.32,34.26-14.57,11.76-5.49,23.17-11.64,34.57-17.83.34-.18.66-.37,1-.55-11.7,1.72-23.52,2.28-35.35,2.77C2605.05,2049.1,2594.5,2049.28,2584.91,2052.93Z" transform="translate(-1052.08 -1183.73)"/><path class="cls-5" d="M2833.07,1855.36q7.71-4.78,15.43-9.56l-1.79-.25C2842.23,1848.9,2837.69,1852.19,2833.07,1855.36Z" transform="translate(-1052.08 -1183.73)"/><path class="cls-8" d="M3543.4,2657.3c-1.64,1,15.74-27.67,22.78-68.11a201.69,201.69,0,0,1-19.64,5.8c-14,3.29-29.51,6-44.06,4.3q2.34,15.77,4.31,31.55a1001.68,1001.68,0,0,1,8,107.1c0,1.64-9.16,86.74-9.14,88.37,30.86-32.14,107.51-152.09,132.65-189,18.94-27.82,23.87-67.81,37.07-98.85,3.19-7.49-18.42-.15-15.76-7.87-.84.79-1.68,1.59-2.54,2.38C3647.26,2560.21,3619.6,2611.66,3543.4,2657.3Z" transform="translate(-1052.08 -1183.73)"/><path class="cls-8" d="M2638.18,3094.55c-12.39-4.79-57.23-26-71.36-85.3h0l-11.36,1.68q-31.3,4.53-62.88,7C2507.45,3043.9,2552.79,3106.76,2638.18,3094.55Z" transform="translate(-1052.08 -1183.73)"/><path class="cls-3" d="M3843.92,1788.71c-7.05-25.85-15.57-51.34-24.8-76.5q-6.88-18.84-14.55-37.4c-2.58-6.29-5.25-12.56-8.09-18.74-2.17-4.74-4.25-9.86-7.27-14.15-2-2-3.65-4.28-5.79-6.11a86.74,86.74,0,0,0-10-7.18c-8.57-5.1-17.84-8.09-27.42-10.44a17,17,0,0,1-2.52-.14c-4.64,1-9.23,5-13.31,7.17-7.82,4.13-16.44,7.06-25.34,7.39-10.72,1.18-21.79-2.11-31.95-5.12-16.31-4.8-32.53-10.35-49.36-13a114.8,114.8,0,0,0-41.36,1.2c-17.42,3.58-34.67,11.63-52.75,10.7-9.31-.21-17.47-3.86-26.29-6.18-17.59-5.2-36.76-7-55-8.1a245.67,245.67,0,0,0-29.1-.06c-8.81.53-18.49,1.53-26.76,4.87l-3.46,1.37c-7.66,3.89-13.36,12.1-18.45,18.71-8.82,11.47-16.87,23.53-26.17,34.63-13.81,16.48-32.57,31.87-55.62,26.21l1,.24a65.79,65.79,0,0,0-14.39-1.68c-10,.15-19.93,2.93-29,7.13a80,80,0,0,0-36.55,33c.09-.15.13-.34.22-.49a60.52,60.52,0,0,0-3.75,8.94,177.27,177.27,0,0,0-7.43,26.82c-3.87,18.86-5.79,38.1-6.84,57.32-1.07,19.6-.9,39.23-1.14,58.85-.75,60.94-1.2,123,16.4,182a220.48,220.48,0,0,0,22.61,52.08c5.23,8.6,10.78,17,16.08,25.56,10.65,17.06,20.85,34.44,31.86,51.28,7.3,11.19,15.09,22.49,27.63,28.07a54,54,0,0,0,8.86,3.08,33.49,33.49,0,0,0,10.79-.46c8.42-1.43,16.69-4.21,24.75-7,3.7-1.29,7.39-2.66,11.08-4,28.89-13.78,57.47-28.2,86.66-41.36,20.77-9.37,41.76-18.29,63.06-26.45q9.12-3.48,18.33-6.77a285.9,285.9,0,0,1,26.69-11.93c-.24.07-.48.15-.73.21l.09,0a48.15,48.15,0,0,0,7.91-4.09,101.11,101.11,0,0,1-28.12-.82c-.6-.11-1.19-.26-1.8-.38.09.16.16.33.24.5-9.6,1.76-19.23,3.31-28.88,4.83-12.24,1.93-24.81,2.58-37.15,3.73-2.44.22-4.86.42-7.32.61a150,150,0,0,1-29.28,13.23c-26.49,8.47-57,7.61-81.5-6.47-10.17-5.86-19.11-13.87-27.22-22.46a135.57,135.57,0,0,0-7.62,11.46c-6.48,10.9-11.11,22.49-15,34.52a174.93,174.93,0,0,1,.23-43,145.35,145.35,0,0,1,5-22.69,2.06,2.06,0,0,1,.13-.45,419.07,419.07,0,0,1-24.29-35,637.36,637.36,0,0,1-49.24-97l-2.44-2.4a274.47,274.47,0,0,1-23.58,39.94,151.76,151.76,0,0,1-6.63-18.13c-7.73-26.27-8.34-54.29-3.89-81.21,2-12.16,4.82-24.53,9.42-36q9.1,20,18.26,39.94c11.92,16.46,23.22,33.38,34.55,50.18,22,32.6,43.14,65.77,66,97.75,10,13.94,20.24,27.84,32,40.32,5,5.25,10.58,11.24,16.94,14.63l-.52-.22c7.88,3.82,15.8,7,24.5,8.54,13.82,2.41,27.93,1.1,41.58-1.81,5.7-3.66,11.39-7.38,17-11.23,9-6.42,18.09-12.75,27-19.31-5.26-7-10.06-14.36-14.55-21.78-20.22-33.29-35.25-69.75-49-106.1-9.88-26.14-18.49-52.76-28.46-78.89a137.33,137.33,0,0,0-8.65-18.11c-3-3.41-6-6.78-9.05-10.07-3.44-3.69-6.95-7.31-10.71-10.66-2.4-2.14-5.2-4.82-8.35-5.77-2.38-.71-5.94.23-8.43.19-5.22-.08-10.44-.45-15.63-.84-7.37-.57-14.77-1.24-22.12-2,.62-.91,1.29-1.77,2-2.62,6.83-8.15,16.63-13.55,26.21-17.82a208,208,0,0,1,34.32-11.41,324.53,324.53,0,0,1,42.61-7.84l-.63.5c-6.77,5.35-13.48,10.81-20,16.47a80.19,80.19,0,0,0-8.82,8.36c-1.44,1.7-1.2,3.26-1,5.41.68,8.46,1.88,16.93,3.24,25.36l1.71,1.85a135,135,0,0,1,16.41,21.36c4.57,7.54,8.77,15.31,12.92,23.09,18.16,34.12,35,68.94,53.65,102.79,9.62,17.44,19.66,34.7,31.07,51a187.62,187.62,0,0,0,18,22.49c5.15,5.39,11.46,11.6,18.9,13.36,20.66,3.08,40.76-1.69,59.14-11.46a123.29,123.29,0,0,0,31.5-23.62c5.76-6.09,11.45-13.13,13.78-21.31a47,47,0,0,0-.19-7.4c-.81-8.64-2.49-17.26-4.16-25.77-3.82-19.39-8.27-38.65-12.77-57.9-8.56-36.68-17.47-73.28-25.81-110-.82-3.65-1.64-7.28-2.45-10.93-6.8-10.42-13.46-20.93-19.78-31.63-2.18-3.72-4.39-7.45-6.24-11.35-2.25-4.72-6.57-7.89-11-10.38-8.66-4.8-18.53-7.64-28.2-9.57l-1.34-.26c13.06-4.22,26.36-7.81,39.72-10.91a283.66,283.66,0,0,1,32.87-5.93c8.66-1,18.15-1.78,26.67.63a21.5,21.5,0,0,1,3.6,1.37c-6.34,6.69-12.94,13.2-19.85,19.29-2.19,1.92-4.4,3.79-6.73,5.54-1.51,1.14-3.49,2-4.7,3.52-2,2.44-2.44,6.08-2.71,9.11a82.89,82.89,0,0,0,0,13.37c8.29,18.46,16,37.2,23.53,55.93,14.2,35.33,27.41,71.11,38.93,107.41,6,18.94,12.09,38.24,15.59,57.83.4,2.31.81,4.63,1.16,7a281.26,281.26,0,0,0,29.58-5.52c1-.45,2-.87,3.07-1.32,11-4.93,22-10.23,32.17-16.81,8.49-5.49,17.41-12,21-21.8,2.65-8.81,2.77-18.77,3-27.88.56-19.55-.38-39.17-1.44-58.7q-3.14-57.54-8.14-115c-.29-3.35-.62-6.69-.92-10-2.75-7.49-5.69-14.92-9-22.18-3.16-6.93-6.62-15-12.28-20.31,8.62.53,17.23,1.38,25.79,2.46,6.82.86,13.63,1.9,20.35,3.37,5.35,1.18,11.11,2.48,15.88,5.33-5.07,6.14-10.1,12.3-15,18.58-1.55,2-4.44,4.69-4.88,7.34-.71,4.31-.35,9-.26,13.3,0,.72.07,1.44.08,2.16a396,396,0,0,1,15.73,50c7.71,30.89,12.77,62.93,13.57,94.9,0,0,0,0,0,0,16.4-5.25,31.55-13.51,42.22-27.81a71.5,71.5,0,0,0,9.69-18.19c.64-8.16-.2-17-1.21-25C3853.91,1827.55,3849.18,1808,3843.92,1788.71Z" transform="translate(-1052.08 -1183.73)"/><path class="cls-9" d="M3051.27,2083.47l-67.09-326.9-14.83,292.94s15.34-33.93,55.3,8.66S3051.27,2083.47,3051.27,2083.47Z" transform="translate(-1052.08 -1183.73)"/><path class="cls-5" d="M1168.11,2733.47c0,.06,3.08,2.21,2.87,1.45s-1.53-1.34-3.11-1.74A2.47,2.47,0,0,0,1168.11,2733.47Z" transform="translate(-1052.08 -1183.73)"/><path class="cls-3" d="M1852.57,2548.91c0,.32.66,4.49.35,4.63s-2.85-3.24-3-3.44q-4.07-4.65-8.05-9.35-8.46-9.95-16.85-19.95c-12.09-14.4-24.06-28.88-36.19-43.25-1.63-1.93-3.29-3.85-4.93-5.78-.19,0-.38,0-.57,0-1.64,0-1.43-.55-.63-1.4q-18.47-21.73-37.36-43.07-5-3.54-9.85-7.09c-29.52-21.4-58.09-44.1-86.3-67.18q-22.73-18.59-45.34-37.27c-7.17-5.9-14.13-12.36-22-17.38a123.33,123.33,0,0,0-24.23-11.64c-17.28-6.32-35.55-10-53.84-11.8-18.67-1.88-37.77-2-56.31,1.09-10.74,1.76-22.79,4.37-31.71,11a47.34,47.34,0,0,0-9.08,8.69c-4.89,6.38-6.3,14.41-8,22.08-1.94,9-4.38,17.83-8.8,25.95a73.64,73.64,0,0,1-18,21.41c-29.84,24.63-69.86,27-106.13,34.81-15.43,3.34-33.41,7.7-44,20.39A54.05,54.05,0,0,0,1215,2432c-3.11,7.81-4.3,16.28-4.9,24.63-1.35,18.57.61,37.27-1.58,55.78-1.34,11.2-4.36,22.35-10.25,32.05-7.41,12.22-19.38,21.88-29.86,31.36-6,5.44-12.07,10.8-18,16.35-3.06,2.87-6.09,5.78-9,8.8-1.64,1.68-4.34,3.9-5.75,6.13-3.83,21.28-4.65,43.29-6.18,64.82-1,13.54.32,28.08-7,40.08-6.35,10.39-16.69,17.79-22.84,28.25-6.71,13.88-3.36,29.57-4.28,44.49,1.31,2.88,2.46,5.82,4,8.62,2.43,4.42,5,8.75,7.69,13,5.31,8.5,10.91,16.82,16.6,25.07,11.26,16.34,23,32.34,35.07,48.1,11.75,15.37,23.8,30.52,36.44,45.17,6.25,7.22,12.59,14.38,19.33,21.15,3.14,3.14,6.35,6.22,9.74,9.06a48.78,48.78,0,0,0,4.88,3.69,21.19,21.19,0,0,0,6.14,2.17c20.15,5.35,41.63,8,62.6,6.34,3.24-.89,6.44-1.9,9.57-3,11.86-4.3,23.46-10.82,32.2-20a70.38,70.38,0,0,0,6.43-7.86l-1.5-.21a230.32,230.32,0,0,1-84-29.27c-13.5-8-24.32-19.59-33.6-32.1-10.49-14.15-19.2-29.63-26.79-45.49a421.78,421.78,0,0,1-19.65-49c-2.75-8.26-5.2-16.61-7.49-25-1.21-4.44-2.33-8.9-3.42-13.37-.69-2.79-1-5.83-1.92-8.58-2.17-.51-4.72-.73-5.63-.88-3.77-.58-7.57-.9-11.37-1.2-5.23-.4-10.46-.73-15.7-1.07a112.41,112.41,0,0,1,18-9.44c7-3,15.48-6.2,23.27-5,5,.75,8.1,3.53,11,7.43,5.21,7,9.84,14.44,14.59,21.73,21.19,32.49,40.35,66.73,63.91,97.61,7.68,10.07,15.89,18.92,26.68,25.58a396.24,396.24,0,0,0,45,23.77c24.26,11,50.58,21.15,77.43,25a92.1,92.1,0,0,0,17.66-7.36l0-.59,1.09,0c.26-.15.53-.27.79-.43,9.76-5.8,18.72-12.85,25.89-21.72a242.51,242.51,0,0,1-34.72-17.64c-15.86-9.58-30.84-21.5-42.82-35.64-12.58-15-23.38-31.45-33.88-48-10.76-17-20.94-34.27-30.81-51.74-20.09-35.58-38.81-71.91-57.08-108.46-2-4.11-4.15-8.22-6.23-12.32-1.29-2.53-2.56-5.08-3.95-7.56-.53-1-1.31-2-2-3.13-6.6,4.6-13.21,9.18-19.78,13.81,4.26-5.14,8.56-10.23,13-15.22,1.72-1.93,3.55-4.86,5.75-6.21s4.06-.26,5.66,1.25a99.05,99.05,0,0,1,8.25,9.34c6.33,7.67,12.41,15.57,18.45,23.49,13.75,18,27.14,36.31,40.54,54.57q16.88,23,33.78,46c11.21,15.23,22.5,30.4,34.21,45.24q8.4,10.62,17.16,21c5.19,6,10.55,12.21,16.82,17.17a200,200,0,0,0,51.3,29.29,158.57,158.57,0,0,0,27.17,8.08c8.48,1.68,18.06,3.2,26.63,1.28a38.2,38.2,0,0,0,9.07-3.62,117.35,117.35,0,0,0,20.93-14,100.54,100.54,0,0,0,17.87-18.82c3.5-4.93,7.38-11,7.49-17.22-26.08-38.21-47.49-79.47-64.76-122.43-15.9-28.28-31.86-56.52-47.53-84.93q-21.67-39.29-42.59-79c-12,3.2-24.09,6.29-36.21,9.12q12.93-7.14,26-13.91c3.76-1.95,7.54-3.9,11.31-5.83l2.57-1.31c.29-.15,1.53,1.64,1.73,1.9q17.93,21.55,35.21,43.65c17,21.61,33.39,43.57,49.66,65.69q30.79,41.91,59.38,85.42c10.93,16.65,21.63,33.43,31.63,50.65,3.51,6,7.07,12.17,10.28,18.44a565.19,565.19,0,0,0,69.39-35c16.06-9.62,32.54-20.43,44.69-34.88,5.06-6,9.07-12.8,10.63-20.55.72-3.62.3-7.59.19-11.28-.11-4.34-.24-8.72-.42-13.11-3-7.15-6.41-14.14-9.67-21.07-8.23-17.46-16.5-34.9-24.48-52.49-16.43-36.13-31.78-72.88-44.61-110.47-5-14.59-9.58-29.31-13.59-44.19-1.88-7-3.64-14-5.17-21-.17-.8-3.22-13.12-2.59-13.41.24-.1,2.68,2.95,2.87,3.16,2.56,2.91,5,5.9,7.46,8.94,5,6.22,9.71,12.64,14.26,19.18a508.49,508.49,0,0,1,29.07,47.22,574.53,574.53,0,0,1,35.92,79.24c.49-.57,1-1.14,1.52-1.66,9.21-9.35,25.29-14.94,37.4-7.56.86.52,5.34,3.3,4.69,4.45-1.55,2.74-3.1,5.47-4.44,8.32-2.7,5.7-5.1,11.61-9.4,16.33a42.91,42.91,0,0,1-19.42,11.79q2,7.09,3.84,14.26a247.16,247.16,0,0,1,13.06,30.32c2.53,6.91,4.68,14,6.79,21s3.8,14.47,5.46,21.77a48.72,48.72,0,0,1,1.35,7.09c1.2,14.77-2.72,28.86-10.1,41.63-9.49,16.41-23.33,30-38.11,41.7-15.71,12.45-32.88,23-50.61,32.31a451.2,451.2,0,0,1-46.73,21.19,71.38,71.38,0,0,1-6.3,20.35c-8,16.84-21,31.13-35.31,43-16.47,13.69-36,25.51-57.54,27.83a105.89,105.89,0,0,1-24.91-.47,161.48,161.48,0,0,1-20,15.7c-.7,14.11-.13,30.9,12,39.64,8.51,6.1,20,7.16,30.19,6.92a117.56,117.56,0,0,0,23.19-3.16,406.31,406.31,0,0,1,90.24-66.5c35.3-19.27,72.9-33.11,110.67-46.62,12.81-4.58,26.06-9,38.54-14.83a126.81,126.81,0,0,0,12.67-11.56,154.57,154.57,0,0,0,29.72-46c2.14-5,4.06-10,5.8-15.18,7-31.1,10.07-63.35,12.54-94.93q1.29-16.58,2.18-33.19c-.16-3.73-.36-7.47-.61-11.2-.45-6.72-1-13.44-1.8-20.11-.18-1.43-.36-2.84-.53-4.25s-.43-1.46,1-1.79q7.47-1.61,15-2.61a373.66,373.66,0,0,0-13.42-41.49C1852.46,2548.11,1852.53,2548.52,1852.57,2548.91Z" transform="translate(-1052.08 -1183.73)"/><path class="cls-8" d="M3856.57,2148.84c-5.46-15.42-10.3-31.07-14.9-46.75q-16.41-55.82-29.07-112.71c-2.24-10.06-4.46-20.13-6.57-30.23l-1.86,1a103,103,0,0,1-5.3,23.43,60.77,60.77,0,0,1-22.65,29.19c-14.78,10.37-32.53,15.83-50.09,19.22-.91.18-1.82.32-2.75.48a327.05,327.05,0,0,1-57.29,33.35c-8.3,12.72-19.76,23.69-31.63,32.62a164.29,164.29,0,0,1-29.27,17.56,76,76,0,0,1-16.24,23.2,63.83,63.83,0,0,1-11,8.09,59.68,59.68,0,0,1-8,4c-6.49,3.35-12.87,6.91-19.25,10.48-34.11,19.07-68.47,37.51-103.78,54.23-18.13,8.6-36.52,16.81-55.19,24.16-9.09,3.57-18.2,7.12-27.43,10.29-8.81,3-17.68,6.08-27,7.43a71.1,71.1,0,0,1-21.75-.17,42,42,0,0,1-8-.59c-10.33-2.5-20.41-5.88-29.08-12.18-13.81-10-23.88-24.13-33.58-38-3.84-5.5-7.62-11-11.41-16.56a513.84,513.84,0,0,0,19.42,51.11c15.61,34.55,34.5,67.36,61.67,94.2,36.35,35.93,83.54,59.78,132.65,73.71,2.48-.75,4.95-1.51,7.43-2.25.24,1.49.48,3,.71,4.48,3.29.85,6.58,1.69,9.87,2.45-3,1-6,1.84-9.07,2.57,1.49,9.64,2.82,19.29,3.62,29a342.49,342.49,0,0,1,.28,50.95,298.68,298.68,0,0,1-7.5,49.7c-3.05,12.8-6.8,25.75-12.42,37.67,5.85-27.07,4.1-56,.36-83.2-3.81-27.89-12.58-54.42-23.05-80.42a200.36,200.36,0,0,1-54.84-8.48c-18-5.44-35.74-13.21-51.39-23.78a229.91,229.91,0,0,1-43-37.61c-25.92-28.83-40.92-66.17-48.94-103.6-2.87-18.42-4.94-36.67-4.3-55.35.29-8.42.92-16.82,2-25.16q-3-4.36-6-8.69c-5.59-7.94-11.35-15.78-16.39-24.09a264.78,264.78,0,0,1-19.86-40.43,38,38,0,0,0-12.15-.29,71.07,71.07,0,0,0-23.73,8.06c-17,9.3-31.47,22.5-44.38,36.8a365.28,365.28,0,0,0-30.22,38.41,208.27,208.27,0,0,1-15,48.76l-.63-.29c14.29,35,27.25,67.86,38.85,102.09,2.69,8,5.52,16.57,7.93,25.57.58,2.19,1.15,4.47,1.61,6.83.08.37.2.72.27,1.07,2.48,11.77,1.21,24.24-.13,36.07-2.19,19.12-5.85,38.07-9.91,56.88q-5.82,26.94-12.88,53.64-1.54,18.22-3.07,36.44-4.79,56.76-9.59,113.53-4.65,54.95-9.28,109.94-1.77,21.15-3.57,42.32-.15-26.26-.28-52.54-.32-57-.62-114.07-.14-23-.26-46c-5,15.06-10.25,30-16.08,44.81a274.71,274.71,0,0,1-12,26.69c-2.29,4.4-5.17,9-8.88,12.37a.45.45,0,0,1,.18-.21c-10.2,9-23.46,14.57-35.84,19.83-18.44,7.83-37.32,14.54-56.32,20.86s-38.23,12.2-57.62,17.43l-1.59.43c38.29,35.33,73.69,74,103.78,116.44-39.69-41.55-85.11-77.63-133.2-109.12-5.31,1.15-10.64,2.17-16,3a55.62,55.62,0,0,1-14.91.76c-8.26-.94-16.25-4.14-23.68-7.75-17.18-8.33-33-19.32-48.32-30.64-31.32-23.16-60.84-48.74-89.27-75.33-12.34-11.53-24.91-23.19-35.94-36a36.9,36.9,0,0,1-2.37-3.14c-4.41-6-7.21-12.62-9.73-18.61-.44-1.08-.89-2.14-1.35-3.19-14.37-33.49-27.15-68.17-39.48-101.69l-3.56-9.68q-6.54-17.68-13-35.43c-15.8-4.93-31.74-9.54-47.89-13.17a299.71,299.71,0,0,0-46.53,4.86c-18.57,3.47-37.79,7.9-54.75,16.5a228.31,228.31,0,0,0-41.34,26.72,366.26,366.26,0,0,0-28.78,26.23q17.19,6.61,33.79,14.66c21.18,10.24,39.62,25.52,56.57,42a1461.39,1461.39,0,0,1,172.11,115.15c40.12,31.27,78.11,65.2,110.14,104.84-51.61-53.85-115.15-95.1-179.51-132.08q-22.62-13-45.67-25.33c13.11,15.76,25.81,31.88,38.27,48.14,46.83,61.11,90.33,124.76,132.4,189.21,22.73,34.81,45.16,69.86,66.67,105.44-27.78-40.07-56.71-79.38-86-118.31-47-62.42-95.5-123.93-147.7-182.13-22.15-24.69-45-48.88-69.65-71.16-18.5-16.75-37.92-32.46-60.62-43-28.32-11-57.81-19.2-88-22.77a260.48,260.48,0,0,0-43.7-1.66c-6,.32-12.05.87-18,1.74a367.68,367.68,0,0,1,34.84,48.57c7.65,12.89,14.75,26,21.73,39.28-7.31-10.41-14.56-20.83-22.39-30.86a430.57,430.57,0,0,0-37.25-41.91q-6.22-6.14-12.87-11.9a.57.57,0,0,1-.13.08c-.24.11-1.13.38-1.63.6a3.28,3.28,0,0,0-.31.2.7.7,0,0,1,.31-.2,6.76,6.76,0,0,1,1.67-.76c-23.87-20.79-51.42-37.79-81.08-48.6-32.46-11.82-67.15-16-101.57-15.25-39.68.92-78.83,7.57-118.08,12.87-13.77,1.85-27.6,3.56-41.46,4.64a266.34,266.34,0,0,1,18.45,42.88,197,197,0,0,1,6.24,23.66c.67,3.41,1.22,6.85,1.63,10.31a373.66,373.66,0,0,1,13.42,41.49c4-.53,8-1,12-1.22,12.79-.79,55.25-4.25,90.61,16.44-11-2.29-82.27,13.74-90.94,17,.64.72.23,18.42-.59,40.47a323.39,323.39,0,0,1-2.1,55.1,323.39,323.39,0,0,0,2.1-55.1c-.6,15.8-1.4,33.85-2.19,49.51-1.9,37.57-10.7,75.87-31,107.95a163.26,163.26,0,0,1-37.75,41.69c-15.59,12.1-33.25,21-51.54,28.25-35.69,14.18-73.13,23.2-107.64,40.36,39.51,29.59,121.44,87.24,200.73,120L1847,3051c1.81.62,3.61,1.23,5.44,1.82,7.63,2.42,15.76,5.1,23.83,5.42,10,.39,20.09,1,30.13.72a630,630,0,0,0,81.16-6.34c31.87-4.53,63.24-11.94,95-17.4,38.41-6.49,77-8.17,115.51-1.18,22.47,4.08,44,11.16,65.37,19.22-.3,0-.6.16-.89.19.5-.06,3,2.3,3.43,2.6a114.08,114.08,0,0,0,11.17,7,172.36,172.36,0,0,0,26.4,11.9c8.82,3.14,48.93-5.91,70.29-26.31-.18-.12-.37-.23-.55-.37-17.19-11.15-34.05-22.84-50.9-34.51l1.29-1.53-2.89-.6a201.82,201.82,0,0,1-41.38-13.54c-12.65-5.84-24.84-13-36.64-20.38-30.88-19.26-59.56-41.89-86.32-66.53-23.32-21.48-45.77-44.61-64.73-70.1,24.39,16.56,48.68,33.26,73.2,49.61,32.31,21.56,65.07,42.82,99.41,61,13.43,7.11,26.93,14.24,41.23,19.38,14.18,4.81,29,7.89,43.79,10.18l1.13-1.36,1.88,1.82c2.94.43,5.89.85,8.83,1.24,39.16,5.09,78.71,6.71,118.15,7.57,58,1.25,116,.68,173.93,1.14-11.61,3.29-23.37,6.11-35.23,8.59h0c32.94,47.69,61.12,79.32,102.58,84.34,0,0-23.48,6.72-43.57,4.76,0,0,33.47,76,80.18,67.46,0,0-75.09,23.07-114.18-57.66-13.75,13.61-50.46,42.89-102,31.07,19.4,11.57,39,22.77,59.08,33.23,9.84,5.12,19.81,10.24,29.93,15,23.93,2.16,55.81-.5,92.32-17.68,0,0-9.57,23.95-39,37.22a178.84,178.84,0,0,0,19.33,3.6c37.58,4.77,75.87,2,113.31-2.57,39.67-4.9,78.94-12.77,117.8-22.08,78.37-18.78,155.38-44,230.42-73.33,73.31-28.7,147.83-60.89,209.7-110.53,29.24-23.45,55.07-51,74.53-83.16,18.17-30,30.17-63.44,36.92-97.79,7.17-36.45,9.41-73.92,10.51-111,1-35.7.49-71.41-.9-107.09-.69-17.74-1.57-35.45-2.83-53.15,3.94,18.69,7.24,37.5,10.08,56.39,29.49-13.65,57.11-31.89,83.2-51.07,31.59-23.25,60.45-49.76,88.44-77.14,1-1,2-1.94,2.95-2.9.08-.16.15-.32.22-.48,1-2.24,3.05-3.66,4.81-5.39,3.53-3.52,7-7.14,10.27-10.86a151.1,151.1,0,0,0,16.71-22.15,68.27,68.27,0,0,0,9.36-24.65c1.32-8.5.79-17.08,1.05-25.64,0-.11,0-.21,0-.32a391.45,391.45,0,0,1-35.58,17.11,354.79,354.79,0,0,1-90.92,24.53,259.35,259.35,0,0,1-44.48,1.94c-11-.46-22.43-1.37-33.06-4.39,69.51-20.62,136.47-48.57,200.89-81.71,17.92-9,35.35-19,52.71-29.14,1.07-.87,2.14-1.74,3.19-2.61,15.21-12.51,30.59-24.8,44.79-38.48,13.35-12.88,26.19-26.88,34.73-43.52a66.13,66.13,0,0,0,6.26-16.74c1.79-8.87,1.72-18.21,1.34-27.22C3858.67,2167.2,3857.76,2158,3856.57,2148.84Zm-676.42,39.47c4.13,16.23,8.09,32.48,12.49,48.65,5,18.18,10.54,36.21,16.06,54.24,11.64,37.87,23.13,75.83,36.15,113.24,20.9,60,43,119.84,60.65,180.93-17.87-27.26-33.37-56.06-48-85.16-17.22-34.89-33-70.49-46.24-107.07-12.51-34.46-22.6-70-28.8-106.17C3177.15,2254.43,3174.37,2221,3180.15,2188.31Z" transform="translate(-1052.08 -1183.73)"/><path class="cls-10" d="M2552.77,2104.35s215.89-59.19,279.1-97.41l43.58,120.4-76,43.3s-44.72-36.72-76.18,13.61c-12.56,54.64,30.54,179.83,32.66,201.64,1.9,19.67-19.72,16.75-19.72,16.75l1.07,11s52.19-51.18,52.75-61.23-20.72-76.94-23.14-85.94,19.67-52.53,19.67-52.53,18.7-19.34,20.57-19.9,86.08-24.59,86.08-24.59,63.71,17.94,69.54,30.29c0,0,12.91,81.79,13.95,93.46s23,12.94,23,12.94,3.44,299.63,4.72,303.07,84.44-166.93,82.82-207.14-11.69-66.35-12.43-68-99.31-230.37-99.31-230.37-32.73-72.07-36.62-75-49.07-55.66-49.07-55.66l-15.87-21.63-40.61-20.74s-184.09,130-232.29,151.88Z" transform="translate(-1052.08 -1183.73)"/><path class="cls-11" d="M2709,2685.36l290.2,213.23s-70.72-148.52-39.81-131.54,77.11,111.73,77.11,111.73,84.35-427.64,101.08-413.89,59.78,91.88,59.78,91.88-101.67-275.54-109.48-206.29S3057.34,2504,3057.34,2504l-50.13,134.48s-35.59,65-37.88,65.27-98.94,11.22-98.94,11.22l-71.95,11.66Z" transform="translate(-1052.08 -1183.73)"/><path class="cls-1" d="M2426.91,2035.86l-.79,1.18c.71,2.94,1.41,5.89,2.13,8.84,2.95,12.14,6.1,24.82,9.59,37.67a37.75,37.75,0,0,1,2.62-4.54,38.5,38.5,0,0,1,20.44-15,64.38,64.38,0,0,1-9.51-3.63c-9.85-4.7-21.46-13.78-24-25.21C2427.22,2035.4,2427.08,2035.62,2426.91,2035.86Z" transform="translate(-1052.08 -1183.73)"/><path class="cls-12" d="M1861.66,2574.44s187.06-62.11,255.34-25,179.52,143.9,179.52,143.9-34.4-99.92-4.19-90.06S2627.7,2854,2627.7,2854s-51.36-83.59-112.53-159.67c-67.08-83.4-144.55-160-145-160.77-7.5-12.43,92.16-44.64,97.19-44.87,35.23-1.62,136.8,76.89,136.8,76.89l-66.06-157.4s-191.62,17-219.1,42.87-41.06,36.42-41.06,36.42l-143.81,1s-29.84-48.77-67.41-58.06c-80.88-20-213-6.5-268.95,17.89Z" transform="translate(-1052.08 -1183.73)"/><path class="cls-2" d="M2812.61,1881.8c-30.5,25.39-62.58,49.24-96.42,70-12.51,7.67-25.82,15.45-39.77,20.19-33.89,11.51-70.55,13.73-106.09,13.85a701.34,701.34,0,0,1-76.81-3.79,59.92,59.92,0,0,0,.34,24.22c1.82,10,5.82,19.79,10.39,28.8a236.56,236.56,0,0,0,27.16,41.22c5.89,2.78,11.65,5.86,17.22,9.19a177.06,177.06,0,0,1-6.42-28.67c-1.9-13.72-2.87-32.44,9.26-42,5.71-4.52,12.87-7,19.77-9.12a277.07,277.07,0,0,1,28.42-6.68c19.78-3.77,39.74-6.44,59.5-10.33,10.22-2,20.5-4.24,30.16-8.19,27.91-12.41,52.39-32.65,75.47-52.29,28.28-24.09,55.11-49.83,82-75.42l6.57-6.25-.12,0C2840.05,1858.64,2826.4,1870.32,2812.61,1881.8Z" transform="translate(-1052.08 -1183.73)"/><path class="cls-3" d="M3028,2090.72c-5.21-11.28-12.46-25.72-22.32-37.36-6.89-8.13-10.18-9.24-11.13-9.37-.36.62-1.07,2.27-1.49,5.9-.95,8.29.11,17.3,1.4,25.8a287.86,287.86,0,0,0,8.52,38c4.24,10.23,8.34,20.19,12.29,29.77q7,17.16,14.14,34.3l6.11,14.84a209.86,209.86,0,0,0,5-20.92c2.63-14.19,3.24-26.69,1.85-38.22C3040.62,2119,3034.55,2105,3028,2090.72Z" transform="translate(-1052.08 -1183.73)"/><path class="cls-13" d="M2489.17,2072.68l66.34,172.16L2514.9,2275s38.27,115.82,64.61,141.19,56.29,56.28,56.29,56.28,48.41,101.47,60.2,111.85c4.5,4,15.24,16.73,29.44,30.92,11.52,11.49-42.5-95.91-27.9-86.47s97.76,135.68,112.45,135.2c22.39-.74,101.5-.71,151.39-57.1,11.44-12.93,11.41-131.27,19.63-169,5.26-24.14,30.77,214.24,21.89,223.51-25.84,27-184.69,78.69-210.12,70.39s-177.69-117.25-188.69-143.11S2486,2263,2486,2263l-49.18-174.27S2460,2047.37,2489.17,2072.68Z" transform="translate(-1052.08 -1183.73)"/><path d="M2877.73,2192.8a81.39,81.39,0,0,1-8.42,12.22c-6.47,7.71-14.69,13.14-22.89,18.77,14.48-3.27,27.67-10.16,37.52-21.47a65.39,65.39,0,0,0,13-22.92c2-6.16,2.49-12.23,3.12-18.62-13.07,2.42-26.11,4.76-39,8.13a316.54,316.54,0,0,0-50.95,18c-19.74,9-38.53,19.45-55.64,32.88,7.63-2.45,15.12-5.34,22.71-7.94l8.61-3c-5.38,6.5-9.09,14.32-9.69,21.81,11.2-2.62,22.13-12.59,27.55-23.9,6.95,9.93,18.37,17.09,30.79,13.68,15.66-4.3,27.74-19.37,26.23-35.4q11.29-3.2,22.68-6.16c-.31,1-.6,1.9-.89,2.78A58.24,58.24,0,0,1,2877.73,2192.8Z" transform="translate(-1052.08 -1183.73)"/><path class="cls-13" d="M1852.48,2559.33c-193.9-176.68-389.3-285.67-409.12-252.57s15.5,114.4-4.65,119c-10.55,2.42-117.7-7.71-158.84,38.27-37.48,41.91-9.24,140.37-18.28,141-19,1.27-92.36-2.51-101.32,20.31S1171,2734.92,1171,2734.92s-26.78,29.37-25.44,43.08,97,130.17,108.3,139.45-22.41,54.14-22.41,54.14L1081,2790.89s17-74,17.58-79.86,15-35.16,16-48.42,16-72.45,16-72.45,31.07-48.06,32.92-52.86,27.31-74.68,27.92-80.29,18-63.75,21.19-66.43,168.17-62.7,168.17-62.7l32.24-59.71s39.48-21.18,47.48-22S1661.25,2256.57,1852.48,2559.33Z" transform="translate(-1052.08 -1183.73)"/><path class="cls-10" d="M1227.24,2972s32.21-47.72,22.2-58.9,89.88-77.51,89.25-99.76-96.76-212.68-96.76-212.68l148.12,210.73s86-40.74,100.44-74.47-95.91-217.36-95.91-217.36l37.41-10.85s119.59,168.36,156.57,160.9,97.84-53.92,97-70.52-41.43-211.65-41.43-211.65,221.06,147.85,228.92,210.7S1854.24,2766,1854.24,2766s-33.82,63.33-38.31,64.54-36-14.17-82-20.44-163.74,73.73-173.82,76.26-72.79,69.46-75,70.44-24.66-31.77-28.63-33.14-18.9-12.22-18.9-12.22-46.66,10.72-51.16,11.93-39.31,30.78-40.61,33.23-39.3,23.07-41.59,23.28S1227.24,2972,1227.24,2972Z" transform="translate(-1052.08 -1183.73)"/><path class="cls-11" d="M3486.57,2178.33s18.21,32.71,37.5,76.49-85.28,142.88-85.28,142.88l-158.93-74.21s69.14,117.62,76.64,156.14,9,183.8,9,183.8,31.12-12.29,49-42.31c0,0-252.07,305.44-322.72,336.74s-224.12,33.64-259.9,21-227.61-217.59-205.73-217,77.4,25.22,77.4,25.22-77.88-100-245.72-187.3l168.35,254.36s-2.07,96.53-193.89,46.84c-95.12-24.64-200.55-78.93-213.85-93.57-20.69-22.77,99.85-53,99.85-53s-178.4-112.67-240.1-129.86-208.49,4.09-208.49,4.09-24.94,170.15-37,176.37-110.17,65.43-110.17,65.43l-123.66,47s186.78,161.49,286.33,164.44,265.08-51.34,323.45-32.81,96,61,137.89,40.75,67.39-30.84,67.39-30.84l142.92,92.21s84.25,63.6,93.21,64.31,116.38,13.29,136.85,10.13,179.86-25.68,183.28-26,342.59-150.11,342.59-150.11,115.49-87.48,135.2-110.19,54.68-90,54.68-90l18.75-48.89s152.06-222.55,152.54-229.52-5.41-64.63-1.72-69.35,31.78-47.87,34.89-51.64,27.08-53.43,26.52-59.15,8.88-38.95,8.88-38.95,131.64-58.4,125.39-145.84-51.42-275.48-51.42-275.48l-47.39,67.81-82.84,41.27-62.76,48.35-15.41,34.39Z" transform="translate(-1052.08 -1183.73)"/><path d="M2611.83,2283.05a33.4,33.4,0,0,0-6.92-3.05c4.82-2,9.61-4,14.29-6.23q-.75,0-1.23,0c-4-.18-7.95-.14-11.91.06-29.33,1.47-57,9.36-83.81,20.82-2.12.91-2.43.55-1.59,2.67.65,1.63,1.25,3.29,1.93,4.9,3.24,8.27,9.63,15.38,16.52,20.8,12,9.44,27.69,12.27,42.44,9-8-2.55-15.65-4.69-22.87-9.1a60,60,0,0,1-13.1-11.26A50.5,50.5,0,0,1,2540,2304s0,0,0-.08q8-2.82,15.94-5.75c5.61,11.7,16,21.68,29.94,18.4a34.55,34.55,0,0,0,24.43-21.68,53.56,53.56,0,0,0,12.78,4.13C2622.85,2292.19,2617.09,2286.54,2611.83,2283.05Z" transform="translate(-1052.08 -1183.73)"/><path class="cls-12" d="M3384.83,2223.89s-31.7,88.7,26,136.14,133.84,42.7,133.84,42.7-150.49,34.74-212.94-25.34-75.32-73.8-75.32-73.8,32.06,221.44,54.08,281.29c0,0-163-250-162-393.47,0,0-80.58,78.45-80.54,116L3040.68,2222s26.89-148.35,133.21-152.32L3226.17,2183l77.59,60.18Z" transform="translate(-1052.08 -1183.73)"/><path d="M2166.61,2518a.7.7,0,0,0-.31.2A3.28,3.28,0,0,1,2166.61,2518Z" transform="translate(-1052.08 -1183.73)"/><path class="cls-14" d="M3047.94,2642.38q.3,57,.62,114.07.14,26.28.28,52.54,1.78-21.16,3.57-42.32,4.65-55,9.28-109.94,4.8-56.78,9.59-113.53,1.53-18.21,3.07-36.44c.39-1.51.78-3,1.17-4.55-11,30.61-22.11,62.22-27.9,94.36a.76.76,0,0,0,.06-.16Q3047.82,2619.4,3047.94,2642.38Z" transform="translate(-1052.08 -1183.73)"/><path class="cls-14" d="M2963.35,2855.06c-30-42.29-65.24-80.84-103.36-116.06-10.2,1.26-20.13,3.14-29.38,7.25C2878.53,2777.67,2923.79,2813.64,2963.35,2855.06Z" transform="translate(-1052.08 -1183.73)"/><path class="cls-15" d="M3097.27,2360.17c-.07-.35-.19-.7-.27-1.07-.46-2.36-1-4.64-1.61-6.83-2.41-9-5.24-17.62-7.93-25.57-11.6-34.23-24.56-67.11-38.85-102.09l.63.29a208.27,208.27,0,0,0,15-48.76c.22-.32.46-.63.68-.95.51-36.6-5.22-70.69-18.38-104.9.14,1.37.29,2.74.44,4.11-5.6-11.54-13-25-22.91-36.68-5-5.93-18.34-21.66-35.87-17.2-6.14,1.57-13.51,5.89-17.25,17.2-.3-.7-.61-1.43-.92-2.14-2.86,29.72,2.83,59.42,10.94,88.41,4.08,9.85,8.05,19.46,11.86,28.7q7,17.17,14.14,34.33l10.41,25.27c17.67,42.9,33.4,81.7,47.13,122.18,2.56,7.56,5.24,15.72,7.46,24.05a60.7,60.7,0,0,1,1.82,8.85c0,.83-.12,1.67-.14,2.36-.12,3.14-.41,6.25-.82,9.37-1,7.79-2.63,15.53-4.32,23.2-3.47,15.81-7.73,31.46-12.18,47-10.84,38-23.14,75.62-36.18,112.92-6.51,18.59-13.29,37.11-20.61,55.4-3.55,8.9-7.26,17.77-11.5,26.38-1.24,2.43-2.44,5.51-4.23,7.73-2.66,2.58-7.92,4.52-10.89,5.95-8,3.87-16.27,7.22-24.57,10.44-17.57,6.84-35.4,13.08-53.32,19s-35.83,11.42-53.94,16.46c-12.52,3.48-25.2,6.91-38.08,8.82a1.25,1.25,0,0,1,.5,0c-1,1.21-9.45-2.63-10.6-3.11-4.06-1.7-8-3.67-11.89-5.75-8.19-4.38-16.12-9.26-24-14.27-16-10.24-31.49-21.37-46.77-32.7-29.47-21.87-58.95-44.46-86.2-69.11-1.08-1-2.27-2-3.4-3-3.53-3.78-5.94-9.49-8.46-15.53-.47-1.15-.95-2.28-1.43-3.4-14.13-32.9-26.8-67.27-39-100.51l-3.57-9.68q-7.84-21.33-15.59-42.7c-3.64-10.11-7.75-20.09-11.73-29.73-2.32-5.61-4.63-11.24-6.86-16.89-10.82-27.41-21.56-56.11-32.65-87.31-4.72-.91-8.93-3.59-14.32-4.82,3.06-1.92,7.35-2.83,11.15-4.15q-3.22-9.16-6.5-18.62c-11.36-8.34-23.27-16.29-35.16-24.39a37.94,37.94,0,0,0-9.84,6.86c-7.34,7.19-10.65,16-11.69,25,9.47,59.57,45.36,114.95,90.84,152.32,3.84,4.7,6.68,12,7.39,19.22q6.1,16.8,12.27,33.58l3.56,9.68c12.33,33.52,25.11,68.2,39.48,101.69.46,1.05.91,2.11,1.35,3.19,2.52,6,5.32,12.62,9.73,18.61A36.9,36.9,0,0,0,2602,2600c11,12.81,23.6,24.47,35.94,36,28.43,26.59,57.95,52.17,89.27,75.33,15.31,11.32,31.14,22.31,48.32,30.64,7.43,3.61,15.42,6.81,23.68,7.75a55.62,55.62,0,0,0,14.91-.76c5.35-.83,10.68-1.85,16-3l.46.31c9.25-4.11,19.18-6,29.38-7.25l-.42-.38,1.59-.43c19.39-5.23,38.58-11.09,57.62-17.43s37.88-13,56.32-20.86c12.38-5.26,25.64-10.78,35.84-19.83a.45.45,0,0,0-.18.21c3.71-3.36,6.59-8,8.88-12.37a274.71,274.71,0,0,0,12-26.69c5.81-14.71,11.05-29.63,16-44.65,5.79-32.14,16.88-63.75,27.9-94.36q6.34-24.42,11.71-49.09c4.06-18.81,7.72-37.76,9.91-56.88C3098.48,2384.41,3099.75,2371.94,3097.27,2360.17Zm-61.79-167.54-6.11-14.84q-7.08-17.14-14.14-34.3c-3.95-9.58-8.05-19.54-12.29-29.77a287.86,287.86,0,0,1-8.52-38c-1.29-8.5-2.35-17.51-1.4-25.8.42-3.63,1.13-5.28,1.49-5.9.95.13,4.24,1.24,11.13,9.37,9.86,11.64,17.11,26.08,22.32,37.36,6.59,14.3,12.66,28.32,14.38,42.77,1.39,11.53.78,24-1.85,38.22A209.86,209.86,0,0,1,3035.48,2192.63Zm-571.12,98.72c-7.07-20.39-7.3-34-.67-40.54a15.14,15.14,0,0,1,1.84-1.46c14.23,41.43,27.66,78.32,41.11,113A212.11,212.11,0,0,1,2464.36,2291.35Z" transform="translate(-1052.08 -1183.73)"/><path class="cls-10" d="M3822.5,1695.28c14.3,69,12.61,117.08-1,119.56s-28.6-84.54-28.6-84.54l-56.33-7.14s28.71,175-47.08,193.49c-12.07.6-57.37-175.11-57.37-175.11l-93.67,12s42.8,101,47.38,124.21c38.13,135.93-66.26,124.8-77.22,118.94s-97.9-200.29-97.9-200.29L3308.21,1833s74,134,74.7,147.17-42.09,35.86-52.88,31.72-87.73-72.16-87.73-72.16,65.62,152.82,85.48,167l7.9,21.73s-30.17,104.53-21.9,112.38,141.72-43.89,178.28-65.35,102.54-33.72,101.67-41.42,24.41-38.45,26.32-42.68,69.14-54.09,72.91-56.77,94.74-40.44,96.29-42.33,7.86-37.57,7.95-42.54,36.83-33.4,36.83-33.4,47.75-34.11,34.38-64.54S3808.21,1626.28,3822.5,1695.28Z" transform="translate(-1052.08 -1183.73)"/><path class="cls-14" d="M1968.47,2604.43c-35.36-20.69-77.82-17.23-90.61-16.44q-3.36.21-6.69.57a226.07,226.07,0,0,0,8.17,32.29C1893.25,2616.61,1958.05,2602.26,1968.47,2604.43Z" transform="translate(-1052.08 -1183.73)"/><path class="cls-15" d="M1646.82,2929.67c34.51-17.16,72-26.18,107.64-40.36,18.29-7.27,36-16.15,51.54-28.25a163.26,163.26,0,0,0,37.75-41.69c20.3-32.08,29.1-70.38,31-107.95s3.88-88.75,2.78-90c.44-.16,1.07-.37,1.81-.59a226.07,226.07,0,0,1-8.17-32.29,190.17,190.17,0,0,0-20.37,3.26c-1.48.33-1.24.28-1,1.79s.35,2.82.53,4.25c.82,6.67,1.35,13.39,1.8,20.11.25,3.73.45,7.47.61,11.2q-.89,16.6-2.18,33.19c-2.47,31.58-5.54,63.83-12.54,94.93-1.74,5.13-3.66,10.19-5.8,15.18a154.57,154.57,0,0,1-29.72,46,126.81,126.81,0,0,1-12.67,11.56c-12.48,5.81-25.73,10.25-38.54,14.83-37.77,13.51-75.37,27.35-110.67,46.62a406.31,406.31,0,0,0-90.24,66.5,117.56,117.56,0,0,1-23.19,3.16c-10.16.24-21.68-.82-30.19-6.92-12.18-8.74-12.75-25.53-12-39.64a161.48,161.48,0,0,0,20-15.7,105.89,105.89,0,0,0,24.91.47c21.52-2.32,41.07-14.14,57.54-27.83,14.26-11.85,27.26-26.14,35.31-43a71.38,71.38,0,0,0,6.3-20.35,451.2,451.2,0,0,0,46.73-21.19c17.73-9.31,34.9-19.86,50.61-32.31,14.78-11.69,28.62-25.29,38.11-41.7,7.38-12.77,11.3-26.86,10.1-41.63a48.72,48.72,0,0,0-1.35-7.09c-1.66-7.3-3.32-14.59-5.46-21.77s-4.26-14.11-6.79-21a247.16,247.16,0,0,0-13.06-30.32q-1.8-7.17-3.84-14.26a42.91,42.91,0,0,0,19.42-11.79c4.3-4.72,6.7-10.63,9.4-16.33,1.34-2.85,2.89-5.58,4.44-8.32.65-1.15-3.83-3.93-4.69-4.45-12.11-7.38-28.19-1.79-37.4,7.56-.53.52-1,1.09-1.52,1.66a574.53,574.53,0,0,0-35.92-79.24,508.49,508.49,0,0,0-29.07-47.22c-4.55-6.54-9.29-13-14.26-19.18-2.42-3-4.9-6-7.46-8.94-.19-.21-2.63-3.26-2.87-3.16-.63.29,2.42,12.61,2.59,13.41,1.53,7.05,3.29,14.05,5.17,21,4,14.88,8.61,29.6,13.59,44.19,12.83,37.59,28.18,74.34,44.61,110.47,8,17.59,16.25,35,24.48,52.49,3.26,6.93,6.67,13.92,9.67,21.07.18,4.39.31,8.77.42,13.11.11,3.69.53,7.66-.19,11.28-1.56,7.75-5.57,14.54-10.63,20.55-12.15,14.45-28.63,25.26-44.69,34.88a565.19,565.19,0,0,1-69.39,35c-3.21-6.27-6.77-12.39-10.28-18.44-10-17.22-20.7-34-31.63-50.65q-28.55-43.45-59.38-85.42c-16.27-22.12-32.71-44.08-49.66-65.69q-17.3-22.07-35.21-43.65c-.2-.26-1.44-2.05-1.73-1.9l-2.57,1.31c-3.77,1.93-7.55,3.88-11.31,5.83q-13.11,6.8-26,13.91c12.12-2.83,24.18-5.92,36.21-9.12q20.82,39.77,42.59,79c15.67,28.41,31.63,56.65,47.53,84.93,17.27,43,38.68,84.22,64.76,122.43-.11,6.27-4,12.29-7.49,17.22a100.54,100.54,0,0,1-17.87,18.82,117.35,117.35,0,0,1-20.93,14,38.2,38.2,0,0,1-9.07,3.62c-8.57,1.92-18.15.4-26.63-1.28a158.57,158.57,0,0,1-27.17-8.08,200,200,0,0,1-51.3-29.29c-6.27-5-11.63-11.15-16.82-17.17q-8.79-10.32-17.16-21c-11.71-14.84-23-30-34.21-45.24s-22.53-30.64-33.78-46c-13.4-18.26-26.79-36.56-40.54-54.57-6-7.92-12.12-15.82-18.45-23.49a99.05,99.05,0,0,0-8.25-9.34c-1.6-1.51-3.56-2.54-5.66-1.25s-4,4.28-5.75,6.21c-4.45,5-8.75,10.08-13,15.22,6.57-4.63,13.18-9.21,19.78-13.81.65,1.08,1.43,2.16,2,3.13,1.39,2.48,2.66,5,3.95,7.56,2.08,4.1,4.18,8.21,6.23,12.32,18.27,36.55,37,72.88,57.08,108.46,9.87,17.47,20,34.79,30.81,51.74,10.5,16.51,21.3,32.94,33.88,48,12,14.14,27,26.06,42.82,35.64a242.51,242.51,0,0,0,34.72,17.64c-7.17,8.87-16.13,15.92-25.89,21.72-.26.16-.53.28-.79.43l-1.09,0,0,.59a92.1,92.1,0,0,1-17.66,7.36c-26.85-3.82-53.17-14-77.43-25a396.24,396.24,0,0,1-45-23.77c-10.79-6.66-19-15.51-26.68-25.58-23.56-30.88-42.72-65.12-63.91-97.61-4.75-7.29-9.38-14.77-14.59-21.73-2.91-3.9-6-6.68-11-7.43-7.79-1.18-16.23,2-23.27,5a112.41,112.41,0,0,0-18,9.44c5.24.34,10.47.67,15.7,1.07,3.8.3,7.6.62,11.37,1.2.91.15,3.46.37,5.63.88.87,2.75,1.23,5.79,1.92,8.58,1.09,4.47,2.21,8.93,3.42,13.37,2.29,8.38,4.74,16.73,7.49,25a421.78,421.78,0,0,0,19.65,49c7.59,15.86,16.3,31.34,26.79,45.49,9.28,12.51,20.1,24.13,33.6,32.1a230.32,230.32,0,0,0,84,29.27l1.5.21a70.38,70.38,0,0,1-6.43,7.86c-8.74,9.22-20.34,15.74-32.2,20-3.13,1.14-6.33,2.15-9.57,3-21,1.68-42.45-1-62.6-6.34a21.19,21.19,0,0,1-6.14-2.17,48.78,48.78,0,0,1-4.88-3.69c-3.39-2.84-6.6-5.92-9.74-9.06-6.74-6.77-13.08-13.93-19.33-21.15-12.64-14.65-24.69-29.8-36.44-45.17-12.06-15.76-23.81-31.76-35.07-48.1-5.69-8.25-11.29-16.57-16.6-25.07-2.66-4.29-5.26-8.62-7.69-13-1.53-2.8-2.68-5.74-4-8.62.92-14.92-2.43-30.61,4.28-44.49,6.15-10.46,16.49-17.86,22.84-28.25,7.33-12,6-26.54,7-40.08,1.53-21.53,2.35-43.54,6.18-64.82,1.41-2.23,4.11-4.45,5.75-6.13,2.93-3,6-5.93,9-8.8,5.9-5.55,12-10.91,18-16.35,10.48-9.48,22.45-19.14,29.86-31.36,5.89-9.7,8.91-20.85,10.25-32.05,2.19-18.51.23-37.21,1.58-55.78.6-8.35,1.79-16.82,4.9-24.63a54.05,54.05,0,0,1,6.81-11.62c10.59-12.69,28.57-17.05,44-20.39,36.27-7.82,76.29-10.18,106.13-34.81a73.64,73.64,0,0,0,18-21.41c4.42-8.12,6.86-17,8.8-25.95,1.65-7.67,3.06-15.7,8-22.08a47.34,47.34,0,0,1,9.08-8.69c8.92-6.63,21-9.24,31.71-11,18.54-3,37.64-3,56.31-1.09,18.29,1.84,36.56,5.48,53.84,11.8a123.33,123.33,0,0,1,24.23,11.64c7.84,5,14.8,11.48,22,17.38q22.64,18.66,45.34,37.27c28.21,23.08,56.78,45.78,86.3,67.18q4.89,3.55,9.85,7.09,18.9,21.33,37.36,43.07c-.8.85-1,1.36.63,1.4.19,0,.38,0,.57,0,1.64,1.93,3.3,3.85,4.93,5.78,12.13,14.37,24.1,28.85,36.19,43.25q8.38,10,16.85,19.95,4,4.7,8.05,9.35c.19.2,2.83,3.54,3,3.44s-.32-4.31-.35-4.63c-.42-3.85-1-7.68-1.79-11.5a197,197,0,0,0-6.24-23.66,266.34,266.34,0,0,0-18.45-42.88c1.27-.09,2.54-.22,3.81-.33a407.61,407.61,0,0,1-49.69-66.91c-.72-.13-1.44-.25-2.16-.39,0,.43,0,.87.08,1.3a285.35,285.35,0,0,0-30.61-27.91,262.9,262.9,0,0,0-48.18-30.42,217.79,217.79,0,0,0-25-10.2c-1-.35-2-.63-3.08-1-18.57-18.61-37.08-37.29-56-55.52-23.16-22.27-56.47-33.15-87.35-39.22a287.4,287.4,0,0,0-56.21-5.49c-18.18.06-36.7,1.81-54.15,7.16a90.86,90.86,0,0,0-36,20.32c-10.67,10-17.69,22.61-21.62,36.64-2.21,7.9-3.15,16.9-7.54,24-4.54,7.31-12.75,12.13-20.48,15.42-17.21,7.3-36.46,9.15-54.81,11.67-33.92,4.64-72.37,10.94-95.18,39.35-13.3,16.58-20.81,37.05-23.23,58.45-1.45,12.92-1.39,25.9-1.58,38.86a169.19,169.19,0,0,1-1.12,20.13,40.72,40.72,0,0,1-1.62,7.48c-.19.57-1.36,3-.9,2.2l-.35.58a2.39,2.39,0,0,1,.21-.34c-2.13,3.16-5.2,5.89-7.89,8.55-3.78,3.74-7.67,7.38-11.56,11-13.48,12.63-28,25.07-38.88,40.11a60.39,60.39,0,0,0-6.23,10.5,38.82,38.82,0,0,0-2,5.62c-.21.75-.26,2.67-.74,3.27s-.47,3-.59,3.95c-.2,1.64-.4,3.3-.58,4.95-1.88,16.88-2,34.15-2.31,51.14-.17,9.81-.22,19.63-.23,29.45,0,1.44.07,2.93.11,4.41-8.88,10.85-18.7,21.64-24.28,34.65-7.22,16.85-6.39,35.45-5.53,53.34.23,4.79-.47,9.56.52,14.32,1.7,7.72,5.75,14.7,9.91,21.32,10.41,16.36,22.48,31.67,34.76,46.64,24.46,29.77,50.52,58.51,78.56,85,6.92,6.53,14,12.9,21.41,18.9,6.87,5.57,14.13,11.24,22.29,14.8s18.28,4.15,27.05,5.09a210.19,210.19,0,0,0,25.95,1.18c14.47,2.91,29.46,4.17,44.08,2.57,18.78-2.06,37.19-7.71,52.88-18.48,12.85-8.82,23-19.72,32.27-32.11l-1.41-.75q4.57-.8,9.06-1.93a124,124,0,0,0,24.59-.79c3.1,18.68,10,36.44,24.2,50,27.24,26,69.52,24.6,103,13.07,3.38-1.15,6.73-2.41,10.09-3.65,1.25-.46,2.36-2.49,3.23-3.49q4.53-5.27,9.27-10.32,12.18-13,25.63-24.76l3,2.33c9.64-11.48,22.27-20.43,36.65-24.77Zm-478.71-196.2a2.47,2.47,0,0,1-.24-.29c1.58.4,2.9.94,3.11,1.74S1168.15,2733.53,1168.11,2733.47Zm-85.69-39.93c0-.29,0-.58,0-.88,0-.06,0-.12,0-.2C1082.44,2692.83,1082.44,2693.19,1082.42,2693.54Zm12.54,95.33c0-.32.06-.65.1-1a1.93,1.93,0,0,0,0,.24,2.09,2.09,0,0,1,0-.35C1095.05,2788.15,1095,2788.51,1095,2788.87Z" transform="translate(-1052.08 -1183.73)"/><path class="cls-14" d="M3890.47,2169c-3-22.14-8.29-44-14.69-65.49a448.29,448.29,0,0,0-25.67-104.13,350.75,350.75,0,0,0-24.58-51.77,1.36,1.36,0,0,1-.12-.17c.25-.17.47-.35.71-.51-7.75,3.65-15,7.07-19.84,13.42q3.07,14.55,6.32,29,12.55,56.8,29.07,112.71c4.6,15.68,9.44,31.33,14.9,46.75,1.19,9.16,2.1,18.36,2.52,27.57.38,9,.45,18.35-1.34,27.22a66.13,66.13,0,0,1-6.26,16.74c-8.54,16.64-21.38,30.64-34.73,43.52-14.2,13.68-29.58,26-44.79,38.48-1,.87-2.12,1.74-3.19,2.61-17.36,10.1-34.79,20.1-52.71,29.14-64.42,33.14-131.38,61.09-200.89,81.71,10.63,3,22.06,3.93,33.06,4.39a259.35,259.35,0,0,0,44.48-1.94,354.79,354.79,0,0,0,90.92-24.53,391.45,391.45,0,0,0,35.58-17.11c0,.11,0,.21,0,.32-.26,8.56.27,17.14-1.05,25.64a68.27,68.27,0,0,1-9.36,24.65,151.1,151.1,0,0,1-16.71,22.15c-3.3,3.72-6.74,7.34-10.27,10.86-1.76,1.73-3.77,3.15-4.81,5.39-.07.16-.14.32-.22.48-1,1-1.95,1.94-2.95,2.9-28,27.38-56.85,53.89-88.44,77.14-26.09,19.18-53.71,37.42-83.2,51.07-2.84-18.89-6.14-37.7-10.08-56.39,1.26,17.7,2.14,35.41,2.83,53.15,1.39,35.68,1.93,71.39.9,107.09-1.1,37.08-3.34,74.55-10.51,111-6.75,34.35-18.75,67.79-36.92,97.79-19.46,32.12-45.29,59.71-74.53,83.16-61.87,49.64-136.39,81.83-209.7,110.53-75,29.38-152.05,54.55-230.42,73.33-38.86,9.31-78.13,17.18-117.8,22.08-37.44,4.61-75.73,7.34-113.31,2.57a178.84,178.84,0,0,1-19.33-3.6c29.46-13.27,39-37.22,39-37.22-36.51,17.18-68.39,19.84-92.32,17.68-10.12-4.75-20.09-9.87-29.93-15-20-10.46-39.68-21.66-59.08-33.23,51.59,11.82,88.3-17.46,102-31.07,39.09,80.73,114.18,57.66,114.18,57.66-46.71,8.55-80.18-67.46-80.18-67.46,20.09,2,43.57-4.76,43.57-4.76-41.46-5-69.64-36.65-102.58-84.34h0c11.86-2.48,23.62-5.3,35.23-8.59-58-.46-116,.11-173.93-1.14-39.44-.86-79-2.48-118.15-7.57-2.94-.39-5.89-.81-8.83-1.24l-1.88-1.82-1.13,1.36c-14.83-2.29-29.61-5.37-43.79-10.18-14.3-5.14-27.8-12.27-41.23-19.38-34.34-18.18-67.1-39.44-99.41-61-24.52-16.35-48.81-33.05-73.2-49.61,19,25.49,41.41,48.62,64.73,70.1,26.76,24.64,55.44,47.27,86.32,66.53,11.8,7.36,24,14.54,36.64,20.38a201.82,201.82,0,0,0,41.38,13.54l2.89.6-1.29,1.53c16.85,11.67,33.71,23.36,50.9,34.51.18.14.37.25.55.37-21.36,20.4-61.47,29.45-70.29,26.31a172.36,172.36,0,0,1-26.4-11.9,114.08,114.08,0,0,1-11.17-7c-.41-.3-2.93-2.66-3.43-2.6.29,0,.59-.18.89-.19-21.33-8.06-42.9-15.14-65.37-19.22-38.48-7-77.1-5.31-115.51,1.18-31.71,5.46-63.08,12.87-95,17.4a630,630,0,0,1-81.16,6.34c-10,.29-20.11-.33-30.13-.72-8.07-.32-16.2-3-23.83-5.42-1.83-.59-3.63-1.2-5.44-1.82l.51-1.26c-77.44-32-157.39-87.77-197.89-117.91-14.38,4.34-27,13.29-36.65,24.77,36.7,28.12,127.7,94.19,218.57,131.78l.49-1.21c11.45,4.92,23.26,9.14,35.41,11.29a252.33,252.33,0,0,0,26.45,2.82,343,343,0,0,0,56.7-.75c24.43-2.36,48.37-7.54,72.08-13.82,38.05-10.06,75.68-22.38,115.13-25.66,38-3.15,75.53,2.83,111.88,13.92a127.23,127.23,0,0,0,20.77,10.26,192.31,192.31,0,0,0,120.57,7.56c8.4-2.16,28.18-9.67,33.11-11.64q24.33,15.4,49.08,30.11,29.91,22.84,60.8,44.36c31.45,21.79,64,42.64,98.4,59.4,13.55,6.58,27.52,12.78,42.09,16.78a246.7,246.7,0,0,0,31.84,6.46c38.55,5.3,77.8,4.13,116.42.31,79.45-7.84,157.83-26.81,233.91-50.57q58.15-18.16,114.89-40.5c37.74-14.8,75.07-30.93,111.09-49.53,68.26-35.29,134.17-80.38,177.94-144.8a303.08,303.08,0,0,0,41.43-90.47h0c173.05-140.3,201.28-332.61,205.44-376.2,18.37-16.88,35.38-36.28,44.34-59.79,4.86-12.72,6.43-26,6.56-39.53,0-8-.2-15.59,4-22.52,5.44-7.58,13.08-13.8,20.09-19.85,29.43-25.33,60.71-49.2,84-80.69,10.11-13.69,18.94-29.07,23.08-45.7C3893.65,2202.14,3892.73,2185.43,3890.47,2169Zm-1397.88,849q31.54-2.49,62.88-7l11.36-1.68h0c14.13,59.34,59,80.51,71.36,85.3C2552.79,3106.76,2507.45,3043.9,2492.59,3017.94ZM3514.79,2785c0-1.64,0-45.44,0-47.08a1001.68,1001.68,0,0,0-8-107.1q-2-15.8-4.31-31.55c14.55,1.71,30.08-1,44.06-4.3a201.69,201.69,0,0,0,19.64-5.8c-7,40.44-24.42,69.09-22.78,68.11,76.2-45.64,103.86-97.09,113.64-124.34.86-.79,1.7-1.59,2.54-2.38C3634,2647,3545.65,2752.87,3514.79,2785Z" transform="translate(-1052.08 -1183.73)"/><path class="cls-14" d="M3215,2191.53c-.64,18.68,1.43,36.93,4.3,55.35,8,37.43,23,74.77,48.94,103.6a229.91,229.91,0,0,0,43,37.61c15.65,10.57,33.36,18.34,51.39,23.78a200.36,200.36,0,0,0,54.84,8.48c10.47,26,19.24,52.53,23.05,80.42,3.74,27.21,5.49,56.13-.36,83.2,5.62-11.92,9.37-24.87,12.42-37.67a298.68,298.68,0,0,0,7.5-49.7,342.49,342.49,0,0,0-.28-50.95c-.8-9.75-2.13-19.4-3.62-29,3.07-.73,6.1-1.56,9.07-2.57-3.29-.76-6.58-1.6-9.87-2.45-.23-1.49-.47-3-.71-4.48-2.48.74-4.95,1.5-7.43,2.25-49.11-13.93-96.3-37.78-132.65-73.71-27.17-26.84-46.06-59.65-61.67-94.2-6.82-15.12-12.59-30.79-17.88-46.54-6-8-12.2-15.73-18.62-23.4Q3215.35,2181.48,3215,2191.53Z" transform="translate(-1052.08 -1183.73)"/><path class="cls-14" d="M3174.71,2081.89c-7.06-12.46-13.1-24.09-17.18-36.74a101.25,101.25,0,0,0-16.21,6.42,123.25,123.25,0,0,0-33.14,25c0-.35,0-.69.06-1-17.49,20.2-33.15,42.7-44.57,67.22a300,300,0,0,1,1.28,32.47,364.41,364.41,0,0,1,29.54-37.46c12.91-14.3,27.42-27.5,44.38-36.8a71.07,71.07,0,0,1,23.73-8.06,37.2,37.2,0,0,1,11.26.17C3174.63,2089.27,3176.29,2085.42,3174.71,2081.89Zm-107.65,57.21a1.63,1.63,0,0,0,0-.31.57.57,0,0,0,.18,0C3067.17,2138.87,3067.12,2139,3067.06,2139.1Z" transform="translate(-1052.08 -1183.73)"/><path class="cls-14" d="M2382.64,2405.73a196.5,196.5,0,0,0-46.06,15.57,387,387,0,0,0-48.87,28.11c-10.64,7.18-21.39,14.68-31.35,22.94q-8.54-1.82-17.15-3.21a282.17,282.17,0,0,0-52.89-3.6,185.06,185.06,0,0,0-25.2,2.36c-6.21,1-12.33,2.42-17.77,5.55a247.42,247.42,0,0,0-48.73-31.28,316.5,316.5,0,0,0-97.51-28.61c-38.53-4.92-77.37-4.35-116.12-3.82-18.52.26-37.08.51-55.59-.4a322,322,0,0,1-45.19-5.71,407.61,407.61,0,0,0,49.69,66.91c12.59-1.09,25.14-2.62,37.65-4.31,39.25-5.3,78.4-11.95,118.08-12.87,34.42-.79,69.11,3.43,101.57,15.25,29.66,10.81,57.21,27.81,81.08,48.6a6.76,6.76,0,0,0-1.67.76c.5-.22,1.39-.49,1.63-.6a.57.57,0,0,0,.13-.08q6.63,5.77,12.87,11.9a430.57,430.57,0,0,1,37.25,41.91c7.83,10,15.08,20.45,22.39,30.86-7-13.28-14.08-26.39-21.73-39.28a367.68,367.68,0,0,0-34.84-48.57c6-.87,12-1.42,18-1.74A260.48,260.48,0,0,1,2246,2514c30.23,3.57,59.72,11.74,88,22.77,22.7,10.59,42.12,26.3,60.62,43,24.61,22.28,47.5,46.47,69.65,71.16,52.2,58.2,100.68,119.71,147.7,182.13,29.32,38.93,58.25,78.24,86,118.31-21.51-35.58-43.94-70.63-66.67-105.44-42.07-64.45-85.57-128.1-132.4-189.21-12.46-16.26-25.16-32.38-38.27-48.14q23,12.3,45.67,25.33c64.36,37,127.9,78.23,179.51,132.08-32-39.64-70-73.57-110.14-104.84a1461.39,1461.39,0,0,0-172.11-115.15c-17-16.52-35.39-31.8-56.57-42q-16.57-8-33.79-14.66a366.26,366.26,0,0,1,28.78-26.23,228.31,228.31,0,0,1,41.34-26.72c17-8.6,36.18-13,54.75-16.5a297.33,297.33,0,0,1,42.23-4.66c-29.11-8.06-60-10.43-90.41-10.86C2387.54,2404.81,2385.09,2405.24,2382.64,2405.73Z" transform="translate(-1052.08 -1183.73)"/><path class="cls-14" d="M3211.28,2393.14c13.26,36.58,29,72.18,46.24,107.07,14.61,29.1,30.11,57.9,48,85.16-17.61-61.09-39.75-120.92-60.65-180.93-13-37.41-24.51-75.37-36.15-113.24-5.52-18-11.09-36.06-16.06-54.24-4.4-16.17-8.36-32.42-12.49-48.65-5.78,32.68-3,66.12,2.33,98.66C3188.68,2323.14,3198.77,2358.68,3211.28,2393.14Z" transform="translate(-1052.08 -1183.73)"/><path class="cls-13" d="M2613.17,2207.26s-4.75,11.69,3.1,31.63c19.18,48.64,65.88,134.74,67.49,153.75,2.27,26.8,44.2,18.39,44.2,18.39s-43.86-99.64-47.14-103.71S2613.17,2207.26,2613.17,2207.26Z" transform="translate(-1052.08 -1183.73)"/><path class="cls-15" d="M2779.24,2386.39c7.19-12.38,13.73-25.09,19.83-38,1-2.06.34-2-1.35-3.59a90.72,90.72,0,0,0-9.53-7.74c-4.92-3.49-11.12-7.58-17.42-6.6,4.19,1.08,7,4,9.74,7.21a96.23,96.23,0,0,1,7.49,9.84c-10.72,13-21,26.38-32.4,38.75,3.46-4,.15-.18.29-.34-6,3.8-13.19,6-20.23,7.54a18.2,18.2,0,0,1-3.68-2.73,12.85,12.85,0,0,1-2.64-3.95c-1.39-3.3-2.77-6.59-4.14-9.9-8.15-19.46-16.87-38.73-26.86-57.31-5.93-11-14.18-20.6-22.28-30.06-13-15.16-26.9-30-42.06-43.06.94,1.93,1.68,3.39,2.25,4.47,12.7,25.4,28.11,49.3,41.55,74.3-.33-.63.55,1.39.69,1.72,1.15,2.83,2.31,5.67,3.48,8.49,2.34,5.6,4.54,11.23,6.85,16.84,3.23,7.9,6.45,15.8,9.75,23.67,2.48,5.91,5,11.77,7.58,17.63,0,.07.07.13.09.2a54.16,54.16,0,0,1-16.75-5.63c-1.84-6.09-3.68-12.16-5.53-18.25q-.3,7.2-.59,14.38c-.08,2.11-.17,4.23-.26,6.34-.1,2.65,4.21,5.85,6,7.44,12.51,11.33,28.67,16.59,44.93,19.56v-.34a11.07,11.07,0,0,0,2.4-.48c8.49-2.22,17.06-5.24,24.62-9.73C2769.57,2402,2774.4,2394.73,2779.24,2386.39Z" transform="translate(-1052.08 -1183.73)"/><path class="cls-13" d="M2719.11,2161.75,2723,2183s86.32-14,114.11-48.43C2837.06,2134.6,2727.41,2158.07,2719.11,2161.75Z" transform="translate(-1052.08 -1183.73)"/><path class="cls-10" d="M2631,2216s10,19.68,10.83,27.4-7.2,28.6-30.38,23.65C2596.89,2264,2631,2216,2631,2216Z" transform="translate(-1052.08 -1183.73)"/><path class="cls-13" d="M2636.94,2203.05l-12,22.73-18.53,21.54-80.63,14.73s55.28-42.11,88-58.69C2621.39,2199.49,2633.58,2204.31,2636.94,2203.05Z" transform="translate(-1052.08 -1183.73)"/><path d="M2504.25,2279a13.58,13.58,0,0,0,1.8,0,13.58,13.58,0,0,1-1.8,0c22.6,4.74,46.71,2.35,68.94-2.9a214.48,214.48,0,0,0,40.16-13.32c.74-.34,1.15-3.28,1.37-4q2-6.39,3.94-12.77l6.25-20.2c-5.1,3.85-11.59,6.19-17.44,8.57-9.48,3.84-19.11,7.27-28.78,10.59-26.52,9.13-53.33,17.45-80.23,25.38-.08-.21-.15-.41-.22-.62-3.8,1.32-8.09,2.23-11.15,4.15,5.39,1.23,9.6,3.91,14.32,4.82l-.12-.36C2502.27,2278.55,2503.26,2278.75,2504.25,2279Z" transform="translate(-1052.08 -1183.73)"/><path d="M2765.35,2203.55q7.89-3.6,15.71-7.41c38.63-18.73,77.55-39.53,110.93-66.77,12.11-9.87,24.54-21.17,31.84-35.23q-35.79,17-71.81,33.57c-37.2,17.13-74.45,34.59-112.67,49.37a166.32,166.32,0,0,1-17.88,6.18q19.29,10.78,38.61,21.57C2761.91,2205.85,2763.49,2204.4,2765.35,2203.55Z" transform="translate(-1052.08 -1183.73)"/><path class="cls-13" d="M2804.35,2468.65s122.49-18.15,142.93-41.32,38.55-85.72,41.49-91,8.53-31.93,8.53-31.93l-32.21,21.94s-1.15,35.42-14.77,53.53-60,55-60,55Z" transform="translate(-1052.08 -1183.73)"/><path class="cls-15" d="M2896.54,2435.73c13.54-6.33,27.76-13.18,38.11-24.25,12.16-13,19.21-30.17,24.61-46.9a196.65,196.65,0,0,0,8.2-36.33c1.74-.88,3.47-1.78,5.12-2.71,9.2-5.17,18.79-12.29,24.72-21.15-11.66-2.85-24.11.84-34.37,6.37-9.85,5.15-20.18,14.77-23.67,25.6,8.15-.15,16.3-2.65,23.89-6.06-10.5,26-22.2,52.71-42.38,72.27,0,0-.49.38-.61.46-.83.64-1.65,1.27-2.52,1.84-3.13,2.08-6.38,4-9.7,5.76-8.15,4.32-16.53,8.16-25,11.94-16.18,7.29-32.63,14-49,20.86-28.13,11.77-56.36,23.48-83.68,37.05,31-4.93,61.55-13.41,91.32-23.3A511.33,511.33,0,0,0,2896.54,2435.73Z" transform="translate(-1052.08 -1183.73)"/><path class="cls-13" d="M3817.12,1687.34c-2.3.23-45.41-47.11-70.35-34.67s-103.94-.59-146.85,1.3-129.36-16.58-179.88,17.6-55.89,81.65-126,73.12S3249,1968.41,3249,1968.41l87.51,135.93s-4.47,146.37-21.55,144.81-81.74-80.43-89.74-91.31-57.09-111.48-58.81-121.32-7.43-240.9-7.19-246.31,25.92-73.33,27.22-75.77,39.23-39.35,41.71-37.61,73.31-13.66,73.31-13.66,29.47-60.59,115.82-66.74,135.53,1,137.95,2.1S3705,1619.05,3705,1619.05s40.72-16.29,50.16-14.14,42.62,26.61,45.13,28.67S3817.12,1687.34,3817.12,1687.34Z" transform="translate(-1052.08 -1183.73)"/><path class="cls-16" d="M3108.24,2075.5q.8-18.73,1.59-37.48,2.53-59.36,5.08-118.7,2.33-54.15,4.64-108.33,1-23.68,2-47.35l-1.17,8.72q-5.25,38.92-10.49,77.85Q3102,1909.09,3094,1968q-7.22,53.73-14.48,107.46c-.87,6.52-1.76,13-2.63,19.56q-8.48-46-17-91.95-11-59.67-22-119.34-9.3-50.54-18.62-101.07-3.95-21.3-7.85-42.61l3.84,36.19q5.24,49.26,10.46,98.53,6.4,60.33,12.82,120.68,4,37.44,8,74.89a270.94,270.94,0,0,1,17.1,72.43C3075.09,2118.2,3090.75,2095.7,3108.24,2075.5Z" transform="translate(-1052.08 -1183.73)"/><path class="cls-17" d="M3278.8,1206.9l-27.19,75.45q-14.34,39.7-28.62,79.39-13,36.1-25.92,72.26c-6.48,2.1-12.88,4.34-19.27,6.68q-19.17,7-37.81,15.52c-9.1,4.13-18.12,8.55-26.94,13.29-4.92,2.65-10.09,5.06-14.77,8.13-10.27,6.76-18.64,15.34-26.11,25.13-18.9,24.81-32.64,53.61-45,82.11-13.08,30.28-24.66,61.34-34.71,92.79a618.3,618.3,0,0,0-72.26-24.2c-35.24-9.59-71.64-16.21-108.22-16.8-38.06-.63-77.51,5.69-110.08,26.49a135.16,135.16,0,0,0-29.9,26c-5.05,5.93-9.85,12.13-14.72,18.2-21.81,27.18-46.2,52.38-70.9,76.94-38.7,38.46-79.44,75-120.68,110.71q-45.69,39.6-92.74,77.62-11.75,9.47-23.62,18.79c-4.5,3.53-8.87,7.36-14.21,9.6-8.66,3.62-18.48,4.18-27.75,4.2-10,0-19.91-.86-29.82-1.73-36.77-3.26-74.91-8.3-110.29,5.21-16.15,6.17-30.43,17.75-43.64,28.66q-8.5,7-16.79,14.32l-.35.27c-26.22,21.14-126.91,92.94-169.11,128.41-75.9-23.81-149.81-53.41-222.49-85.66-30.75-13.64-61.37-27.58-91.42-42.71L1583,2031.55q8,9.85,16,19.73a1603.53,1603.53,0,0,0,131.17,143.27c28.65,27.67,58.45,54.27,89.9,78.73,30.26,23.54,62.15,45.45,96.93,61.78,25.69,12.06,53,20.88,81.44,23.23,30.24,2.52,60.42,5.68,90.6,8.91q39.22,4.18,78.41,8.77,44,5.22,88,10.54,43.39,5.29,86.81,10.65,26.51,3.26,53.05,6.42c-1.78.25-3.55.54-5.32.83,30.44.43,61.3,2.8,90.41,10.86,1.43-.06,2.87-.16,4.3-.2,16.15,3.63,32.09,8.24,47.89,13.17.22.61.45,1.23.68,1.85-.71-7.23-3.55-14.52-7.39-19.22-45.48-37.37-81.37-92.75-90.84-152.32a62.12,62.12,0,0,0-.39,6.66c-.85-1.42-1.71-2.83-2.57-4.25l-62.81-103.62-53.76-88.71q-11.4-18.81-22.79-37.61,6.86,13.79,13.7,27.55l42.89,86.25,54,108.5q20.17,40.54,40.34,81.12l-67.2-36.05q-53.22-28.53-106.45-57.09l-102.78-55.11-77.51-41.57q-15.32-8.2-30.63-16.42l3.69,2.26,47.35,29.13,85.57,52.63,102.88,63.28,78,47.95q-47.3-23-95.85-43.18c-37-15.36-74.84-29.18-113.18-40.94-30.87-9.48-62.1-17.13-93.69-23.77q-45.12-9.45-89.54-21.51,10-11.65,20.34-23c30.25-33.16,61.89-65.17,94.18-96.45q4.68-3.89,9.4-7.72c10.3-8.35,20.72-16.61,31.63-24.16,6.83-4.74,14.54-9.42,21.17-13.63,10.2-6.48,23.75-9.16,35.55-10.47,15.63-1.73,31.46-.7,47.05,1s31.36,4.2,47.09,5.78c14.41,1.46,29.26,2.38,43.52-.68,16.09-3.45,28.14-14,41-23.65,16.25-12.21,32.29-24.66,48.29-37.19,30.93-24.21,61.51-48.92,91.37-74.43,31.91-27.27,63.59-55,93.67-84.23,24.44-23.76,48.95-47.94,70.59-74.32q8.79-10.68,17.58-21.36c8.94-10.85,21.29-19.34,33.85-25.36,34.46-16.46,74.9-16.84,112.1-12.54,59.34,6.87,116.3,26.36,170.48,50.85,4.82-16.23,9.69-32.44,15-48.52,12.37-37.48,26.27-74.66,43.73-110.1a337.35,337.35,0,0,1,18.5-33.19,129.93,129.93,0,0,1,16.58-21.1A36.58,36.58,0,0,1,3115,1503c19.28-10.78,38.81-21,59.17-29.56q7.74-3.24,15.55-6.28-6.22,35.09-12.44,70.16l-20.67,116.42q-5.15,29.1-10.32,58.19,1.07-3.71,2.14-7.43l24.54-85.32q16.34-56.82,32.69-113.63,8.18-28.4,16.33-56.8h0q6.93-20.79,13.82-41.57,10.59-31.77,21-63.6,2-6.16,4.07-12.32c-2.41,38.5-6.55,76.92-11.36,115.11-4.15,33-9.09,66.09-15.52,98.76q-7.68,39-16.19,77.8c-3.78,17.16-8.13,34.21-12.7,51.2a23.5,23.5,0,0,0,4.25-2.84q5.61-16.74,11-33.6c7.8-24.7,14.43-49.81,20.74-74.93,8.34-33.24,15.24-66.76,21.81-100.39,3.43-17.54,6.13-35.29,8.7-53,5.76-39.57,10.37-79.31,13-119.22,2.33-35.39,2.09-71,2.58-106.4Q3283,1195.31,3278.8,1206.9Z" transform="translate(-1052.08 -1183.73)"/><path class="cls-18" d="M2470.89,2189.33c-10.28-31.11-18.15-55.74-25.14-78.62h0c-.65-2.07-1.27-4.14-1.9-6.21-.1-.32-.2-.66-.31-1h0c-1.39-4.65-2.72-9.3-4-13.92,4.22-7,9.94-12.87,18.41-15.71,13.56-4.1,27.85-.06,40.61,4.93,14.33,5.6,27.78,13.72,40.34,22.52,2.78,1.95,5.51,4,8.19,6.06,1.58,1.23,2.64.59,4.61.2,6.27-1.22,12.54-2.32,18.75-3.82a266.81,266.81,0,0,0,36.42-11.38,433.13,433.13,0,0,0,44.69-19.92c51-26.62,98.56-59.64,142.5-96.75,14.39-12.17,28.56-24.62,42.07-37.76,1.09-1.06,2.16-2.17,3.22-3.31,1.37.62,2.71,1.27,4.06,1.94a112.75,112.75,0,0,1,20.2,12.54,58,58,0,0,1,13.4,15.59q7.36,12.09,14.71,24.14c10.22,16.75,21,33.18,30.88,50.12a293.66,293.66,0,0,0,33.45,46.8q7.72,8.73,16.11,16.87,4.53,10.86,8.87,21.35c-8.11-29-13.8-58.69-10.94-88.41-6.24-14.55-12.63-29.28-19.15-44.07l.14-.06-2.92-6.72c-24.74-56.44-46.35-102.41-68-144.66-1.59-3.1-3.18-6.2-4.82-9.28-3.57-6.74-10.84-7.27-13.21-7.45h-.19c-14.4-2.34-30-4.08-47.69-5.33-69.56-4.87-133.13,1-189,17.42-42.09,12.4-83.3,37.57-125.24,76.52-1.2.45-2.4.88-3.6,1.37l.65,1.39c-7.38,7-14.8,14.31-22.24,22.14-24.6,25.86-44.16,50.06-59.83,74a109.31,109.31,0,0,0-7.19,10.14c-.26.41-.56.84-.86,1.3-2.38,3.48-6.78,10-4.89,18q1.32,5.67,2.7,11.33c4.58,18.85,9.64,39,15.76,59.25,7.59,25.07,16.05,51.63,27.42,86.07q5,15,9.74,29.24c-.37.17-.71.36-1.07.54,11.89,8.1,23.8,16,35.16,24.39C2485,2231.6,2478.07,2211.11,2470.89,2189.33Zm178.63-142.88c-11.4,6.19-22.81,12.34-34.57,17.83-11.24,5.25-22.58,10.35-34.26,14.57-8.45,3-17,5.61-25.55,8,6.39-14.1,15.49-27.32,29.77-33.93,9.59-3.65,20.14-3.83,30.27-4.26,11.83-.49,23.65-1.05,35.35-2.77C2650.18,2046.08,2649.86,2046.27,2649.52,2046.45Zm220.55-172.55c17.69,35.61,35.73,74.56,55.89,120.55l.28.65-.17.08q6.16,13.89,12.16,27.73C2928,2010.3,2918,1997.5,2908,1984.79c-6.15-7.74-12.37-15.44-18.58-23.15-4.43-5.51-8.73-10.85-14.45-15.12a90.27,90.27,0,0,0-23.72-12.17c-3-1.07-6.07-2-9.15-2.82,2.17-2.57,4.25-5.26,6.14-8,7.38-10.57,13.62-21.38,17.93-33.61A84.09,84.09,0,0,0,2870.07,1873.9Zm-11.5-22.8q3.38,6.63,6.79,13.38a90.61,90.61,0,0,1-17.31,37.53,201.74,201.74,0,0,1-20.59,22.83l-.88.72c-29.5,23.44-59.95,45.83-91.08,67.07-16.8,11.47-33.79,22.79-51.12,33.52a247.13,247.13,0,0,1-24.7,4.28c-19.12,2.32-38.47,1.66-57.57,4-14.73,1.74-27.64,6.73-37.19,18.47a66,66,0,0,0-12.46,25.78c-.27-4.51-.48-9-.52-13.55a125.08,125.08,0,0,1,1.58-23.36c.89-4.8,2.25-11.07,6.47-14.12,3.94-3,10.17-3.81,14.82-4.72,8.06-1.58,16.25-2.56,24.41-3.48,17.71-2,35.48-3.49,53.15-6,15.7-2.18,31.55-4.82,46.31-10.81,7.61-3.09,14.9-7.39,21.87-11.67,32.4-19.93,60.3-47.65,85.26-76.1,18.35-20.92,36.24-43.15,51.21-66.83C2857.54,1849.12,2858.05,1850.12,2858.57,1851.1Zm-5.19-4.59-6.57,6.25c-26.91,25.59-53.74,51.33-82,75.42-23.08,19.64-47.56,39.88-75.47,52.29-9.66,4-19.94,6.18-30.16,8.19-19.76,3.89-39.72,6.56-59.5,10.33a277.07,277.07,0,0,0-28.42,6.68c-6.9,2.09-14.06,4.6-19.77,9.12-12.13,9.59-11.16,28.31-9.26,42a177.06,177.06,0,0,0,6.42,28.67c-5.57-3.33-11.33-6.41-17.22-9.19a236.56,236.56,0,0,1-27.16-41.22c-4.57-9-8.57-18.81-10.39-28.8a59.92,59.92,0,0,1-.34-24.22,701.34,701.34,0,0,0,76.81,3.79c35.54-.12,72.2-2.34,106.09-13.85,13.95-4.74,27.26-12.52,39.77-20.19,33.84-20.77,65.92-44.62,96.42-70,13.79-11.48,27.44-23.16,40.65-35.31Zm-4.88-.71q-7.73,4.77-15.43,9.56c4.62-3.17,9.16-6.46,13.64-9.81Zm-356.16,107.71c5.19-5.46,10.36-10.65,15.52-15.67.21.46.42.93.65,1.39,12.78-6.68,26.52-10.55,40.55-13.71s28.19-5.71,42.34-8.22c38.54-6.87,77.14-13.61,114.93-24a505.59,505.59,0,0,0,99-38.46,486.82,486.82,0,0,1-89.73,26.86c-38.77,7.66-78.1,11.31-117.42,14.61l-14.92,1.27q6.81-3.16,13.79-6.12c15.61-6.61,32.25-11,48.63-15.11,33-8.39,66-16.71,98.87-25.79l-7.08,1c-36.42,5.1-73.08,8.49-109.49,13.68-8.33,1.19-16.68,2.63-25,4.35a221.86,221.86,0,0,1,29.08-10.94c53-15.61,113.74-21.16,180.42-16.48,10.57.74,20.32,1.67,29.48,2.8-21.91,7.82-43.45,16.76-64.86,25.84-36.4,15.45-72.3,32.31-109.25,46.45a217.1,217.1,0,0,1-27.2,8.89c-6.47,1.51-13.12,2.23-19.69,3.19-9.3,1.36-18.5,3-27.63,5.13-7,1.67-14.06,3.41-20.53,6.55,14.64-1.54,29.8-.42,44.49,0,6.29.19,12.63.43,18.92.25a118,118,0,0,0,23.77-3.4c37.52-8.81,73.58-25.71,107.57-43.56q12.94-6.78,25.72-14.08c-4,2.51-8,5-12.07,7.54-33.67,21-67.57,42.76-103.93,58.83-8.5,3.75-17.6,6.1-26.68,8-19.62,4-39.68,5.86-59.65,6.9-35.36,1.86-70.79,1.58-106.14.14C2487.28,1958.9,2489.76,1956.22,2492.34,1953.51Zm-17.91,38c.69,11.08,4,21.83,8.5,32,5.71,13,14.21,24.73,23.43,35.38,3.28,3.81,6.72,7.54,10.27,11.17-1.84-.7-3.69-1.38-5.55-2-1.28-.44-2.57-.85-3.87-1.26-16.56-21.23-39-37.89-52.36-61.38A192.81,192.81,0,0,1,2474.43,1991.47Zm-22.73,16.43c-2.91,14,5.64,29.07,14.72,39.85-12-5.69-24.63-10.49-36.1-17A115.47,115.47,0,0,1,2451.7,2007.9Zm-23.45,38c-.72-3-1.42-5.9-2.13-8.84l.79-1.18c.17-.24.31-.46.48-.71,2.54,11.43,14.15,20.51,24,25.21a64.38,64.38,0,0,0,9.51,3.63,38.5,38.5,0,0,0-20.44,15,37.75,37.75,0,0,0-2.62,4.54C2434.35,2070.7,2431.2,2058,2428.25,2045.88Z" transform="translate(-1052.08 -1183.73)"/><path class="cls-12" d="M2671.28,2709.07s231.86,128.12,308.84,191.39C2980.12,2900.46,2822.9,2866.6,2671.28,2709.07Z" transform="translate(-1052.08 -1183.73)"/><path class="cls-12" d="M2198.06,3034c22.47,4.08,44,11.16,65.37,19.22-.3,0-.6.16-.89.19.5-.06,3,2.3,3.43,2.6a114.08,114.08,0,0,0,11.17,7,172.36,172.36,0,0,0,26.4,11.9c8.82,3.14,48.93-5.91,70.29-26.31-.18-.12-.37-.23-.55-.37-17.19-11.15-34.05-22.84-50.9-34.51l1.29-1.53-2.89-.6c-4.12-.92-8.2-1.93-12.27-3-25.09,13.52-68.67,23.93-118.63-21.12-78.49-70.81-218.07,59.82-301.63,19.91-61.79-29.54-124.18-84.46-152.48-111.07-29.89,10.59-60.42,19.21-89,33.4,39.51,29.59,121.44,87.24,200.73,120L1847,3051c1.81.62,3.61,1.23,5.44,1.82,7.63,2.42,15.76,5.1,23.83,5.42,10,.39,20.09,1,30.13.72a630,630,0,0,0,81.16-6.34c31.87-4.53,63.24-11.94,95-17.4C2121,3028.7,2159.58,3027,2198.06,3034Z" transform="translate(-1052.08 -1183.73)"/><path class="cls-12" d="M3164.17,3103.57c73.31-28.7,147.83-60.89,209.7-110.53,29.24-23.45,55.07-51,74.53-83.16,18.17-30,30.17-63.44,36.92-97.79,7.17-36.45,9.41-73.92,10.51-111,1-35.7.49-71.41-.9-107.09-.69-17.74-1.57-35.45-2.83-53.15q2.85,13.49,5.26,27.07c-3.83-43.28-9.71-82-18.72-105.17,0,0,16.31,309.21-80,432.91-6.73,8.64-14.22,17.33-22.35,26.05a165.09,165.09,0,0,1-15.11,27.1c-21.53,31.17-53,53.94-86.74,70.41a370.27,370.27,0,0,1-46.4,18.72c-113.26,68.13-255.52,119.51-384.32,119.59-40.85,0-76.47-.7-108-2.6a41.76,41.76,0,0,0,21.59,1.85s-31.57,9.69-64.41-5.49c-38.75-4.42-70.6-11.58-98.48-22.76a102.39,102.39,0,0,1-53.34,1.66c19.4,11.57,39,22.77,59.08,33.23,9.84,5.12,19.81,10.24,29.93,15,23.93,2.16,55.81-.5,92.32-17.68,0,0-9.57,23.95-39,37.22a178.84,178.84,0,0,0,19.33,3.6c37.58,4.77,75.87,2,113.31-2.57,39.67-4.9,78.94-12.77,117.8-22.08C3012.12,3158.12,3089.13,3133,3164.17,3103.57Z" transform="translate(-1052.08 -1183.73)"/><path class="cls-12" d="M3673.82,2469c1-1,2-1.94,2.95-2.9.08-.16.15-.32.22-.48,1-2.24,3.05-3.66,4.81-5.39,3.53-3.52,7-7.14,10.27-10.86a151.1,151.1,0,0,0,16.71-22.15,68.27,68.27,0,0,0,9.36-24.65c1.32-8.5.79-17.08,1.05-25.64,0-.11,0-.21,0-.32a391.45,391.45,0,0,1-35.58,17.11,352.82,352.82,0,0,1-79.91,22.89c-10.59,29.4-32.49,83.59-59.6,113.87-24.1,26.94-37.32,45-43.82,54.79.64,4,1.28,8,1.87,11.94,29.49-13.65,57.11-31.89,83.2-51.07C3617,2522.92,3645.83,2496.41,3673.82,2469Z" transform="translate(-1052.08 -1183.73)"/><path class="cls-12" d="M3637.85,2371.1q39.71-17.13,78.22-37c17.92-9,35.35-19,52.71-29.14,1.07-.87,2.14-1.74,3.19-2.61,15.21-12.51,30.59-24.8,44.79-38.48,13.35-12.88,26.19-26.88,34.73-43.52a66.13,66.13,0,0,0,6.26-16.74c1.79-8.87,1.72-18.21,1.34-27.22-.42-9.21-1.33-18.41-2.52-27.57-5.46-15.42-10.3-31.07-14.9-46.75q-16.41-55.82-29.07-112.71c-2.24-10.06-4.46-20.13-6.57-30.23l-1.86,1a103,103,0,0,1-5.3,23.43,60.77,60.77,0,0,1-22.65,29.19c-12.92,9.07-28.13,14.38-43.51,17.84h0s48.73,141.4,39.18,185.32C3764.91,2248,3682,2329.56,3637.85,2371.1Z" transform="translate(-1052.08 -1183.73)"/><path class="cls-14" d="M3070.93,3150.9c-94.63,28.88-326.85,36.89-328.34-93.3-.2-17.53,31.75-54.21,89.28-78.76,68.91-29.41,169.4-47.25,226.46-73,65.43-29.49,169.71-115.58,251-156.16,48.78-24.33,92.23-19.65,105.79-11.89,78.57,45-8.15,231.18-81.54,295S3165.57,3122,3070.93,3150.9Z" transform="translate(-1052.08 -1183.73)"/><path class="cls-19" d="M3234,1545.09c6.43-32.67,11.37-65.72,15.52-98.76,4.81-38.19,8.95-76.61,11.36-115.11q-2,6.15-4.07,12.32-10.5,31.8-21,63.6-6.89,20.77-13.82,41.57h0q-8.16,28.39-16.33,56.8-16.35,56.81-32.69,113.63l-24.54,85.32q-1.08,3.72-2.14,7.43,5.16-29.1,10.32-58.19,7.83-44.06,15.64-88.13c-16,62.51-36.56,143.61-50.86,202.76q-.91,21.33-1.82,42.66-2.33,54.16-4.64,108.33-2.55,59.36-5.08,118.7l-1.65,38.52a123.25,123.25,0,0,1,33.14-25q4.18-2.1,8.58-3.8l4.67-31.62c-5.18-33.08-6.91-66.87-7.3-99.55-.53-45.29-2.42-90.88,3.79-135.89a258.56,258.56,0,0,1,13.53-55.4,99.65,99.65,0,0,1,9-18.17,125.17,125.17,0,0,1,31.39-32.8c0-.09,0-.17.07-.25h0c4.57-17,8.92-34,12.7-51.2Q3226.35,1584.05,3234,1545.09Z" transform="translate(-1052.08 -1183.73)"/><path class="cls-9" d="M2730.48,1684.13c-12.56,6-24.91,14.51-33.85,25.36q-8.82,10.66-17.58,21.36c-21.64,26.38-46.15,50.56-70.59,74.32-30.08,29.28-61.76,57-93.67,84.23-29.86,25.51-60.44,50.22-91.37,74.43-16,12.53-32,25-48.29,37.19-12.81,9.64-24.86,20.2-41,23.65-14.26,3.06-29.11,2.14-43.52.68l22.44,39.3c.81,1.32,1.61,2.65,2.42,4l53.76,88.71L2432.09,2261c.86,1.42,1.72,2.83,2.57,4.25,0-11.11,2.92-22.68,12.08-31.66a38.38,38.38,0,0,1,10.91-7.4q-4.82-14.25-9.74-29.24c-11.37-34.44-19.83-61-27.42-86.07-6.12-20.29-11.18-40.4-15.76-59.25q-1.38-5.66-2.7-11.33c-1.89-8.07,2.51-14.54,4.89-18,.3-.46.6-.89.86-1.3a109.31,109.31,0,0,1,7.19-10.14c15.67-23.9,35.23-48.1,59.83-74,7.44-7.83,14.86-15.17,22.24-22.14l-.65-1.39c1.2-.49,2.4-.92,3.6-1.37,41.94-39,83.15-64.12,125.24-76.52,39.07-11.5,81.94-17.8,128-18.89.55-34.45,4.78-114.12,31.84-121.28,34.63-9.16,228,27.19,228,27.19-54.18-24.49-111.14-44-170.48-50.85C2805.38,1667.29,2764.94,1667.67,2730.48,1684.13Z" transform="translate(-1052.08 -1183.73)"/><path class="cls-9" d="M2376.51,2323.45l-78-47.95-102.88-63.28-85.57-52.63-47.35-29.13-3.69-2.26q15.32,8.19,30.63,16.42l77.51,41.57L2270,2241.3q53.22,28.56,106.45,57.09l67.2,36.05-2.71-5.46c-62.4-62.42-292.6-297.2-238.52-310.89h0c-1.95.13-3.91.31-5.87.52-11.8,1.31-25.35,4-35.55,10.47-6.63,4.21-14.34,8.89-21.17,13.63-10.91,7.55-21.33,15.81-31.63,24.16q-4.73,3.83-9.4,7.72c-32.29,31.28-63.93,63.29-94.18,96.45q-10.36,11.36-20.34,23,44.4,12.13,89.54,21.51c31.59,6.64,62.82,14.29,93.69,23.77,38.34,11.76,76.15,25.58,113.18,40.94Q2329.2,2300.42,2376.51,2323.45Z" transform="translate(-1052.08 -1183.73)"/><path class="cls-16" d="M3120.4,1772.36c-11.3,46.87-18.1,109-22.2,164.7q5.87-43.43,11.71-86.85Q3115.15,1811.29,3120.4,1772.36Z" transform="translate(-1052.08 -1183.73)"/><path class="cls-9" d="M3119.92,1518.19c19.28-33.53,53.57-43.09,68.83-45.75.32-1.77.65-3.54.95-5.32q-7.8,3-15.55,6.28c-20.36,8.57-39.89,18.78-59.17,29.56a36.58,36.58,0,0,0-8.11,6.57,129.93,129.93,0,0,0-16.58,21.1,337.35,337.35,0,0,0-18.5,33.19c-17.46,35.44-31.36,72.62-43.73,110.1-5.31,16.08-10.18,32.29-15,48.52l24.55,159.31c.12.64.24,1.29.35,1.93q11,59.67,22,119.34,7.56,40.9,15.09,81.81C3079.9,1966.7,3098.26,1555.86,3119.92,1518.19Z" transform="translate(-1052.08 -1183.73)"/><path class="cls-12" d="M2560.75,2849.54s-135.6-64.63-198-59.1,89.31,87.06,200.25,58.88" transform="translate(-1052.08 -1183.73)"/><path class="cls-12" d="M3222.92,2535s33.7,37.65,24.74,64.22-113.14,188.37-93.17,187.94,120.34-122.76,128.94-168.53-122.92-178.14-125-271.2S3113.39,2398.77,3222.92,2535Z" transform="translate(-1052.08 -1183.73)"/><path class="cls-17" d="M3096.51,2062l25.36-295.74,66.88-293.8,78-176.78s-9.84,151.26-16.13,202.48-45.54,175.95-45.54,175.95l-56.79,176.12s16,170,17.35,174,2.18,45,2.18,45l-74.05,43Z" transform="translate(-1052.08 -1183.73)"/><path class="cls-15" d="M3869.4,1826.16a540.93,540.93,0,0,0-9.91-58.6,885.11,885.11,0,0,0-33-114.51c-4.39-12-8.88-24.24-16.72-34a83.37,83.37,0,0,0-14.21-13.63,113.62,113.62,0,0,0-36.58-18.32c-10.06-2.95-19.61-4.09-29.78-.17-6.68,2.57-12.67,6.86-19.53,9-6.68,2-13.38.45-19.83-1.59-17.9-5.67-35.31-12.75-53.64-17a147.37,147.37,0,0,0-51.9-2.91c-14.18,1.81-27.82,5.58-41.74,8.73-5.9,1.33-11.18,1.78-16.89-.26-3.21-1.15-6.42-2.26-9.68-3.25-17.09-5.2-35-8.2-52.75-10.19-18.91-2.12-38.16-3-57.12-1a151.41,151.41,0,0,0-36.07,8.89c-4,1.49-7.93,4.28-11.36,6.79-8.93,6.6-16.36,15.09-23.27,23.72-7.34,9.18-14.05,18.86-21.29,28.14a115.28,115.28,0,0,1-11.36,13,27.26,27.26,0,0,1-3.91,3.29c-.23.14-.53.28-.82.42a95.64,95.64,0,0,0-28.78-2.29c-21.27,1.42-42.09,9-59.94,20.87a.09.09,0,0,0,0,0,23.5,23.5,0,0,1-4.25,2.84c0,.08,0,.16-.07.25a125.17,125.17,0,0,0-31.39,32.8,99.65,99.65,0,0,0-9,18.17,258.56,258.56,0,0,0-13.53,55.4c-6.21,45-4.32,90.6-3.79,135.89.5,42.07,3.18,86,12.66,127.83-.8.22-1.59.49-2.4.72,4.08,12.65,10.12,24.28,17.18,36.74,1.58,3.53-.08,7.38-.85,11.15l.89.12a264.78,264.78,0,0,0,19.86,40.43c5,8.31,10.8,16.15,16.39,24.09q3,4.34,6,8.69c-.22,1.7-.42,3.42-.6,5.14,6.42,7.67,12.67,15.44,18.62,23.4-.51-1.52-1-3-1.54-4.57,3.79,5.54,7.57,11.06,11.41,16.56,9.7,13.86,19.77,27.95,33.58,38,8.67,6.3,18.75,9.68,29.08,12.18a42,42,0,0,0,8,.59,71.1,71.1,0,0,0,21.75.17c9.28-1.35,18.15-4.41,27-7.43,9.23-3.17,18.34-6.72,27.43-10.29,18.67-7.35,37.06-15.56,55.19-24.16,35.31-16.72,69.67-35.16,103.78-54.23,6.38-3.57,12.76-7.13,19.25-10.48a59.68,59.68,0,0,0,8-4,63.83,63.83,0,0,0,11-8.09,76,76,0,0,0,16.24-23.2,164.29,164.29,0,0,0,29.27-17.56c11.87-8.93,23.33-19.9,31.63-32.62a327.05,327.05,0,0,0,57.29-33.35c.93-.16,1.84-.3,2.75-.48,17.56-3.39,35.31-8.85,50.09-19.22a60.77,60.77,0,0,0,22.65-29.19,103,103,0,0,0,5.3-23.43l1.86-1c.07.4.17.79.25,1.19,4.83-6.35,12.09-9.77,19.84-13.42,16.31-11.44,30.17-25.73,38.45-44.75,6.22-14.27,8.29-30.78,6.47-46.77A239.83,239.83,0,0,0,3869.4,1826.16Zm-11.75,46.22a71.5,71.5,0,0,1-9.69,18.19c-10.67,14.3-25.82,22.56-42.22,27.81,0,0,0,0,0,0-.8-32-5.86-64-13.57-94.9a396,396,0,0,0-15.73-50c0-.72,0-1.44-.08-2.16-.09-4.35-.45-9,.26-13.3.44-2.65,3.33-5.33,4.88-7.34,4.87-6.28,9.9-12.44,15-18.58-4.77-2.85-10.53-4.15-15.88-5.33-6.72-1.47-13.53-2.51-20.35-3.37-8.56-1.08-17.17-1.93-25.79-2.46,5.66,5.3,9.12,13.38,12.28,20.31,3.31,7.26,6.25,14.69,9,22.18.3,3.35.63,6.69.92,10q4.93,57.42,8.14,115c1.06,19.53,2,39.15,1.44,58.7-.26,9.11-.38,19.07-3,27.88-3.62,9.78-12.54,16.31-21,21.8-10.17,6.58-21.13,11.88-32.17,16.81-1,.45-2,.87-3.07,1.32a281.26,281.26,0,0,1-29.58,5.52c-.35-2.32-.76-4.64-1.16-7-3.5-19.59-9.58-38.89-15.59-57.83-11.52-36.3-24.73-72.08-38.93-107.41-7.52-18.73-15.24-37.47-23.53-55.93a82.89,82.89,0,0,1,0-13.37c.27-3,.71-6.67,2.71-9.11,1.21-1.48,3.19-2.38,4.7-3.52,2.33-1.75,4.54-3.62,6.73-5.54,6.91-6.09,13.51-12.6,19.85-19.29a21.5,21.5,0,0,0-3.6-1.37c-8.52-2.41-18-1.59-26.67-.63a283.66,283.66,0,0,0-32.87,5.93c-13.36,3.1-26.66,6.69-39.72,10.91l1.34.26c9.67,1.93,19.54,4.77,28.2,9.57,4.46,2.49,8.78,5.66,11,10.38,1.85,3.9,4.06,7.63,6.24,11.35,6.32,10.7,13,21.21,19.78,31.63.81,3.65,1.63,7.28,2.45,10.93,8.34,36.73,17.25,73.33,25.81,110,4.5,19.25,9,38.51,12.77,57.9,1.67,8.51,3.35,17.13,4.16,25.77a47,47,0,0,1,.19,7.4c-2.33,8.18-8,15.22-13.78,21.31a123.29,123.29,0,0,1-31.5,23.62c-18.38,9.77-38.48,14.54-59.14,11.46-7.44-1.76-13.75-8-18.9-13.36a187.62,187.62,0,0,1-18-22.49c-11.41-16.34-21.45-33.6-31.07-51-18.67-33.85-35.49-68.67-53.65-102.79-4.15-7.78-8.35-15.55-12.92-23.09a135,135,0,0,0-16.41-21.36l-1.71-1.85c-1.36-8.43-2.56-16.9-3.24-25.36-.16-2.15-.4-3.71,1-5.41a80.19,80.19,0,0,1,8.82-8.36c6.5-5.66,13.21-11.12,20-16.47l.63-.5a324.53,324.53,0,0,0-42.61,7.84,208,208,0,0,0-34.32,11.41c-9.58,4.27-19.38,9.67-26.21,17.82-.7.85-1.37,1.71-2,2.62,7.35.79,14.75,1.46,22.12,2,5.19.39,10.41.76,15.63.84,2.49,0,6.05-.9,8.43-.19,3.15,1,5.95,3.63,8.35,5.77,3.76,3.35,7.27,7,10.71,10.66,3.08,3.29,6.08,6.66,9.05,10.07a137.33,137.33,0,0,1,8.65,18.11c10,26.13,18.58,52.75,28.46,78.89,13.74,36.35,28.77,72.81,49,106.1,4.49,7.42,9.29,14.78,14.55,21.78-8.92,6.56-18,12.89-27,19.31-5.56,3.85-11.25,7.57-17,11.23-13.65,2.91-27.76,4.22-41.58,1.81-8.7-1.51-16.62-4.72-24.5-8.54l.52.22c-6.36-3.39-12-9.38-16.94-14.63-11.78-12.48-22-26.38-32-40.32-22.87-32-44-65.15-66-97.75-11.33-16.8-22.63-33.72-34.55-50.18q-9.13-20-18.26-39.94c-4.6,11.47-7.42,23.84-9.42,36-4.45,26.92-3.84,54.94,3.89,81.21a151.76,151.76,0,0,0,6.63,18.13,274.47,274.47,0,0,0,23.58-39.94l2.44,2.4a637.36,637.36,0,0,0,49.24,97,419.07,419.07,0,0,0,24.29,35,2.06,2.06,0,0,0-.13.45,145.35,145.35,0,0,0-5,22.69,174.93,174.93,0,0,0-.23,43c3.84-12,8.47-23.62,15-34.52a135.57,135.57,0,0,1,7.62-11.46c8.11,8.59,17.05,16.6,27.22,22.46,24.48,14.08,55,14.94,81.5,6.47a150,150,0,0,0,29.28-13.23c2.46-.19,4.88-.39,7.32-.61,12.34-1.15,24.91-1.8,37.15-3.73,9.65-1.52,19.28-3.07,28.88-4.83-.08-.17-.15-.34-.24-.5.61.12,1.2.27,1.8.38a101.11,101.11,0,0,0,28.12.82,48.15,48.15,0,0,1-7.91,4.09l-.09,0c.25-.06.49-.14.73-.21a285.9,285.9,0,0,0-26.69,11.93q-9.21,3.29-18.33,6.77c-21.3,8.16-42.29,17.08-63.06,26.45-29.19,13.16-57.77,27.58-86.66,41.36-3.69,1.38-7.38,2.75-11.08,4-8.06,2.81-16.33,5.59-24.75,7a33.49,33.49,0,0,1-10.79.46,54,54,0,0,1-8.86-3.08c-12.54-5.58-20.33-16.88-27.63-28.07-11-16.84-21.21-34.22-31.86-51.28-5.3-8.55-10.85-17-16.08-25.56a220.48,220.48,0,0,1-22.61-52.08c-17.6-58.95-17.15-121-16.4-182,.24-19.62.07-39.25,1.14-58.85,1.05-19.22,3-38.46,6.84-57.32a177.27,177.27,0,0,1,7.43-26.82,60.52,60.52,0,0,1,3.75-8.94c-.09.15-.13.34-.22.49a80,80,0,0,1,36.55-33c9.07-4.2,19-7,29-7.13a65.79,65.79,0,0,1,14.39,1.68l-1-.24c23.05,5.66,41.81-9.73,55.62-26.21,9.3-11.1,17.35-23.16,26.17-34.63,5.09-6.61,10.79-14.82,18.45-18.71l3.46-1.37c8.27-3.34,17.95-4.34,26.76-4.87a245.67,245.67,0,0,1,29.1.06c18.22,1.08,37.39,2.9,55,8.1,8.82,2.32,17,6,26.29,6.18,18.08.93,35.33-7.12,52.75-10.7a114.8,114.8,0,0,1,41.36-1.2c16.83,2.69,33.05,8.24,49.36,13,10.16,3,21.23,6.3,31.95,5.12,8.9-.33,17.52-3.26,25.34-7.39,4.08-2.16,8.67-6.16,13.31-7.17a17,17,0,0,0,2.52.14c9.58,2.35,18.85,5.34,27.42,10.44a86.74,86.74,0,0,1,10,7.18c2.14,1.83,3.77,4.14,5.79,6.11,3,4.29,5.1,9.41,7.27,14.15,2.84,6.18,5.51,12.45,8.09,18.74q7.63,18.56,14.55,37.4c9.23,25.16,17.75,50.65,24.8,76.5,5.26,19.33,10,38.84,12.52,58.72C3857.45,1855.37,3858.29,1864.22,3857.65,1872.38Z" transform="translate(-1052.08 -1183.73)"/><path class="cls-9" d="M3096.05,2933.6c73.84-37.7,141.65-97.59,228.6-136.31,49.76-22.16,86.16-21.22,89.78,2.76,9.93,65.9-34,238.89-236.31,308.1s-387,59.43-389.29-30.93S3022.22,2971.31,3096.05,2933.6Z" transform="translate(-1052.08 -1183.73)"/><image width="758" height="1033" transform="matrix(0.37, -0.27, 0.11, 0.15, 1888.15, 1856.47)" xlink:href="../../../../../../Desktop/$.png"/></svg>