<?xml version="1.0" encoding="utf-8"?>
<!-- Generator: Adobe Illustrator 23.0.6, SVG Export Plug-In . SVG Version: 6.00 Build 0)  -->
<svg version="1.1" id="Layer_1" xmlns="http://www.w3.org/2000/svg" xmlns:xlink="http://www.w3.org/1999/xlink" x="0px" y="0px"
	 viewBox="0 0 250 100" style="enable-background:new 0 0 250 100;" xml:space="preserve">
<style type="text/css">
	.st0{fill:url(#SVGID_1_);stroke:#000000;stroke-width:1.6204;}
</style>
<g>
	<linearGradient id="SVGID_1_" gradientUnits="userSpaceOnUse" x1="12.515" y1="-109.696" x2="280.8835" y2="-109.696">
		<stop  offset="0" style="stop-color:#FFFFFF"/>
		<stop  offset="0" style="stop-color:#FFFFFF;stop-opacity:0.2131"/>
		<stop  offset="0" style="stop-color:#FFFFFF;stop-opacity:0.7"/>
		<stop  offset="0.8551" style="stop-color:#FFFFFF;stop-opacity:0.5"/>
		<stop  offset="1" style="stop-color:#FFFFFF;stop-opacity:0"/>
		<stop  offset="1" style="stop-color:#FFFFFF;stop-opacity:0.9604"/>
		<stop  offset="1" style="stop-color:#FFFFFF;stop-opacity:0.7583"/>
		<stop  offset="1" style="stop-color:#FFFFFF"/>
	</linearGradient>
	<path class="st0" d="M12.6-148.3l11,69c0.8,5.2,9,9.7,18.3,10.1l193.7,6.9c9.3,0.3,16.2-3.6,15.3-8.9l-7.8-49.1l37.8,6l-40-20
		l-0.9-5.9c-0.8-5.2-9-9.7-18.3-10.1l-193.7-6.9C18.6-157.4,11.8-153.5,12.6-148.3z"/>
</g>
<text transform="matrix(0.9997 2.356000e-02 -2.356000e-02 0.9997 26.2836 -122.7682)" style="fill:#333333; font-family:'ClassicComic'; font-size:24px;">Selling a car?</text>
<text transform="matrix(0.9995 3.074000e-02 -3.074000e-02 0.9995 42.7721 -88.6004)" style="fill:#333333; font-family:'ClassicComic'; font-size:24px;">Sell it to me!</text>
</svg>
